<svg width="34" height="45" viewBox="0 0 34 45" fill="none" xmlns="http://www.w3.org/2000/svg">
<path d="M5.92233 2.24683C7.86272 -0.679123 17.2413 0.214917 21.6881 1.02768C36.241 2.85623 31.3901 13.8289 25.9327 16.2672C20.4753 18.7055 25.9327 22.9725 30.7837 26.6299C35.6347 30.2873 35.0283 35.1639 23.5072 41.8692C11.9861 48.5745 2.28409 38.8214 1.07134 33.3352C-0.141411 27.849 10.7733 32.7256 15.0179 27.849C19.2626 22.9725 11.3797 24.1916 3.49685 21.7533C-4.38602 19.315 6.52872 15.048 11.3797 15.6576C16.2307 16.2672 18.0498 9.56186 10.7733 8.34272C3.49683 7.12357 3.49683 5.90426 5.92233 2.24683Z" fill="#E46A1F"/>
</svg>
