<svg width="49" height="39" viewBox="0 0 49 39" fill="none" xmlns="http://www.w3.org/2000/svg">
<path d="M0.735699 24.2089C2.03209 28.7077 7.31842 24.6611 11.755 27.4224C14.8595 29.3545 12.3546 38.4864 23.4226 31.9212C28.9011 28.6715 25.3672 33.2064 31.8492 37.0626C38.3312 40.9187 38.0155 31.9212 44.1649 31.9212C49.9988 31.9212 48.7024 24.2088 47.406 19.0674C46.1096 13.9259 39.6276 16.4955 37.0348 17.1372C34.442 17.7789 33.1455 14.5686 33.1455 13.2811C33.1455 11.9936 35.7383 9.42657 31.201 4.92817C27.1013 0.863602 22.1262 -0.857674 16.9406 3.64091C12.3126 7.6557 15.6442 10.7104 16.9406 13.2811C18.237 15.8519 16.2924 17.7799 14.3478 17.1372C12.4032 16.4946 13.6996 16.4957 9.16219 15.853C4.6248 15.2103 -0.732732 19.1131 0.735699 24.2089Z" fill="#3FB6D7"/>
</svg>
