<?xml version="1.0" encoding="utf-8"?>
<!-- Generator: Adobe Illustrator 18.0.0, SVG Export Plug-In . SVG Version: 6.00 Build 0)  -->
<!DOCTYPE svg PUBLIC "-//W3C//DTD SVG 1.1//EN" "http://www.w3.org/Graphics/SVG/1.1/DTD/svg11.dtd">
<svg version="1.1" id="Layer_1" xmlns="http://www.w3.org/2000/svg" xmlns:xlink="http://www.w3.org/1999/xlink" x="0px" y="0px"
	 viewBox="287.8 0 864.4 700" enable-background="new 287.8 0 864.4 700" xml:space="preserve">
<title>name</title>
<path fill="#E70020" d="M605.3,158.8h-54.1l-6.7-22.4h-55.7l-6.7,22.4H430L487.9,0h59.3L605.3,158.8z M516.3,44.2l-16.8,56.6h34.4
	l-16.5-56.6L516.3,44.2z M690.4,0c54.3,0,83.4,25.2,83.4,79.4s-29.1,79.4-83.4,79.4h-68.8V0H690.4z M672.6,38.1v82.6h16.8
	c22.4,0,32.1-12.7,32.1-34.4V72.4c0-21.6-9.6-34.4-32.1-34.4L672.6,38.1z M948.9,158.8h-54.1l-6.7-22.4h-55.7l-6.7,22.4h-52.2
	L831.6,0h59.3L948.9,158.8z M859.9,44.2l-16.8,56.6h34.5l-16.6-56.6H859.9z M1152.2,158.8h-50.5v-57.3c0.2-16.8,1.5-33.7,3.7-50.3
	h-0.9l-29.4,107.6h-40l-29.6-107.4h-0.9c2.5,16.6,3.9,33.3,4.2,50.1v57.3h-46.9V0h72l24.1,91.7h0.9L1082.7,0h69.5V158.8z
	 M393.5,180.4c24,0,43.8,16,43.8,38.9s-12.2,32.8-26.5,36.9v0.9c16.4,3.7,30.3,14.4,30.3,39.7c0,25.3-20.6,42.3-46.2,42.3H287.8
	V180.4H393.5z M338.7,215.2v27h35.2c6.6-0.1,11.9-5.6,11.8-12.3c0,0,0,0,0,0c0-0.1,0-0.1,0-0.2v-2.4c0.1-6.6-5.2-12.1-11.8-12.2
	L338.7,215.2z M338.7,275v27.3h38.9c6.5,0,11.8-5.4,11.8-11.9c0,0,0,0,0,0c0-0.2,0-0.4,0-0.5v-2.4c0.3-6.6-4.9-12.2-11.5-12.5h-0.2
	L338.7,275z M621.1,339.2h-54l-6.7-22.4h-55.7l-6.7,22.4h-52.2l57.9-158.8h59.4L621.1,339.2z M532.1,224.6l-16.8,56.6h34.4
	l-16.6-56.6H532.1z M787.6,275.1c0,43.9-29.1,66.7-79,66.7s-79.2-22.9-79.2-66.7v-94.7h51v94.2c0,17.1,9.2,29.3,28,29.3
	s28.2-12.2,28.2-29.3v-94.2h51L787.6,275.1z M1006.1,339.2h-50.5v-57.3c0.2-16.8,1.5-33.7,3.7-50.3h-0.9l-29.4,107.6h-40
	l-29.6-107.4h-0.9c2.5,16.6,3.9,33.3,4.2,50.1v57.3h-46.9V180.4H888l24.1,91.7h0.9l23.6-91.7h69.5L1006.1,339.2z M409.2,357.9
	c44.6,0,80.8,20.3,80.8,60.3h-48.7c0-13.6-13.9-22.2-30-22.2c-24.2,0-36.5,13.6-36.5,36.7v14.8c0,23.1,12.2,36.7,36.5,36.7
	c16.2,0,30-8.3,30-21h-36.1v-32.3h84.8v88.7h-26.2l-5.1-15.7c-14.4,12.2-32.6,18.5-56.8,18.5c-52.9,0-79.2-27.9-79.2-82.2
	S354.3,357.9,409.2,357.9L409.2,357.9z M679.3,519.6h-54l-6.7-22.4h-55.7l-6.7,22.4H504l58-158.8h59.3L679.3,519.6z M590.3,405
	l-16.8,56.6h34.4L591.3,405H590.3z M846.3,409.4c0.3,19.7-12.1,37.3-30.7,43.6l35.5,66.5h-57.4l-28.2-58h-18.9v58h-51V360.8h97.2
	C828.2,360.8,846.3,383.6,846.3,409.4L846.3,409.4z M794.3,411.5c0.1-7.8-6.1-14.3-13.9-14.4c0,0,0,0,0,0c-0.1,0-0.3,0-0.4,0h-33.4
	v29.3h33.5c8-0.1,14.4-6.6,14.3-14.5c0-0.1,0-0.2,0-0.4L794.3,411.5z M1013.6,401.4h-51.8v118.2h-51V401.4h-52.2v-40.5h155.2
	L1013.6,401.4z M659.3,700h-44.6L548,622.9V700h-46.9V541.2h44.6l66.7,78.3v-78.3h46.9V700z M690.6,700V541.2H828v38.1h-86.4v21.9
	h73.9v36.5h-73.9V662h88v38H690.6z M1005.2,589.9c0.3,19.7-12.1,37.3-30.7,43.6l35.3,66.5h-57.3l-28.2-58h-18.9v58h-51V541.2h97.2
	C987,541.2,1005.3,564,1005.2,589.9L1005.2,589.9z M953.3,591.9c0.1-7.8-6.1-14.3-13.9-14.4c0,0,0,0,0,0c-0.1,0-0.3,0-0.4,0h-33.5
	v29.3H939c8-0.1,14.4-6.6,14.3-14.5c0,0,0,0,0,0C953.3,592.2,953.3,592,953.3,591.9L953.3,591.9z"/>
</svg>
