<?xml version="1.0" encoding="utf-8"?>
<!-- Generator: Adobe Illustrator 18.0.0, SVG Export Plug-In . SVG Version: 6.00 Build 0)  -->
<!DOCTYPE svg PUBLIC "-//W3C//DTD SVG 1.1//EN" "http://www.w3.org/Graphics/SVG/1.1/DTD/svg11.dtd">
<svg version="1.1" id="Layer_1" xmlns="http://www.w3.org/2000/svg" xmlns:xlink="http://www.w3.org/1999/xlink" x="0px" y="0px"
	 viewBox="0 0 114 113" enable-background="new 0 0 114 113" xml:space="preserve">
<g>
	<path d="M102,91.3l-3.2,3.6c-0.7,0.7-1.4,1.1-2.1,1.1c-0.8,0-1.5-0.3-2.2-0.9c-0.7-0.6-1.1-1.3-1.1-2.1c-0.1-0.8,0.2-1.5,0.9-2.2
		l2.3-2.6l-2.8-2.5l0.9-1L102,91.3z M95.2,91.6c-0.4,0.4-0.5,0.8-0.5,1.3c0,0.5,0.3,0.9,0.7,1.3c0.4,0.4,0.9,0.6,1.3,0.6
		c0.4,0,0.8-0.2,1.2-0.7l2.2-2.5l-2.8-2.4L95.2,91.6z"/>
	<path d="M94.4,99.3l-4.1,3.1c-0.8,0.6-1.6,0.8-2.3,0.7c-0.7-0.1-1.3-0.5-1.9-1.2c-0.4-0.5-0.6-1.1-0.7-1.7c0-0.6,0.1-1.1,0.4-1.6
		l-4.4-2l1.2-0.9l4.2,2l2.9-2.2l-2.4-3.2l1.1-0.8L94.4,99.3z M87.6,98.7c-0.4,0.3-0.7,0.7-0.7,1.1c-0.1,0.4,0.1,0.9,0.4,1.3
		c0.3,0.4,0.7,0.6,1.1,0.7c0.4,0,0.8-0.1,1.3-0.4l3-2.2l-2.1-2.7L87.6,98.7z"/>
	<path d="M80.1,98.6c1.1,0.4,2.1,1.4,2.7,2.9c0.7,1.5,0.8,2.9,0.4,4c-0.4,1.1-1.4,2-2.8,2.6c-1.4,0.6-2.7,0.7-3.9,0.3
		c-1.1-0.4-2.1-1.4-2.7-2.9c-0.7-1.5-0.8-2.8-0.4-4c0.4-1.1,1.4-2,2.8-2.7C77.7,98.3,79,98.2,80.1,98.6z M74.8,101.9
		c-0.3,0.8-0.2,1.8,0.4,3l0,0.1c0.6,1.2,1.3,2,2.1,2.3c0.8,0.3,1.7,0.3,2.8-0.2c1-0.5,1.7-1.1,2-1.9c0.3-0.8,0.2-1.8-0.4-3.1l0-0.1
		c-0.6-1.2-1.2-2-2-2.3c-0.8-0.3-1.7-0.2-2.8,0.2C75.7,100.4,75.1,101.1,74.8,101.9z"/>
	<path d="M72.6,111l-3.6,0.7c-1.6,0.3-2.8,0.2-3.8-0.4c-1-0.6-1.7-1.7-2-3.4c-0.3-1.6-0.2-2.9,0.5-3.9c0.7-1,1.8-1.6,3.3-1.9
		l3.6-0.7L72.6,111z M67.2,103.3c-1.1,0.2-1.9,0.7-2.4,1.4c-0.5,0.7-0.6,1.7-0.3,3l0,0c0.3,1.3,0.8,2.2,1.5,2.6
		c0.7,0.4,1.6,0.5,2.8,0.3l2.2-0.5l-1.5-7.3L67.2,103.3z"/>
	<path d="M59.8,104c0.7,0.6,1,1.6,1,2.9l0,6.2l-1.4,0l0-6.3c0-0.8-0.2-1.5-0.7-1.9c-0.5-0.4-1.1-0.7-2-0.7c-0.9,0-1.5,0.2-2,0.7
		c-0.5,0.4-0.7,1.1-0.7,1.9l0,6.3l-1.4,0l0-6.2c0-1.3,0.4-2.2,1.1-2.9c0.7-0.6,1.7-0.9,3-0.9C58.1,103,59.1,103.3,59.8,104z"/>
	<path d="M50,103.9c0.6,1,0.7,2.3,0.4,4c-0.4,1.7-1,2.8-2,3.5c-1,0.7-2.2,0.8-3.8,0.5c-1.3-0.3-2.2-0.8-2.8-1.6s-0.8-1.8-0.5-2.9
		l1.4,0.3c-0.2,0.8-0.1,1.5,0.3,2c0.4,0.5,1,0.9,1.9,1.1c1.1,0.2,2,0.1,2.7-0.4c0.7-0.5,1.2-1.4,1.5-2.7l0,0
		c0.3-1.3,0.2-2.4-0.2-3.1c-0.4-0.7-1.2-1.2-2.3-1.4c-0.9-0.2-1.6-0.1-2.2,0.2c-0.6,0.3-1,0.9-1.2,1.7l-1.3-0.3
		c0.3-1.2,0.8-2,1.7-2.4s2-0.5,3.2-0.3C48.3,102.2,49.4,102.9,50,103.9z"/>
	<path d="M35.5,107.5l3.1,1.3l-0.5,1.1l-7.5-3.2l0.5-1.1l3.1,1.3l3.5-7.9l1.3,0.5L35.5,107.5z"/>
	<path d="M24.4,103l-2.8-2.3c-1.2-1-1.9-2.1-2.1-3.2c-0.2-1.2,0.3-2.4,1.3-3.7c1-1.3,2.2-2,3.3-2.1c1.2-0.1,2.4,0.4,3.6,1.3l2.8,2.3
		L24.4,103z M27,94c-0.9-0.7-1.7-1-2.6-1s-1.7,0.6-2.5,1.6l0,0c-0.8,1-1.2,2-1.1,2.8c0.1,0.8,0.6,1.6,1.5,2.3l1.8,1.4l4.7-5.8L27,94
		z"/>
	<path d="M15.4,95.3l-4.9-5.8l0.9-0.8l4,4.8l2.3-1.9l-3.6-4.3l0.9-0.8l3.6,4.3l2.5-2.1l-4-4.8l0.9-0.8L23,89L15.4,95.3z"/>
	<path d="M16.5,81.6c-0.1,0.9-0.5,1.6-1.4,2.1l-0.3,0.1l-0.6-1.2c0,0,0,0,0.1,0c0.1,0,0.1,0,0.2-0.1c0.5-0.3,0.8-0.7,0.8-1.3
		c0-0.6-0.1-1.2-0.5-1.9c-0.4-0.8-0.9-1.3-1.4-1.6c-0.5-0.3-0.9-0.3-1.4-0.1c-0.3,0.2-0.5,0.4-0.6,0.7c-0.1,0.3-0.1,0.7,0,1.1
		c0.1,0.4,0.2,0.9,0.3,1.5c0.2,0.8,0.3,1.4,0.4,2c0.1,0.5,0,1-0.1,1.5c-0.2,0.5-0.5,0.9-1,1.1c-0.8,0.4-1.5,0.4-2.2,0
		c-0.7-0.4-1.4-1.1-1.9-2.1c-0.5-1-0.8-1.9-0.7-2.7c0.1-0.8,0.5-1.5,1.3-1.9l0.2-0.1L8.2,80L8,80.1c-0.4,0.2-0.7,0.6-0.7,1.1
		c0,0.5,0.1,1.1,0.5,1.7c0.4,0.7,0.8,1.1,1.2,1.4c0.4,0.3,0.8,0.3,1.2,0.1c0.3-0.2,0.5-0.4,0.5-0.7c0.1-0.3,0.1-0.7,0-1
		c-0.1-0.4-0.2-0.9-0.3-1.5c-0.2-0.8-0.3-1.5-0.4-2c-0.1-0.5,0-1,0.1-1.5c0.2-0.5,0.5-0.9,1-1.1c0.9-0.5,1.8-0.5,2.6-0.1
		c0.8,0.4,1.5,1.2,2.1,2.3C16.3,79.7,16.6,80.7,16.5,81.6z"/>
	<path d="M3.9,77l-0.5-1.3l9.3-3.4l0.5,1.3L3.9,77z"/>
	<path d="M5.9,67.3l-1-4.7l5-1l0.2,1l-1.1,0.3c1,0.6,1.6,1.6,1.9,3.1c0.3,1.6,0.2,2.8-0.5,3.8c-0.7,1-1.8,1.6-3.5,2
		c-3.3,0.7-5.3-0.6-6-3.8c-0.3-1.3-0.2-2.4,0.2-3.4c0.4-0.9,1.2-1.5,2.3-1.7l0.3,1.4c-0.8,0.2-1.3,0.5-1.6,1.2C2,66,2,66.8,2.2,67.7
		c0.2,1.2,0.7,2,1.4,2.4c0.7,0.4,1.8,0.5,3.1,0.2l0,0c1.4-0.3,2.3-0.8,2.8-1.4c0.5-0.7,0.6-1.6,0.4-2.7c-0.2-1.1-0.6-1.8-1.2-2.2
		c-0.6-0.4-1.3-0.5-2.2-0.3l-0.1,0l0.7,3.4L5.9,67.3z"/>
	<path d="M0,59.8l0-1.2l7-5.1l0.5-0.3l0-0.1l-0.7,0L0.1,53l0-1.3l9.9,0.1l0,1.2l-7,5.1l-0.5,0.4l0,0.1l0.7,0l6.8,0.1l0,1.3L0,59.8z"
		/>
	<path d="M0.6,48l1.6-7.4l1.2,0.3L2,47l3,0.6l1.2-5.4l1.2,0.3l-1.2,5.4l3.2,0.7l1.3-6.1l1.2,0.3l-1.6,7.5L0.6,48z"/>
	<path d="M3.3,37.3l2.1-4.7c0.4-0.9,0.9-1.5,1.6-1.8c0.7-0.3,1.4-0.2,2.2,0.1c0.6,0.3,1.1,0.7,1.4,1.1c0.3,0.5,0.5,1,0.4,1.6
		l4.8-0.3l-0.6,1.4l-4.6,0.3l-1.5,3.3l3.7,1.6l-0.6,1.2L3.3,37.3z M9.6,34.6c0.2-0.5,0.2-0.9,0.1-1.4c-0.2-0.4-0.5-0.7-1-1
		c-0.5-0.2-0.9-0.2-1.3-0.1c-0.4,0.2-0.7,0.5-0.9,1l-1.5,3.4L8,37.9L9.6,34.6z"/>
	<path d="M11.1,22.9l3.1-3.6c0.6-0.7,1.3-1.1,2.1-1.2c0.8,0,1.5,0.2,2.2,0.8c0.7,0.6,1.1,1.3,1.2,2.1c0.1,0.8-0.2,1.5-0.8,2.2
		l-2.2,2.6l2.9,2.4l-0.9,1L11.1,22.9z M17.9,22.4c0.3-0.4,0.5-0.8,0.4-1.3c-0.1-0.5-0.3-0.9-0.7-1.2c-0.4-0.4-0.9-0.6-1.3-0.5
		c-0.4,0-0.8,0.3-1.2,0.7l-2.2,2.6l2.8,2.4L17.9,22.4z"/>
	<path d="M18.5,14.7l4-3.2c0.8-0.6,1.5-0.9,2.3-0.8c0.7,0.1,1.4,0.4,1.9,1.1c0.4,0.5,0.6,1.1,0.7,1.7c0.1,0.6-0.1,1.1-0.4,1.6
		l4.4,1.9L30.3,18l-4.2-1.9l-2.8,2.2l2.5,3.2l-1.1,0.8L18.5,14.7z M25.4,15.2c0.4-0.3,0.7-0.7,0.7-1.2c0.1-0.4-0.1-0.9-0.4-1.3
		c-0.3-0.4-0.7-0.6-1.1-0.7c-0.4,0-0.8,0.1-1.3,0.5l-2.9,2.3l2.1,2.7L25.4,15.2z"/>
	<path d="M32.8,15.1c-1.1-0.4-2.1-1.3-2.8-2.9c-0.7-1.5-0.9-2.8-0.5-4c0.4-1.1,1.3-2,2.7-2.7c1.4-0.7,2.7-0.8,3.8-0.4
		c1.1,0.4,2.1,1.4,2.8,2.9c0.7,1.5,0.9,2.8,0.5,4c-0.4,1.1-1.3,2.1-2.7,2.7C35.2,15.3,33.9,15.5,32.8,15.1z M38,11.7
		c0.3-0.8,0.1-1.8-0.5-3l0-0.1c-0.6-1.2-1.3-2-2.1-2.3c-0.8-0.3-1.7-0.2-2.8,0.3c-1,0.5-1.7,1.1-1.9,2c-0.3,0.8-0.1,1.8,0.5,3.1
		l0,0.1c0.6,1.2,1.3,2,2.1,2.3s1.7,0.2,2.8-0.3C37.1,13.1,37.8,12.5,38,11.7z"/>
	<path d="M40,2.5l3.6-0.8c1.5-0.4,2.8-0.2,3.8,0.3c1,0.6,1.7,1.7,2.1,3.3c0.4,1.6,0.2,2.9-0.4,3.9c-0.6,1-1.7,1.6-3.3,2L42.3,12
		L40,2.5z M45.6,10c1.1-0.3,1.9-0.7,2.3-1.4c0.5-0.7,0.5-1.7,0.2-3l0,0c-0.3-1.3-0.8-2.1-1.5-2.6c-0.7-0.4-1.6-0.5-2.8-0.2l-2.2,0.5
		l1.7,7.2L45.6,10z"/>
	<path d="M53,9.2c-0.7-0.6-1.1-1.5-1.1-2.8l-0.1-6.2l1.4,0l0.1,6.3c0,0.8,0.3,1.5,0.7,1.9c0.5,0.4,1.1,0.6,2,0.6
		c0.9,0,1.5-0.3,2-0.7c0.5-0.4,0.7-1.1,0.7-1.9L58.5,0l1.4,0L60,6.2c0,1.3-0.3,2.2-1,2.9c-0.7,0.6-1.7,1-3,1
		C54.7,10.1,53.7,9.8,53,9.2z"/>
	<path d="M62.8,9c-0.6-1-0.8-2.3-0.5-4c0.3-1.7,1-2.8,1.9-3.5c1-0.7,2.2-0.9,3.8-0.6c1.3,0.2,2.2,0.7,2.9,1.5
		c0.6,0.8,0.8,1.7,0.6,2.9l-1.4-0.3c0.2-0.8,0-1.5-0.4-2c-0.4-0.5-1.1-0.9-1.9-1c-1.1-0.2-2-0.1-2.7,0.4C64.5,3,64,3.9,63.7,5.3l0,0
		c-0.3,1.4-0.2,2.4,0.2,3.1c0.4,0.7,1.2,1.2,2.4,1.4c0.9,0.2,1.6,0.1,2.2-0.2c0.6-0.3,1-0.9,1.1-1.7L71,8.1c-0.2,1.2-0.8,2-1.7,2.5
		c-0.9,0.5-1.9,0.6-3.2,0.3C64.5,10.6,63.4,10,62.8,9z"/>
	<path d="M77.2,5l-3.2-1.3l0.4-1.1l7.6,3l-0.4,1.1l-3.2-1.3l-3.3,8L74,13L77.2,5z"/>
	<path d="M88.4,9.3l2.9,2.2c1.3,1,2,2,2.2,3.2c0.2,1.2-0.2,2.4-1.2,3.7c-1,1.3-2.1,2-3.3,2.2c-1.2,0.1-2.4-0.3-3.6-1.2L82.4,17
		L88.4,9.3z M86,18.3c0.9,0.7,1.8,1,2.6,0.9c0.8-0.1,1.6-0.7,2.5-1.7l0,0c0.8-1.1,1.2-2,1-2.8c-0.1-0.8-0.6-1.6-1.6-2.3L88.7,11
		l-4.6,5.9L86,18.3z"/>
	<path d="M97.6,16.7l5,5.7l-0.9,0.8l-4.1-4.7l-2.3,2l3.7,4.2L98,25.5l-3.7-4.2l-2.5,2.1l4.2,4.7l-0.9,0.8l-5.1-5.7L97.6,16.7z"/>
	<path d="M96.8,30.5c0-0.9,0.5-1.6,1.4-2.1l0.3-0.1l0.7,1.2c0,0,0,0-0.1,0c-0.1,0-0.1,0-0.2,0.1c-0.5,0.3-0.8,0.7-0.8,1.3
		c0,0.6,0.2,1.2,0.6,1.9c0.5,0.8,0.9,1.3,1.4,1.6c0.5,0.3,1,0.3,1.4,0c0.3-0.2,0.5-0.4,0.6-0.8c0.1-0.3,0.1-0.7,0-1.1
		c-0.1-0.4-0.2-0.9-0.4-1.5c-0.2-0.8-0.4-1.4-0.5-1.9c-0.1-0.5,0-1,0.1-1.5c0.1-0.5,0.5-0.9,1-1.2c0.8-0.4,1.5-0.4,2.2,0
		c0.8,0.4,1.4,1.1,2,2c0.6,1,0.8,1.9,0.8,2.7s-0.5,1.5-1.3,1.9l-0.1,0.1l-0.7-1.2l0.2-0.1c0.4-0.2,0.6-0.6,0.7-1.1
		c0-0.5-0.1-1.1-0.5-1.7c-0.4-0.7-0.8-1.1-1.2-1.4c-0.4-0.3-0.8-0.3-1.2-0.1c-0.3,0.2-0.5,0.4-0.5,0.7c-0.1,0.3-0.1,0.7,0,1
		c0.1,0.4,0.2,0.9,0.4,1.5c0.2,0.8,0.4,1.4,0.5,2c0.1,0.5,0.1,1-0.1,1.5c-0.1,0.5-0.5,0.9-1,1.2c-0.9,0.5-1.8,0.6-2.5,0.2
		c-0.8-0.4-1.5-1.1-2.1-2.2C97.1,32.3,96.8,31.4,96.8,30.5z"/>
	<path d="M109.6,34.8l0.5,1.3l-9.2,3.7l-0.5-1.3L109.6,34.8z"/>
	<path d="M107.8,44.4l1.1,4.7l-5,1.2l-0.2-1l1-0.3c-1-0.5-1.7-1.5-2-3c-0.4-1.6-0.2-2.8,0.4-3.8c0.6-1,1.8-1.7,3.5-2.1
		c3.3-0.8,5.4,0.4,6.1,3.7c0.3,1.3,0.3,2.4-0.1,3.4c-0.4,0.9-1.2,1.5-2.3,1.8l-0.3-1.3c0.8-0.2,1.3-0.6,1.5-1.2
		c0.3-0.6,0.3-1.4,0.1-2.3c-0.3-1.2-0.8-2-1.5-2.4s-1.8-0.5-3.1-0.2l0,0c-1.4,0.3-2.3,0.8-2.7,1.5c-0.5,0.7-0.6,1.6-0.3,2.7
		c0.3,1.1,0.7,1.8,1.2,2.2c0.6,0.4,1.3,0.5,2.2,0.3l0.1,0l-0.8-3.4L107.8,44.4z"/>
	<path d="M113.9,51.8l0,1.2l-6.8,5.3l-0.5,0.3l0,0.1l0.7,0l6.7-0.1l0,1.3l-9.9,0.1l0-1.2l6.9-5.3l0.5-0.4l0-0.1l-0.7,0l-6.8,0.1
		l0-1.3L113.9,51.8z"/>
	<path d="M113.6,63.6l-1.4,7.4l-1.2-0.2l1.2-6.1l-3-0.6l-1.1,5.5l-1.2-0.2l1.1-5.5l-3.2-0.6l-1.2,6.2l-1.2-0.2l1.5-7.5L113.6,63.6z"
		/>
	<path d="M111.2,74.4l-2,4.7c-0.4,0.9-0.9,1.5-1.6,1.8c-0.7,0.3-1.4,0.3-2.2-0.1c-0.6-0.3-1.1-0.6-1.4-1.1c-0.3-0.5-0.5-1-0.5-1.6
		l-4.8,0.5l0.6-1.4l4.6-0.4l1.4-3.3l-3.8-1.5l0.5-1.3L111.2,74.4z M105,77.3c-0.2,0.5-0.2,0.9-0.1,1.4c0.2,0.4,0.5,0.7,1,0.9
		c0.5,0.2,0.9,0.2,1.3,0c0.4-0.2,0.7-0.5,0.9-1l1.4-3.4l-3.2-1.3L105,77.3z"/>
</g>
</svg>
