<?xml version="1.0" encoding="UTF-8"?>
<svg width="304px" height="180px" viewBox="0 0 304 180" version="1.1" xmlns="http://www.w3.org/2000/svg" xmlns:xlink="http://www.w3.org/1999/xlink">
    <!-- Generator: Sketch 44.1 (41455) - http://www.bohemiancoding.com/sketch -->
    <title>Coffee Break</title>
    <desc>Created with Sketch.</desc>
    <defs></defs>
    <g id="Page-1" stroke="none" stroke-width="1" fill="none" fill-rule="evenodd">
        <g id="Desktop-HD" transform="translate(-44.000000, -572.000000)">
            <g id="Coffee-Break" transform="translate(46.000000, 573.000000)">
                <ellipse id="Oval" fill="#000000" fill-rule="nonzero" opacity="0.2" style="mix-blend-mode: multiply;" cx="149.940433" cy="171.039637" rx="39.3519856" ry="7.80353474"></ellipse>
                <path d="M165.51444,168.817009 C162.048736,167.876042 156.444043,167.259547 150.113718,167.259547 C143.783394,167.259547 138.200361,167.870634 134.712996,168.817009 L131.046931,168.817009 L131.046931,171.088308 L131.046931,171.088308 C131.17148,173.154109 139.646209,174.819728 150.092058,174.819728 C160.537906,174.819728 169.00722,173.154109 169.137184,171.088308 L169.137184,171.088308 L169.137184,168.817009 L165.51444,168.817009 Z" id="Shape" stroke="#000000" stroke-width="2" fill="#E6E6E6" fill-rule="nonzero" stroke-linejoin="round"></path>
                <ellipse id="Oval" stroke="#000000" stroke-width="2" fill="#B3B3B3" fill-rule="nonzero" cx="150.113718" cy="168.919758" rx="19.0505415" ry="3.78009063"></ellipse>
                <rect id="Rectangle-path" stroke="#000000" stroke-width="2" fill="#B3B3B3" fill-rule="nonzero" x="138.205776" y="111.520785" width="23.8158845" height="5.89996979"></rect>
                <path d="M224.453069,122.217523 C221.588448,123.380211 201.850181,127.084592 197.225632,127.960665 C197.128385,127.95129 197.03046,127.95129 196.933213,127.960665 C196.747387,127.989762 196.565634,128.040585 196.391697,128.112085 L196.267148,128.112085 L196.267148,128.112085 C195.357401,128.523082 194.642599,129.474864 195.140794,130.496949 C196.16426,132.15716 196.613718,157.709275 196.494585,160.953988 C190.039711,159.634471 183.806859,166.978338 188.095668,168.216737 C192.384477,169.455136 197.333935,167.475861 200.063177,167.037825 C202.792419,166.599789 201.768953,164.934169 201.287004,163.295589 C200.50722,160.634924 199.15343,139.030544 198.67148,130.951208 C198.712473,130.556144 198.988457,130.224983 199.370036,130.112991 C205.207581,128.344622 224.702166,126.651964 225.855596,125.970574 C227.252708,125.202659 227.702166,120.908822 224.453069,122.217523 Z" id="Shape" fill="#000000" fill-rule="nonzero"></path>
                <path d="M33.2978339,170.444773 C33.2978339,174.625045 40.3808664,178.296979 62.3610108,178.296979 C84.3411552,178.296979 99.3574007,176.939607 102.162455,170.725982 C103.884477,166.940483 58.5866426,155.794894 28.8303249,157.206344 C6.87184116,158.25006 33.2978339,166.259094 33.2978339,170.444773 Z" id="Shape" fill="#000000" fill-rule="nonzero" opacity="0.2" style="mix-blend-mode: multiply;"></path>
                <rect id="Rectangle-path" stroke="#000000" stroke-width="2" fill="#F2F2F2" fill-rule="nonzero" x="21.3519856" y="101.034955" width="3.42779783" height="26.8608157"></rect>
                <rect id="Rectangle-path" stroke="#000000" stroke-width="2" fill="#F2F2F2" fill-rule="nonzero" x="21.3519856" y="126.554622" width="3.42779783" height="31.7278852"></rect>
                <rect id="Rectangle-path" stroke="#000000" stroke-width="2" fill="#F2F2F2" fill-rule="nonzero" x="34.8032491" y="134.936798" width="3.42779783" height="31.7278852"></rect>
                <rect id="Rectangle-path" stroke="#000000" stroke-width="2" fill="#F2F2F2" fill-rule="nonzero" x="59.4314079" y="134.374381" width="3.42779783" height="31.7278852"></rect>
                <rect id="Rectangle-path" stroke="#000000" stroke-width="2" fill="#F2F2F2" fill-rule="nonzero" x="50.0306859" y="126.554622" width="3.42779783" height="31.7278852"></rect>
                <path d="M75.7743682,138.20855 L38.4476534,138.20855 C37.2234223,138.116603 36.0319172,137.770317 34.9494585,137.191873 L23.8267148,131.80565 C19.5270758,129.723625 17.1768953,126.28423 20.0361011,126.28423 L57.3465704,126.28423 C58.5708015,126.376177 59.7623066,126.722463 60.8447653,127.300906 L71.9837545,132.708761 C76.299639,134.769154 78.6498195,138.20855 75.7743682,138.20855 Z" id="Shape" stroke="#000000" stroke-width="2" fill="#B3B3B3" fill-rule="nonzero"></path>
                <path d="M23.8267148,131.80565 L34.965704,137.213505 C36.0448884,137.782263 37.2305542,138.121093 38.4476534,138.20855 L75.7581227,138.20855 C78.633574,138.20855 76.299639,134.769154 71.967509,132.68713 L64.9277978,129.290997 L20.1444043,129.290997 C21.2323475,130.316685 22.4749432,131.165254 23.8267148,131.80565 L23.8267148,131.80565 Z" id="Shape" fill="#B3B3B3" fill-rule="nonzero" opacity="0.2" style="mix-blend-mode: multiply;"></path>
                <path d="M53.4530686,91.0736858 C53.967509,99.418006 45.3303249,106.756465 34.131769,107.421631 C22.933213,108.086798 16.1805054,104.041722 15.666065,95.7190332 C15.1516245,87.3963444 19.5108303,85.0222961 30.698556,84.3625378 C41.8862816,83.7027795 52.9440433,82.7401813 53.4530686,91.0736858 Z" id="Shape" stroke="#000000" stroke-width="2" fill="#B3B3B3" fill-rule="nonzero"></path>
                <polygon id="Shape" fill="#000000" fill-rule="nonzero" points="107.65343 124.018338 103.066787 122.498731 101.274368 126.316677 104.859206 126.554622 107.263538 125.505498"></polygon>
                <path d="M52.3050542,96.8763142 C52.98699,94.253772 53.2195159,91.5348781 52.9927798,88.8348338 C50.7238267,82.8861934 40.765343,83.6973716 30.698556,84.3084592 C28.732852,84.427432 26.9837545,84.6004834 25.4296029,84.8492447 C24.674857,86.3212201 24.0689714,87.8646868 23.6209386,89.4567372 C22.2888087,94.1832024 20.9133574,99.8884894 21.6281588,105.361239 C24.6281588,106.707795 29.4476534,107.70284 34.131769,107.416224 C42.6064982,106.902477 49.6245487,102.576193 52.3050542,96.8763142 Z" id="Shape" fill="#B3B3B3" fill-rule="nonzero" opacity="0.2" style="mix-blend-mode: multiply;"></path>
                <path d="M23.6101083,0.540785498 C39.898917,-2.49302115 48.4169675,8.43625378 52.1209386,14.9743505 L52.0505415,15.0176133 C58.7870036,17.305136 65.1768953,29.2024169 65.1768953,29.2024169 C65.1768953,29.2024169 65.7184116,34.6102719 60.3032491,31.3655589 C58.5162455,22.4696375 53.0685921,17.9648943 49.3754513,16.6561934 C21.2761733,32.6904834 0.806859206,3.93691843 0.30866426,1.83867069 C1.91696751,2.94187311 7.3267148,3.55296073 23.6101083,0.540785498 Z" id="Shape" stroke="#000000" stroke-width="2" fill="#39B54A" fill-rule="nonzero"></path>
                <path d="M47.5938628,14.4497885 C45.7218635,11.3836738 42.8554459,9.04974175 39.4711191,7.83598187 C36.16787,6.60299094 32.5776173,6.51646526 29.0090253,6.79226586 C25.4404332,7.06806647 21.7851986,7.63048338 18.0595668,7.57099698 C17.133574,7.57099698 16.2021661,7.51151057 15.2761733,7.39253776 C14.3519783,7.27847074 13.4352517,7.11054072 12.5306859,6.88960725 C11.6331534,6.64119615 10.7552964,6.32667864 9.90433213,5.94864048 C9.06521065,5.56748996 8.26230503,5.11137443 7.50541516,4.58586103 C10.8303249,6.15413897 14.4747292,6.48942598 18.0379061,6.2947432 C19.8249097,6.19199396 21.6119134,6.00812689 23.4151625,5.7539577 C25.2184116,5.49978852 27.0379061,5.30510574 28.8790614,5.15909366 C30.7415499,5.01278298 32.6132711,5.02906833 34.4729242,5.20776435 C36.3587805,5.39655653 38.2028655,5.88205175 39.9368231,6.64625378 C41.6686767,7.39900952 43.2444499,8.46828231 44.5830325,9.79903323 C45.9051603,11.1188258 46.9314262,12.7040734 47.5938628,14.4497885 L47.5938628,14.4497885 Z" id="Shape" fill="#000000" fill-rule="nonzero"></path>
                <path d="M36.8826715,6.52728097 C35.9400148,6.73028751 35.0147855,7.00693928 34.1155235,7.35468278 C32.3643603,8.050374 30.761826,9.07262985 29.3935018,10.366858 C28.6955024,11.036696 28.050944,11.7599416 27.465704,12.53 C27.6874943,11.5329438 28.1296866,10.5980175 28.7599278,9.79362538 C30.0263655,8.14272253 31.8374337,6.99317322 33.8718412,6.54891239 C34.8615526,6.31987903 35.8897628,6.31249181 36.8826715,6.52728097 Z" id="Shape" fill="#000000" fill-rule="nonzero"></path>
                <path d="M49.3754513,16.6561934 C24.3357401,30.9491541 5.35018051,9.66383686 1.18050542,3.37990937 C2.37895882,4.1465788 3.48073283,5.05440653 4.46209386,6.08383686 C12.0433213,13.1410876 19.9765343,18.1217221 30.8068592,17.0401511 C34.7761733,16.6507855 43.5920578,15.5529909 47.4909747,14.6012085 C48.8490609,14.2715125 50.2303073,14.0455324 51.6227437,13.9252266 C52.9494585,15.6070695 51.3032491,13.4871903 52.1209386,14.9364955 L52.0505415,14.9797583 C58.7870036,17.305136 65.1768953,29.2024169 65.1768953,29.2024169 C65.1768953,29.2024169 65.7184116,34.6102719 60.3032491,31.3655589 C58.5162455,22.4696375 53.0685921,17.9648943 49.3754513,16.6561934 Z" id="Shape" fill="#009245" fill-rule="nonzero" opacity="0.3" style="mix-blend-mode: multiply;"></path>
                <path d="M30.7906137,5.59172205 C30.3058684,5.81120278 29.7659668,5.87907071 29.2418773,5.78640483 C28.1736202,5.6086059 27.240459,4.96420562 26.6967509,4.02885196 C26.4229209,3.57315696 26.2944843,3.04501403 26.3285199,2.51465257 C26.7021661,2.88779456 27.0216606,3.21226586 27.3628159,3.50429003 C27.687829,3.79774984 28.029554,4.07220545 28.3862816,4.32628399 C28.7339699,4.57223053 29.095582,4.79793308 29.4693141,5.00226586 C29.8916968,5.19154079 30.3249097,5.37540785 30.7906137,5.59172205 Z" id="Shape" fill="#000000" fill-rule="nonzero"></path>
                <path d="M122.453069,61.8983082 C122.453069,61.8983082 106.749097,89.9650755 88.2454874,69.8640785" id="Shape" stroke="#000000" stroke-width="6" stroke-linecap="round"></path>
                <path d="M63.2815884,27.8666767 C69.0270758,26.4822659 74.4205776,29.4890332 75.3736462,30.2893958 C82.5054152,36.2380363 83.5938628,43.6738369 92.7942238,62.1957402 C98.8916968,74.4823867 100.564982,75.5855891 104.166065,85.9903021 C106.137184,91.6901813 109.039711,100.396828 107.415162,111.407221 C106.787004,115.663202 104.707581,129.793927 92.4368231,138.792598 C83.5288809,145.325287 74.0523466,145.611903 69.7797834,145.7471 C67.6407942,145.811994 50.1931408,145.7471 38.9620939,135.364018 C14.2743682,112.483384 28.8953069,84.3625378 48.9314079,45.4259819 C51.8935018,39.6828399 55.234657,29.8080967 63.2815884,27.8666767 Z" id="Shape" stroke="#000000" stroke-width="2" fill="#8BC440" fill-rule="nonzero"></path>
                <path d="M19.6949458,7.34386707 C19.2184116,7.67915408 18.7797834,7.94954683 18.3574007,8.24697885 C17.9350181,8.54441088 17.5288809,8.82561934 17.133574,9.12845921 C16.7382671,9.43129909 16.3537906,9.73413897 15.9638989,10.0748338 C15.5740072,10.4155287 15.1895307,10.7616314 14.7454874,11.1564048 C14.8015503,10.5778102 14.9966021,10.0212714 15.3140794,9.53404834 C15.9387547,8.5576177 16.8877381,7.83200278 17.9945848,7.4844713 C18.5422053,7.30369762 19.1250102,7.25550501 19.6949458,7.34386707 Z" id="Shape" fill="#000000" fill-rule="nonzero"></path>
                <path d="M47.8429603,107.616314 C48.5442233,107.617111 49.166846,107.168444 49.3871277,106.503575 C49.6074093,105.838706 49.3756231,105.107724 48.8122744,104.690665 C35.4314079,94.79429 44.8754513,74.9961329 44.9729242,74.7960423 C45.2479216,74.272761 45.2162414,73.6415407 44.8902281,73.148342 C44.5642148,72.6551434 43.9954446,72.3779918 43.4055439,72.4248819 C42.8156433,72.471772 42.2979361,72.8352856 42.0541516,73.3737764 C41.9458484,73.5954985 31.3537906,95.8109668 46.8790614,107.291843 C47.1572967,107.500254 47.4951642,107.613988 47.8429603,107.616314 L47.8429603,107.616314 Z" id="Shape" fill="#000000" fill-rule="nonzero"></path>
                <path d="M47.3176895,110.076888 C47.429501,110.451497 47.59747,110.807038 47.8158845,111.13142 C48.3574007,111.672205 49.2292419,111.445076 49.8032491,110.942145 C50.8375451,110.039033 55.1209386,107.086344 54.6119134,105.745196 C54.1787004,104.604139 48.7256318,104.468943 47.5722022,105.247674 C46.3592058,106.080483 46.4945848,108.443716 47.3176895,110.076888 Z" id="Shape" fill="#000000" fill-rule="nonzero"></path>
                <path d="M48.0758123,107.389184 C49.0056007,109.603746 48.6348063,112.150037 47.1119134,114.008399" id="Shape" stroke="#000000" stroke-width="5" stroke-linecap="round"></path>
                <path d="M49.4241877,108.768187 C51.468233,110.104662 52.2859005,112.694596 51.3790614,114.960181" id="Shape" stroke="#000000" stroke-width="5" stroke-linecap="round"></path>
                <path d="M50.398917,108.1571 C52.8305435,108.396963 54.7558898,110.315187 55.0018051,112.742961" id="Shape" stroke="#000000" stroke-width="5" stroke-linecap="round"></path>
                <path d="M51.0487365,106.680755 C52.188471,106.316349 53.4185281,106.350683 54.5361011,106.778097 C55.6624388,107.220177 56.6132341,108.017767 57.2436823,109.049396" id="Shape" stroke="#000000" stroke-width="5" stroke-linecap="round"></path>
                <path d="M48.9151625,133.36852 C59.8158845,135.347795 71.7779783,134.752931 80.9566787,128.555529 C93.4548736,120.113867 97.7057762,103.338701 96.4277978,88.3264955 C95.734657,80.214713 93.7202166,72.2435347 91.5541516,64.3967372 C90.7418773,61.4602719 85.1696751,48.0974622 84.4061372,44.0902417 C85.6083032,46.7400906 91.1588448,58.9023565 92.799639,62.2065559 C98.8971119,74.4932024 100.570397,75.5964048 104.17148,86.0011178 C106.142599,91.700997 109.045126,100.407644 107.420578,111.418036 C106.792419,115.674018 104.712996,129.804743 92.4422383,138.803414 C83.534296,145.336103 74.0577617,145.622719 69.7851986,145.757915 C67.6462094,145.82281 50.198556,145.757915 38.967509,135.374834 C38.1064982,134.574471 37.2942238,133.752477 36.5306859,132.957523 C40.267148,131.675861 44.8267148,132.627644 48.9151625,133.36852 Z" id="Shape" fill="#D6B343" fill-rule="nonzero" opacity="0.3" style="mix-blend-mode: overlay;"></path>
                <path d="M67.8844765,29.2024169 C67.6569335,29.992675 67.1779144,30.6874545 66.5198556,31.1816918 C65.8623059,31.6987736 65.0863113,32.0444335 64.2617329,32.1875529 C63.4450606,32.326028 62.6073941,32.2742072 61.8140794,32.0361329 C61.036602,31.8163273 60.3294776,31.3989603 59.7617329,30.8247734 C60.1477028,30.8028585 60.5346077,30.8028585 60.9205776,30.8247734 C61.2942238,30.7923263 61.6462094,30.8247734 62.0036101,30.8247734 C62.6694542,30.8082304 63.3334197,30.7468017 63.9909747,30.6409063 C64.6383241,30.5277863 65.2743792,30.3576766 65.8916968,30.132568 C66.5757909,29.8667927 67.2415077,29.5560624 67.8844765,29.2024169 L67.8844765,29.2024169 Z" id="Shape" fill="#000000" fill-rule="nonzero"></path>
                <path d="M62.6967509,31.4250453 C62.6967509,31.4250453 59.398917,10.2749245 56.2364621,6.39208459 C53.0740072,2.50924471 64.4079422,4.41821752 63.200361,9.79903323 C62.6209386,11.4213897 63.8826715,27.1041692 65.9729242,30.4191843 C65.7184116,30.8247734 63.7689531,31.9928701 62.6967509,31.4250453 Z" id="Shape" stroke="#000000" stroke-width="2" fill="#D6B343" fill-rule="nonzero"></path>
                <path d="M63.1570397,9.76117825 C63.1570397,9.76117825 62.6155235,11.3835347 60.9909747,11.3835347" id="Shape" stroke="#000000" stroke-width="2" stroke-linecap="round"></path>
                <path d="M59.4855596,4.94818731 C60.9580657,5.20990006 62.2613489,6.05676908 63.0974729,7.29519637 C63.4526207,7.75808287 63.6224972,8.33642576 63.5740072,8.91755287 C63.4223827,9.88555891 62.3285199,10.4641994 61.3429603,10.4317523 C60.1968698,10.3465363 59.1297365,9.81660141 58.3700361,8.95540785 C57.6220094,8.09931251 57.0085161,7.13472901 56.5505415,6.09465257 C56.333935,5.65661631 56.1498195,5.06716012 56.4963899,4.72646526 C56.7245797,4.55031594 57.0103439,4.46547368 57.2978339,4.48851964 C58.4074266,4.45502973 59.5169125,4.5585631 60.601083,4.79676737" id="Shape" fill="#FFFFFF" fill-rule="nonzero" opacity="0.7" style="mix-blend-mode: overlay;"></path>
                <path d="M129.557762,63.0123263 C130.429603,62.6175529 131.31769,61.9577946 131.463899,61.0384592 C131.502499,60.5344521 131.420842,60.0284889 131.225632,59.5621148 L130.185921,56.4147432 C130.092446,55.9700608 129.825485,55.580863 129.444043,55.3331722 C128.680505,54.9708459 127.819495,55.787432 126.958484,55.8739577 C126.351986,55.9172205 129.124549,53.5323565 128.50722,53.4241994 C127.391697,53.2187009 122.897112,55.9334441 122.279783,56.9014502 C121.662455,57.8694562 121.987365,58.9402115 121.792419,60.1461631 C121.424188,62.4823565 122.718412,63.3908761 124.283394,63.6396375 C126.064642,63.9662217 127.903142,63.7475583 129.557762,63.0123263 Z" id="Shape" stroke="#000000" fill="#000000" fill-rule="nonzero"></path>
                <path d="M82.0180505,130.275227 C82.0180505,130.275227 80.1823105,162.370846 79.2238267,165.653414 C78.7418773,167.27577 77.7184116,168.957613 80.4476534,169.39565 C83.1768953,169.833686 88.1263538,171.818369 92.4151625,170.574562 C96.7039711,169.330755 90.4711191,161.986888 84.0162455,163.311813 C83.8971119,160.0671 84.3465704,134.514985 85.3700361,132.854773 C84.4565855,131.758877 83.3119834,130.87804 82.0180505,130.275227 L82.0180505,130.275227 Z" id="Shape" fill="#000000" fill-rule="nonzero"></path>
                <path d="M84.0812274,132.130121 C84.0812274,132.130121 59.3068592,125.846193 56.0577617,124.526677 C52.8086643,123.20716 53.2635379,127.500997 54.6606498,128.312175 C55.8140794,128.993565 75.1299639,132.373474 80.967509,134.136435 C81.9476534,134.433867 81.6498195,135.704713 81.6498195,135.704713 L84.0812274,132.130121 Z" id="Shape" fill="#000000" fill-rule="nonzero"></path>
                <ellipse id="Oval" fill="#8BC440" fill-rule="nonzero" style="mix-blend-mode: multiply;" cx="55.3537906" cy="126.18148" rx="1.7599278" ry="3.10951662"></ellipse>
                <path d="M106.722022,123.920997 C99.7418773,125.629879 75.5577617,131.491994 72.3574007,131.648822 C71.631769,131.681269 70.8790614,131.648822 70.2509025,131.72994 C70.5595054,132.050391 70.8186591,132.414904 71.0198556,132.811511 C71.0198556,132.811511 75.6281588,140.085076 73.9223827,147.077432 C76.6028881,146.536647 79.3808664,140.177009 76.4783394,135.526254 C79.6083032,134.385196 102.292419,127.92281 106.554152,127.582115 C106.943983,127.554301 107.294763,127.335612 107.490975,126.998066 C107.77844,126.483095 108.01077,125.939307 108.184116,125.37571 C108.29736,124.964326 108.180284,124.52391 107.877632,124.222787 C107.574981,123.921663 107.133538,123.80638 106.722022,123.920997 Z" id="Shape" fill="#000000" fill-rule="nonzero"></path>
                <path d="M71.0252708,132.833142 C70.8240743,132.436535 70.5649206,132.072022 70.2563177,131.751571 C69.2707581,131.902991 68.631769,132.400514 68.9187726,134.125619 C69.433213,136.943112 69.1407942,142.453716 71.9512635,146.233807 C72.3610875,146.914371 73.1518328,147.268216 73.933213,147.120695 C75.633574,140.106707 71.0252708,132.833142 71.0252708,132.833142 Z" id="Shape" fill="#333333" fill-rule="nonzero"></path>
                <path d="M38.7129964,166.664683 C38.817458,166.665906 38.9167831,166.710129 38.9875143,166.786907 C39.0582456,166.863685 39.0941118,166.966211 39.0866426,167.070272 C38.9458484,168.83864 37.8519856,168.83864 36.5198556,168.83864 C35.1877256,168.83864 34.0938628,168.83864 33.9530686,167.070272 C33.9455994,166.966211 33.9814656,166.863685 34.0521968,166.786907 C34.1229281,166.710129 34.2222532,166.665906 34.3267148,166.664683 L38.7129964,166.664683 Z" id="Shape" stroke="#000000" stroke-width="2" fill="#333333" fill-rule="nonzero"></path>
                <path d="M25.2617329,158.077009 C25.3661945,158.078232 25.4655195,158.122455 25.5362508,158.199233 C25.6069821,158.276011 25.6428483,158.378537 25.6353791,158.482598 C25.4945848,160.250967 24.400722,160.250967 23.0685921,160.250967 C21.7364621,160.250967 20.6425993,160.250967 20.5018051,158.482598 C20.4943358,158.378537 20.530202,158.276011 20.6009333,158.199233 C20.6716646,158.122455 20.7709897,158.078232 20.8754513,158.077009 L25.2617329,158.077009 Z" id="Shape" stroke="#000000" stroke-width="2" fill="#333333" fill-rule="nonzero"></path>
                <path d="M53.9350181,157.806616 C54.0394797,157.80784 54.1388047,157.852062 54.209536,157.92884 C54.2802673,158.005619 54.3161335,158.108145 54.3086643,158.212205 C54.16787,159.980574 53.0740072,159.980574 51.7418773,159.980574 C50.4097473,159.980574 49.3158845,159.980574 49.1750903,158.212205 C49.167621,158.108145 49.2034872,158.005619 49.2742185,157.92884 C49.3449498,157.852062 49.4442749,157.80784 49.5487365,157.806616 L53.9350181,157.806616 Z" id="Shape" stroke="#000000" stroke-width="2" fill="#333333" fill-rule="nonzero"></path>
                <path d="M63.3574007,165.577704 C63.4618623,165.578927 63.5611874,165.62315 63.6319187,165.699928 C63.70265,165.776706 63.7385162,165.879232 63.7310469,165.983293 C63.5902527,167.751662 62.4963899,167.751662 61.1642599,167.751662 C59.83213,167.751662 58.7382671,167.751662 58.5974729,165.983293 C58.5900037,165.879232 58.6258699,165.776706 58.6966012,165.699928 C58.7673325,165.62315 58.8666575,165.578927 58.9711191,165.577704 L63.3574007,165.577704 Z" id="Shape" stroke="#000000" stroke-width="2" fill="#333333" fill-rule="nonzero"></path>
                <path d="M136.180505,63.1745619 L127.077617,65.9758308 C126.245358,66.2333605 125.355554,65.8032387 125.041516,64.9916012 L118.716606,48.6706949 C118.556723,48.2409836 118.582498,47.7642922 118.787785,47.3542722 C118.993072,46.9442522 119.359476,46.6376457 119.799639,46.5075529 L131.279783,42.9762236 C131.720393,42.8396516 132.198069,42.8927022 132.597867,43.1226097 C132.997666,43.3525173 133.283388,43.7384652 133.386282,44.1875831 L137.32852,61.2115106 C137.527685,62.0663525 137.023911,62.9277829 136.180505,63.1745619 L136.180505,63.1745619 Z" id="Shape" stroke="#000000" stroke-width="2" fill="#FFFFFF" fill-rule="nonzero"></path>
                <path d="M119.84296,51.5855287 L134.063177,47.210574" id="Shape" stroke="#000000" stroke-width="2" fill="#FFFFFF" fill-rule="nonzero"></path>
                <path d="M130.619134,39.7855891 L124.586643,41.6404834 L124.33213,43.6738369 L118.435018,45.4854683 L117.676895,47.5891239 C117.519856,48.0271601 117.893502,48.5733535 118.272563,48.4543807 L123.953069,46.7076435 L127.305054,45.6801511 L133.261733,43.8522961 C133.592058,43.7495468 133.646209,43.2141692 133.359206,42.8896979 L130.619134,39.7855891 Z" id="Shape" stroke="#000000" stroke-width="2" fill="#000000" fill-rule="nonzero" stroke-linejoin="round"></path>
                <path d="M127.494585,38.3416918 C127.65303,36.5957886 127.209809,34.8481885 126.238267,33.3880967 C125.263858,31.9273572 124.177574,30.5442144 122.98917,29.2510876 C122.402327,28.5500009 121.859761,27.8131072 121.364621,27.0446828 C120.863213,26.2518252 120.48526,25.3875341 120.243682,24.4813595 C120.001241,23.571809 119.944156,22.6229014 120.075812,21.6909063 C120.151105,21.2302557 120.285799,20.7812776 120.476534,20.3551662 C120.674212,19.9421143 120.935507,19.5625623 121.250903,19.2303323 C120.34657,20.8148338 120.498195,22.6480967 121.055957,24.2325982 C121.204181,24.6291786 121.374112,25.0173265 121.564982,25.395287 C121.767486,25.7674404 121.989827,26.1284823 122.231047,26.476858 C122.723688,27.1956122 123.255161,27.8870389 123.823105,28.5480665 C124.933213,29.9108459 126.1787,31.2898489 126.980144,32.9770997 C127.392588,33.8149462 127.668617,34.71311 127.797834,35.6377644 C127.929156,36.5501535 127.824769,37.4809216 127.494585,38.3416918 L127.494585,38.3416918 Z" id="Shape" fill="#000000" fill-rule="nonzero"></path>
                <path d="M126.373646,27.9045317 C126.575515,27.373711 126.658686,26.8052214 126.617329,26.2389124 C126.583267,25.6828753 126.462688,25.1355294 126.259928,24.6165559 C125.820935,23.5824791 125.237527,22.6156916 124.527076,21.7449849 C123.794177,20.8419924 123.160575,19.8629572 122.637184,18.8247432 C122.385433,18.2895495 122.203444,17.7243257 122.095668,17.1429003 C122.006456,16.5638092 122.03966,15.9724794 122.193141,15.4069789 C122.1451,15.9727906 122.200141,16.5426133 122.355596,17.0888218 C122.503316,17.6289157 122.717972,18.1484817 122.994585,18.6354683 C123.580717,19.6062673 124.233926,20.535066 124.949458,21.4151057 C125.691541,22.328185 126.263763,23.3666847 126.638989,24.4813595 C126.807572,25.0496235 126.884348,25.6410965 126.866426,26.2335045 C126.842219,26.8224993 126.672964,27.3964475 126.373646,27.9045317 L126.373646,27.9045317 Z" id="Shape" fill="#000000" fill-rule="nonzero"></path>
                <path d="M122.480144,32.3173414 C122.169202,32.8677538 122.083807,33.5170417 122.241877,34.1289728 C122.399655,34.7223397 122.682085,35.2753766 123.070397,35.7513293 C123.444043,36.2596677 123.888087,36.7301511 124.283394,37.2655287 C124.708818,37.7841331 125.010644,38.3925186 125.166065,39.044713 C124.5,37.9036556 123.454874,37.1627795 122.637184,36.0758006 C122.20653,35.5317897 121.931449,34.8814571 121.841155,34.1938671 C121.732124,33.5014751 121.97105,32.7998188 122.480144,32.3173414 L122.480144,32.3173414 Z" id="Shape" fill="#000000" fill-rule="nonzero"></path>
                <path d="M136.554152,57.166435 C135.84009,57.4055591 135.092476,57.5296891 134.33935,57.5341692 C134.03877,57.5713469 133.736334,57.4811308 133.505415,57.2854079" id="Shape" stroke="#000000" stroke-width="5" stroke-linecap="round"></path>
                <path d="M136.933213,54.2570091 C135.881704,55.2542469 134.549226,55.9054308 133.115523,56.122719" id="Shape" stroke="#000000" stroke-width="5" stroke-linecap="round"></path>
                <path d="M135.871841,51.1961631 C135.366387,52.7244434 134.333925,54.0238208 132.958484,54.8626888" id="Shape" stroke="#000000" stroke-width="5" stroke-linecap="round"></path>
                <path d="M134.214801,48.8167069 C133.952904,49.5792623 133.617391,50.3145841 133.212996,51.0122961 C132.769552,51.7445463 132.142377,52.3485066 131.393502,52.7644411" id="Shape" stroke="#000000" stroke-width="5" stroke-linecap="round"></path>
                <path d="M120.947653,57.3232628 C120.736462,57.7234441 121.48917,58.0316918 121.407942,58.475136 C121.282916,58.9488823 121.424314,59.4531064 121.777535,59.7931005 C122.130757,60.1330947 122.640524,60.2556508 123.109988,60.1134433 C123.579452,59.9712359 123.935144,59.5865201 124.039711,59.107855 C124.208908,58.4267964 124.628362,57.8341757 125.214801,57.4476435 C125.839368,57.0478751 126.586687,56.8847996 127.3213,56.9879758 C127.804962,57.0536652 128.286978,56.8566819 128.585775,56.4712275 C128.884571,56.0857732 128.954756,55.5704075 128.76989,55.1192638 C128.585024,54.66812 128.173194,54.3497377 127.689531,54.2840483 C126.308775,54.1619012 124.924027,54.4698373 123.725632,55.1655287 C121.456679,56.3660725 121.456679,56.3660725 120.947653,57.3232628 Z" id="Shape" stroke="#000000" fill="#000000" fill-rule="nonzero"></path>
                <path d="M266.583032,170.444773 C266.583032,174.625045 259.5,178.296979 237.519856,178.296979 C215.539711,178.296979 200.523466,176.939607 197.718412,170.725982 C195.99639,166.940483 241.294224,155.794894 271.050542,157.206344 C293.009025,158.25006 266.583032,166.259094 266.583032,170.444773 Z" id="Shape" fill="#000000" fill-rule="nonzero" opacity="0.2" style="mix-blend-mode: multiply;"></path>
                <rect id="Rectangle-path" stroke="#000000" stroke-width="2" fill="#F2F2F2" fill-rule="nonzero" transform="translate(276.809567, 114.465363) rotate(-180.000000) translate(-276.809567, -114.465363) " x="275.095668" y="101.034955" width="3.42779783" height="26.8608157"></rect>
                <rect id="Rectangle-path" stroke="#000000" stroke-width="2" fill="#F2F2F2" fill-rule="nonzero" transform="translate(276.809567, 142.413157) rotate(-180.000000) translate(-276.809567, -142.413157) " x="275.095668" y="126.549215" width="3.42779783" height="31.7278852"></rect>
                <rect id="Rectangle-path" stroke="#000000" stroke-width="2" fill="#F2F2F2" fill-rule="nonzero" transform="translate(263.358303, 150.795332) rotate(-180.000000) translate(-263.358303, -150.795332) " x="261.644404" y="134.93139" width="3.42779783" height="31.7278852"></rect>
                <rect id="Rectangle-path" stroke="#000000" stroke-width="2" fill="#F2F2F2" fill-rule="nonzero" transform="translate(238.730144, 150.232915) rotate(-180.000000) translate(-238.730144, -150.232915) " x="237.016245" y="134.368973" width="3.42779783" height="31.7278852"></rect>
                <rect id="Rectangle-path" stroke="#000000" stroke-width="2" fill="#F2F2F2" fill-rule="nonzero" transform="translate(248.136282, 142.413157) rotate(-180.000000) translate(-248.136282, -142.413157) " x="246.422383" y="126.549215" width="3.42779783" height="31.7278852"></rect>
                <path d="M224.106498,138.20855 L261.416968,138.20855 C262.641199,138.116603 263.832704,137.770317 264.915162,137.191873 L276.054152,131.784018 C280.353791,129.701994 282.703971,126.262598 279.844765,126.262598 L242.534296,126.262598 C241.310065,126.354545 240.11856,126.700831 239.036101,127.279275 L227.897112,132.68713 C223.575812,134.769154 221.231047,138.20855 224.106498,138.20855 Z" id="Shape" stroke="#000000" stroke-width="2" fill="#B3B3B3" fill-rule="nonzero"></path>
                <path d="M276.054152,131.80565 L264.915162,137.213505 C263.832704,137.791948 262.641199,138.138234 261.416968,138.230181 L224.106498,138.230181 C221.231047,138.230181 223.564982,134.790785 227.897112,132.708761 L234.936823,129.312628 L279.779783,129.312628 C278.677141,130.334411 277.419761,131.175792 276.054152,131.80565 L276.054152,131.80565 Z" id="Shape" fill="#B3B3B3" fill-rule="nonzero" opacity="0.2" style="mix-blend-mode: multiply;"></path>
                <path d="M246.422383,91.0736858 C245.907942,99.418006 254.545126,106.756465 265.743682,107.421631 C276.942238,108.086798 283.700361,104.041722 284.209386,95.691994 C284.718412,87.3422659 280.364621,84.9952568 269.176895,84.3354985 C257.98917,83.6757402 246.931408,82.7401813 246.422383,91.0736858 Z" id="Shape" stroke="#000000" stroke-width="2" fill="#B3B3B3" fill-rule="nonzero"></path>
                <path d="M247.575812,96.8763142 C246.893876,94.253772 246.66135,91.5348781 246.888087,88.8348338 C249.15704,82.8861934 259.115523,83.6973716 269.18231,84.3084592 C271.148014,84.427432 272.897112,84.6004834 274.451264,84.8492447 C275.206009,86.3212201 275.811895,87.8646868 276.259928,89.4567372 C277.592058,94.1832024 278.967509,99.8884894 278.252708,105.361239 C275.252708,106.707795 270.433213,107.70284 265.749097,107.416224 C257.268953,106.902477 250.256318,102.576193 247.575812,96.8763142 Z" id="Shape" fill="#B3B3B3" fill-rule="nonzero" opacity="0.2" style="mix-blend-mode: multiply;"></path>
                <path d="M276.265343,0.540785498 C259.976534,-2.49302115 251.458484,8.43625378 247.754513,14.9743505 L247.82491,15.0176133 C241.088448,17.305136 234.703971,29.2024169 234.703971,29.2024169 C234.703971,29.2024169 234.162455,34.6102719 239.577617,31.3655589 C241.364621,22.4534139 246.823105,17.9540785 250.505415,16.6399698 C278.604693,32.6742598 299.074007,3.92610272 299.572202,1.82244713 C297.958484,2.94187311 292.554152,3.55296073 276.265343,0.540785498 Z" id="Shape" stroke="#000000" stroke-width="2" fill="#39B54A" fill-rule="nonzero"></path>
                <path d="M252.287004,14.4497885 C252.951232,12.7142097 253.975439,11.1385073 255.292419,9.82607251 C256.627325,8.49449711 258.199367,7.42342952 259.927798,6.6678852 C261.661755,5.90368317 263.50584,5.41818795 265.391697,5.22939577 C267.251351,5.05072724 269.12307,5.03444192 270.98556,5.18072508 C272.83213,5.32673716 274.646209,5.55386707 276.449458,5.77558912 C278.252708,5.99731118 280.039711,6.20280967 281.826715,6.31637462 C285.389892,6.49483384 289.023466,6.17577039 292.364621,4.62912387 C291.609549,5.1391388 290.81034,5.58073464 289.976534,5.94864048 C289.122907,6.31586198 288.243251,6.61953018 287.344765,6.85716012 C286.4402,7.07809359 285.523473,7.24602361 284.599278,7.36009063 C283.673285,7.47365559 282.747292,7.51151057 281.815884,7.53854985 C278.090253,7.60885196 274.456679,6.99776435 270.877256,6.77063444 C267.297834,6.54350453 263.718412,6.60299094 260.415162,7.83598187 C257.02883,9.04867572 254.160366,11.3827176 252.287004,14.4497885 L252.287004,14.4497885 Z" id="Shape" fill="#000000" fill-rule="nonzero"></path>
                <path d="M262.998195,6.52728097 C263.996454,6.30213088 265.032427,6.30213088 266.030686,6.52728097 C268.065093,6.9715418 269.876162,8.12109111 271.142599,9.77199396 C271.772997,10.5762896 272.215207,11.5112528 272.436823,12.5083686 C271.851583,11.7383102 271.207025,11.0150646 270.509025,10.3452266 C269.140701,9.05099843 267.538167,8.02874258 265.787004,7.33305136 C264.880088,6.99157357 263.947586,6.72214606 262.998195,6.52728097 L262.998195,6.52728097 Z" id="Shape" fill="#000000" fill-rule="nonzero"></path>
                <path d="M250.505415,16.6561934 C275.545126,30.9491541 294.530686,9.66383686 298.700361,3.37990937 C297.501908,4.1465788 296.400134,5.05440653 295.418773,6.08383686 C287.837545,13.1410876 279.904332,18.1217221 269.074007,17.0401511 C265.088448,16.6399698 256.267148,15.5475831 252.373646,14.6120242 C251.01556,14.2823282 249.634314,14.0563481 248.241877,13.9360423 C246.915162,15.6178852 248.561372,13.498006 247.743682,14.9473112 L247.814079,14.990574 C241.088448,17.305136 234.703971,29.2024169 234.703971,29.2024169 C234.703971,29.2024169 234.162455,34.6102719 239.577617,31.3655589 C241.359206,22.4696375 246.81769,17.9648943 250.505415,16.6561934 Z" id="Shape" fill="#009245" fill-rule="nonzero" opacity="0.3" style="mix-blend-mode: multiply;"></path>
                <path d="M269.090253,5.59172205 C269.572202,5.37540785 269.98917,5.19154079 270.384477,4.97522659 C270.758203,4.77088343 271.119814,4.54518125 271.467509,4.29924471 C271.823667,4.05216387 272.16538,3.78493988 272.490975,3.49888218 C272.83213,3.20685801 273.151625,2.88238671 273.525271,2.50924471 C273.559306,3.03960618 273.43087,3.5677491 273.15704,4.02344411 C272.613332,4.95879777 271.68017,5.60319805 270.611913,5.78099698 C270.097117,5.8698141 269.567504,5.80393706 269.090253,5.59172205 L269.090253,5.59172205 Z" id="Shape" fill="#000000" fill-rule="nonzero"></path>
                <path d="M177.427798,61.8983082 C177.427798,61.8983082 193.131769,89.9650755 211.635379,69.8640785" id="Shape" stroke="#000000" stroke-width="6" stroke-linecap="round"></path>
                <path d="M236.599278,27.8666767 C230.853791,26.4822659 225.460289,29.4890332 224.50722,30.2893958 C217.375451,36.2380363 216.287004,43.6738369 207.086643,62.1957402 C200.98917,74.4823867 199.315884,75.5855891 195.714801,85.9903021 C193.743682,91.6901813 190.841155,100.396828 192.465704,111.407221 C193.093863,115.663202 195.173285,129.793927 207.444043,138.792598 C216.351986,145.325287 225.82852,145.611903 230.101083,145.7471 C232.240072,145.811994 249.687726,145.7471 260.918773,135.364018 C285.606498,112.483384 270.98556,84.3625378 250.949458,45.4259819 C247.987365,39.6828399 244.640794,29.8080967 236.599278,27.8666767 Z" id="Shape" stroke="#000000" stroke-width="2" fill="#8BC440" fill-rule="nonzero"></path>
                <path d="M280.185921,7.34386707 C280.755429,7.25376376 281.338225,7.30010214 281.886282,7.47906344 C282.993128,7.82659492 283.942112,8.55220985 284.566787,9.52864048 C284.884264,10.0158636 285.079316,10.5724023 285.135379,11.150997 C284.685921,10.7832628 284.306859,10.4263444 283.916968,10.069426 C283.527076,9.71250755 283.142599,9.42048338 282.747292,9.1176435 C282.351986,8.81480363 281.945848,8.52277946 281.523466,8.23616314 C281.101083,7.94954683 280.65704,7.67915408 280.185921,7.34386707 Z" id="Shape" fill="#000000" fill-rule="nonzero"></path>
                <path d="M252.032491,107.616314 C251.331228,107.617111 250.708605,107.168444 250.488324,106.503575 C250.268042,105.838706 250.499828,105.107724 251.063177,104.690665 C264.444043,94.79429 255,74.9961329 254.902527,74.7960423 C254.540558,73.9964955 254.880757,73.0544379 255.670418,72.6696504 C256.460078,72.2848629 257.412986,72.5968126 257.8213,73.3737764 C257.929603,73.5954985 268.521661,95.8109668 252.99639,107.291843 C252.718155,107.500254 252.380287,107.613988 252.032491,107.616314 L252.032491,107.616314 Z" id="Shape" fill="#000000" fill-rule="nonzero"></path>
                <path d="M252.563177,110.076888 C252.451365,110.451497 252.283396,110.807038 252.064982,111.13142 C251.523466,111.672205 250.651625,111.445076 250.077617,110.942145 C249.043321,110.039033 244.759928,107.086344 245.268953,105.745196 C245.702166,104.604139 251.155235,104.468943 252.308664,105.247674 C253.516245,106.080483 253.386282,108.443716 252.563177,110.076888 Z" id="Shape" fill="#000000" fill-rule="nonzero"></path>
                <path d="M251.805054,107.389184 C250.876758,109.604724 251.249649,112.151108 252.774368,114.008399" id="Shape" stroke="#000000" stroke-width="5" stroke-linecap="round"></path>
                <path d="M250.456679,108.768187 C248.412633,110.104662 247.594966,112.694596 248.501805,114.960181" id="Shape" stroke="#000000" stroke-width="5" stroke-linecap="round"></path>
                <path d="M249.476534,108.1571 C247.044908,108.396963 245.119562,110.315187 244.873646,112.742961" id="Shape" stroke="#000000" stroke-width="5" stroke-linecap="round"></path>
                <path d="M248.826715,106.680755 C247.68698,106.316349 246.456923,106.350683 245.33935,106.778097 C244.213012,107.220177 243.262217,108.017767 242.631769,109.049396" id="Shape" stroke="#000000" stroke-width="5" stroke-linecap="round"></path>
                <path d="M250.965704,133.36852 C240.064982,135.347795 228.102888,134.752931 218.924188,128.555529 C206.425993,120.113867 202.17509,103.338701 203.453069,88.3264955 C204.146209,80.214713 206.16065,72.2435347 208.326715,64.3967372 C209.138989,61.4602719 214.711191,48.0974622 215.474729,44.0902417 C214.272563,46.7400906 208.722022,58.9023565 207.081227,62.2065559 C200.983755,74.4932024 199.310469,75.5964048 195.709386,86.0011178 C193.738267,91.700997 190.83574,100.407644 192.460289,111.418036 C193.088448,115.674018 195.16787,129.804743 207.438628,138.803414 C216.34657,145.336103 225.823105,145.622719 230.095668,145.757915 C232.234657,145.82281 249.68231,145.757915 260.913357,135.374834 C261.774368,134.574471 262.586643,133.752477 263.350181,132.957523 C259.613718,131.675861 255.054152,132.627644 250.965704,133.36852 Z" id="Shape" fill="#D6B343" fill-rule="nonzero" opacity="0.3" style="mix-blend-mode: overlay;"></path>
                <path d="M231.99639,29.2024169 C232.644146,29.5398773 233.313466,29.8343421 234,30.0838973 C234.617318,30.3090059 235.253373,30.4791156 235.900722,30.5922356 C236.558279,30.6981146 237.222243,30.7595433 237.888087,30.7761027 C238.234657,30.8085498 238.586643,30.7761027 238.971119,30.7761027 C239.357602,30.7631876 239.744507,30.7722153 240.129964,30.803142 C239.562219,31.3773288 238.855095,31.7946959 238.077617,32.0145015 C237.284303,32.2525758 236.446636,32.3043966 235.629964,32.1659215 C234.805385,32.0228021 234.029391,31.6771421 233.371841,31.1600604 C232.71358,30.6730828 232.231005,29.9862478 231.99639,29.2024169 Z" id="Shape" fill="#000000" fill-rule="nonzero"></path>
                <path d="M237.184116,31.4250453 C237.184116,31.4250453 240.481949,10.2749245 243.638989,6.39208459 C246.796029,2.50924471 235.467509,4.41821752 236.67509,9.79903323 C237.254513,11.4213897 235.99278,27.1041692 233.902527,30.4191843 C234.162455,30.8247734 236.101083,31.9928701 237.184116,31.4250453 Z" id="Shape" stroke="#000000" stroke-width="2" fill="#D6B343" fill-rule="nonzero"></path>
                <path d="M236.718412,9.76117825 C236.718412,9.76117825 237.259928,11.3835347 238.884477,11.3835347" id="Shape" stroke="#000000" stroke-width="2" stroke-linecap="round"></path>
                <path d="M240.395307,4.94818731 C238.922801,5.20990006 237.619517,6.05676908 236.783394,7.29519637 C236.428246,7.75808287 236.258369,8.33642576 236.306859,8.91755287 C236.458484,9.88555891 237.552347,10.4641994 238.537906,10.4317523 C239.68752,10.3451206 240.757078,9.81106307 241.516245,8.94459215 C242.264272,8.0884968 242.877766,7.1239133 243.33574,6.08383686 C243.552347,5.6458006 243.736462,5.05634441 243.389892,4.71564955 C243.16455,4.54207866 242.883132,4.4573823 242.599278,4.47770393 C241.489685,4.44421402 240.380199,4.54774739 239.296029,4.78595166" id="Shape" fill="#FFFFFF" fill-rule="nonzero" opacity="0.7" style="mix-blend-mode: overlay;"></path>
                <path d="M170.31769,63.0123263 C169.445848,62.6175529 168.557762,61.9577946 168.411552,61.0384592 C168.372952,60.5344521 168.454609,60.0284889 168.649819,59.5621148 L169.689531,56.4147432 C169.783005,55.9700608 170.049966,55.580863 170.431408,55.3331722 C171.194946,54.9708459 172.055957,55.787432 172.916968,55.8739577 C173.523466,55.9172205 170.750903,53.5323565 171.368231,53.4241994 C172.483755,53.2187009 176.978339,55.9334441 177.595668,56.9014502 C178.212996,57.8694562 177.888087,58.9402115 178.083032,60.1461631 C178.451264,62.4823565 177.15704,63.3908761 175.592058,63.6396375 C173.810809,63.9662217 171.972309,63.7475583 170.31769,63.0123263 L170.31769,63.0123263 Z" id="Shape" stroke="#000000" fill="#000000" fill-rule="nonzero"></path>
                <ellipse id="Oval" fill="#8BC440" fill-rule="nonzero" style="mix-blend-mode: multiply;" cx="244.521661" cy="126.18148" rx="1.7599278" ry="3.10951662"></ellipse>
                <path d="M261.162455,166.664683 C261.057993,166.665906 260.958668,166.710129 260.887937,166.786907 C260.817206,166.863685 260.781339,166.966211 260.788809,167.070272 C260.929603,168.83864 262.023466,168.83864 263.355596,168.83864 C264.687726,168.83864 265.781588,168.83864 265.922383,167.070272 C265.929852,166.966211 265.893986,166.863685 265.823254,166.786907 C265.752523,166.710129 265.653198,166.665906 265.548736,166.664683 L261.162455,166.664683 Z" id="Shape" stroke="#000000" stroke-width="2" fill="#333333" fill-rule="nonzero"></path>
                <path d="M274.619134,158.077009 C274.514672,158.078232 274.415347,158.122455 274.344616,158.199233 C274.273884,158.276011 274.238018,158.378537 274.245487,158.482598 C274.386282,160.250967 275.480144,160.250967 276.812274,160.250967 C278.144404,160.250967 279.238267,160.250967 279.379061,158.482598 C279.386531,158.378537 279.350664,158.276011 279.279933,158.199233 C279.209202,158.122455 279.109877,158.078232 279.005415,158.077009 L274.619134,158.077009 Z" id="Shape" stroke="#000000" stroke-width="2" fill="#333333" fill-rule="nonzero"></path>
                <path d="M245.940433,157.806616 C245.835972,157.80784 245.736647,157.852062 245.665915,157.92884 C245.595184,158.005619 245.559318,158.108145 245.566787,158.212205 C245.707581,159.980574 246.801444,159.980574 248.133574,159.980574 C249.465704,159.980574 250.559567,159.980574 250.700361,158.212205 C250.70783,158.108145 250.671964,158.005619 250.601233,157.92884 C250.530501,157.852062 250.431176,157.80784 250.326715,157.806616 L245.940433,157.806616 Z" id="Shape" stroke="#000000" stroke-width="2" fill="#333333" fill-rule="nonzero"></path>
                <path d="M236.539711,165.577704 C236.43525,165.578927 236.335925,165.62315 236.265193,165.699928 C236.194462,165.776706 236.158596,165.879232 236.166065,165.983293 C236.306859,167.751662 237.400722,167.751662 238.732852,167.751662 C240.064982,167.751662 241.158845,167.751662 241.299639,165.983293 C241.307108,165.879232 241.271242,165.776706 241.200511,165.699928 C241.129779,165.62315 241.030454,165.578927 240.925993,165.577704 L236.539711,165.577704 Z" id="Shape" stroke="#000000" stroke-width="2" fill="#333333" fill-rule="nonzero"></path>
                <path d="M163.700361,63.1745619 L172.797834,65.9758308 C173.630093,66.2333605 174.519897,65.8032387 174.833935,64.9916012 L181.158845,48.6706949 C181.318728,48.2409836 181.292954,47.7642922 181.087667,47.3542722 C180.88238,46.9442522 180.515976,46.6376457 180.075812,46.5075529 L168.595668,42.9762236 C168.155058,42.8396516 167.677382,42.8927022 167.277584,43.1226097 C166.877785,43.3525173 166.592063,43.7384652 166.48917,44.1875831 L162.546931,61.2115106 C162.348221,62.0679491 162.854775,62.9300655 163.700361,63.1745619 L163.700361,63.1745619 Z" id="Shape" stroke="#000000" stroke-width="2" fill="#FFFFFF" fill-rule="nonzero"></path>
                <path d="M180.037906,51.5855287 L165.812274,47.210574" id="Shape" stroke="#000000" stroke-width="2" fill="#FFFFFF" fill-rule="nonzero"></path>
                <path d="M169.261733,39.7855891 L175.288809,41.6404834 L175.543321,43.6738369 L181.440433,45.4854683 L182.198556,47.5999396 C182.355596,48.0379758 181.981949,48.5841692 181.602888,48.4651964 L175.922383,46.7184592 L172.570397,45.6909668 L166.613718,43.8631118 C166.283394,43.7603625 166.229242,43.2249849 166.516245,42.9005136 L169.261733,39.7855891 Z" id="Shape" stroke="#000000" stroke-width="2" fill="#000000" fill-rule="nonzero" stroke-linejoin="round"></path>
                <path d="M172.380866,38.3416918 C172.048854,37.4813954 171.942602,36.5506136 172.072202,35.6377644 C172.205868,34.716182 172.485538,33.8217137 172.900722,32.9879154 C173.702166,31.3006647 174.947653,29.9270695 176.057762,28.5588822 C176.62543,27.9013926 177.156899,27.2135808 177.649819,26.4984894 C177.891039,26.1501137 178.11338,25.7890718 178.315884,25.4169184 C178.506754,25.0389579 178.676685,24.65081 178.82491,24.2542296 C179.366426,22.6697281 179.534296,20.8364653 178.629964,19.2519637 C178.94536,19.5841937 179.206654,19.9637457 179.404332,20.3767976 C179.595068,20.802909 179.729761,21.2518871 179.805054,21.7125378 C179.936711,22.6445328 179.879626,23.5934405 179.637184,24.5029909 C179.391435,25.4001204 179.011721,26.2551473 178.51083,27.0392749 C178.01569,27.8076993 177.473125,28.544593 176.886282,29.2456798 C175.697877,30.5388065 174.611593,31.9219493 173.637184,33.3826888 C172.664437,34.8442701 172.221162,36.5939882 172.380866,38.3416918 L172.380866,38.3416918 Z" id="Shape" fill="#000000" fill-rule="nonzero"></path>
                <path d="M173.50722,27.9045317 C173.204956,27.3990398 173.031993,26.8269907 173.00361,26.2389124 C172.985688,25.6465043 173.062464,25.0550314 173.231047,24.4867674 C173.603677,23.3748154 174.172169,22.33826 174.909747,21.4259215 C175.62528,20.5458817 176.278489,19.617083 176.864621,18.646284 C177.141233,18.1592975 177.35589,17.6397315 177.50361,17.0996375 C177.659183,16.5534513 177.714226,15.983607 177.666065,15.4177946 C177.819705,15.9832694 177.85291,16.5746327 177.763538,17.153716 C177.655762,17.7351415 177.473772,18.3003652 177.222022,18.8355589 C176.698631,19.8737729 176.065029,20.8528082 175.33213,21.7558006 C174.621679,22.6265073 174.03827,23.5932948 173.599278,24.6273716 C173.396518,25.1463451 173.275939,25.693691 173.241877,26.2497281 C173.208998,26.8140245 173.299543,27.3787038 173.50722,27.9045317 L173.50722,27.9045317 Z" id="Shape" fill="#000000" fill-rule="nonzero"></path>
                <path d="M177.395307,32.3173414 C177.910337,32.7965965 178.155498,33.4987122 178.050542,34.1938671 C177.958037,34.8844354 177.679121,35.5368532 177.243682,36.0812085 C176.420578,37.1627795 175.380866,37.9090634 174.714801,39.0501208 C174.870222,38.3979264 175.172049,37.7895409 175.597473,37.2709366 C175.99278,36.7301511 176.442238,36.2650755 176.810469,35.7567372 C177.198782,35.2807845 177.481212,34.7277476 177.638989,34.1343807 C177.796887,33.5200665 177.709508,32.8685133 177.395307,32.3173414 L177.395307,32.3173414 Z" id="Shape" fill="#000000" fill-rule="nonzero"></path>
                <path d="M163.3213,57.166435 C164.035361,57.4055591 164.782975,57.5296891 165.536101,57.5341692 C165.836681,57.5713469 166.139117,57.4811308 166.370036,57.2854079" id="Shape" stroke="#000000" stroke-width="5" stroke-linecap="round"></path>
                <path d="M162.947653,54.2570091 C163.999162,55.2542469 165.331641,55.9054308 166.765343,56.122719" id="Shape" stroke="#000000" stroke-width="5" stroke-linecap="round"></path>
                <path d="M164.009025,51.1961631 C164.514479,52.7244434 165.546942,54.0238208 166.922383,54.8626888" id="Shape" stroke="#000000" stroke-width="5" stroke-linecap="round"></path>
                <path d="M165.666065,48.8167069 C165.934891,49.5800751 166.277671,50.315423 166.689531,51.0122961 C167.132975,51.7445463 167.76015,52.3485066 168.509025,52.7644411" id="Shape" stroke="#000000" stroke-width="5" stroke-linecap="round"></path>
                <path d="M178.927798,57.3232628 C179.138989,57.7234441 178.386282,58.0316918 178.467509,58.475136 C178.592536,58.9488823 178.451138,59.4531064 178.097916,59.7931005 C177.744694,60.1330947 177.234927,60.2556508 176.765463,60.1134433 C176.295999,59.9712359 175.940307,59.5865201 175.83574,59.107855 C175.666544,58.4267964 175.247089,57.8341757 174.66065,57.4476435 C174.036083,57.0478751 173.288765,56.8847996 172.554152,56.9879758 C171.806474,57.0895228 171.11793,56.5665481 171.016246,55.8198791 C170.914561,55.0732102 171.438243,54.3855954 172.185921,54.2840483 C173.567908,54.1591331 174.954682,54.4652099 176.155235,55.1601208 C178.424188,56.3660725 178.424188,56.3660725 178.927798,57.3232628 Z" id="Shape" stroke="#000000" fill="#000000" fill-rule="nonzero"></path>
                <path d="M243.823105,124.526677 C240.958484,125.689366 221.220217,129.393746 216.595668,130.269819 C216.498421,130.260444 216.400496,130.260444 216.303249,130.269819 C216.117424,130.298916 215.93567,130.349739 215.761733,130.421239 L215.637184,130.421239 L215.637184,130.421239 C214.727437,130.832236 214.012635,131.784018 214.51083,132.806103 C215.534296,134.466314 215.983755,160.018429 215.864621,163.263142 C209.409747,161.943625 203.176895,169.287492 207.465704,170.525891 C211.754513,171.76429 216.703971,169.785015 219.433213,169.346979 C222.162455,168.908943 221.138989,167.243323 220.65704,165.604743 C219.877256,162.944079 218.523466,141.339698 218.041516,133.260363 C218.082509,132.865298 218.358493,132.534137 218.740072,132.422145 C224.577617,130.653776 244.072202,128.961118 245.225632,128.279728 C246.617329,127.500997 247.072202,123.20716 243.823105,124.526677 Z" id="Shape" fill="#000000" fill-rule="nonzero"></path>
                <path d="M154.018051,150.695287 C154.083032,150.581722 154.15343,150.468157 154.223827,150.36 C155.306859,148.699789 156.931408,147.391088 157.841155,145.628127 C159.465704,142.496979 158.66426,138.651994 157.375451,135.353202 C156.086643,132.054411 154.337545,128.820514 154.196751,125.283776 C154.034296,121.157583 156.092058,117.301782 158.090253,113.683927 L142.137184,113.683927 C144.135379,117.301782 146.187726,121.152175 146.030686,125.283776 C145.895307,128.820514 144.146209,132.054411 142.851986,135.353202 C141.557762,138.651994 140.740072,142.491571 142.386282,145.628127 C143.312274,147.391088 144.909747,148.699789 146.00361,150.36 C146.074007,150.468157 146.144404,150.581722 146.209386,150.695287 L146.209386,156.643927 L146.209386,156.643927 C146.209386,164.890906 142.359206,166.69713 142.359206,168.930574 C142.359206,169.779607 145.830325,170.466405 150.113718,170.466405 C154.397112,170.466405 157.868231,169.779607 157.868231,168.930574 C157.868231,166.702538 154.023466,164.890906 154.018051,156.649335 L154.018051,150.695287 Z" id="Shape" stroke="#000000" stroke-width="2" fill="#B3B3B3" fill-rule="nonzero"></path>
                <path d="M158.090253,113.689335 L142.137184,113.689335 C144.119134,117.285559 146.16065,121.108912 146.030686,125.202659 C147.315884,125.227895 148.619134,125.240514 149.940433,125.240514 C151.384477,125.240514 152.803249,125.22429 154.196751,125.191843 C154.072202,121.103505 156.108303,117.285559 158.090253,113.689335 Z" id="Shape" fill="#000000" fill-rule="nonzero" opacity="0.2" style="mix-blend-mode: multiply;"></path>
                <path d="M181.754513,109.41713 C174.601083,107.470302 163.018051,106.204864 149.940433,106.204864 C136.862816,106.204864 125.279783,107.470302 118.126354,109.41713 L110.588448,109.41713 L110.588448,114.10574 L110.588448,114.10574 C110.848375,118.372538 128.355596,121.817341 149.924188,121.817341 C171.49278,121.817341 189.005415,118.372538 189.259928,114.10574 L189.259928,114.10574 L189.259928,109.41713 L181.754513,109.41713 Z" id="Shape" stroke="#000000" stroke-width="2" fill="#E6E6E6" fill-rule="nonzero" stroke-linejoin="round"></path>
                <ellipse id="Oval" stroke="#000000" stroke-width="2" fill="#B3B3B3" fill-rule="nonzero" cx="149.940433" cy="109.633444" rx="39.3519856" ry="7.80353474"></ellipse>
                <rect id="Rectangle-path" stroke="#000000" stroke-width="2" fill="#FFFFFF" fill-rule="nonzero" x="143.972924" y="68.9934139" width="13.6028881" height="15.9423565"></rect>
                <ellipse id="Oval" stroke="#000000" stroke-width="2" cx="150.595668" cy="109.482024" rx="7.6299639" ry="1.45471299"></ellipse>
                <polyline id="Shape" stroke="#000000" points="150.595668 110.936737 150.595668 109.482024 158.225632 109.482024"></polyline>
                <path d="M150.595668,110.936737 L150.595668,86.1363142" id="Shape" stroke="#000000" stroke-width="2"></path>
                <ellipse id="Oval" stroke="#000000" stroke-width="2" transform="translate(150.596526, 84.464129) rotate(-87.410000) translate(-150.596526, -84.464129) " cx="150.596526" cy="84.4641287" rx="1.67870036" ry="1.67643505"></ellipse>
                <path d="M154.33213,71.7081571 C154.261733,71.7568278 153.99639,71.8109063 153.01083,71.6270393 C152.331696,71.4963259 151.650057,71.841135 151.353791,72.4652568 C151.178561,72.5483119 151.026173,72.6726565 150.909747,72.8275831 C150.951552,72.5438277 151.037422,72.2683208 151.16426,72.010997 C151.218412,71.9461027 151.207581,71.9028399 151.16426,71.8812085 C151.120939,71.859577 150.980144,71.8379456 150.871841,71.8812085 C150.740594,71.9224616 150.659776,72.0539032 150.68231,72.1894562 L150.68231,72.1894562 C150.688967,72.5181634 150.658082,72.8465572 150.590253,73.1682779 C150.376953,73.1572635 150.165889,73.2161299 149.98917,73.3359215 C149.704748,73.6098547 149.492663,73.9498485 149.371841,74.3255589 C149.274368,74.5526888 149.149819,74.8338973 148.976534,75.18 C148.857401,75.4233535 148.765343,75.590997 148.689531,75.7207855 C148.539404,75.983602 148.416043,76.2607891 148.3213,76.5481873 C148.133627,77.0181415 148.068416,77.5279634 148.131769,78.0299396 C148.18529,78.6691009 148.503209,79.2570445 149.009025,79.6522961 C149.396655,79.9211174 149.858422,80.0628624 150.330325,80.0578852 L150.368231,80.0578852 C151.007311,80.0650184 151.62916,79.8510088 152.128159,79.4522054 C153.563177,78.1218731 152.729242,76.5049245 151.586643,74.2606647 L151.586643,74.2336254 L151.505415,74.0659819 C151.394889,73.7703599 151.208073,73.5091701 150.963899,73.3088822 C151.034473,73.0128842 151.232787,72.7633467 151.505415,72.6274924 C152.026366,72.9491536 152.672617,72.9936624 153.232852,72.7464653 C153.703224,72.5357055 154.098044,72.1866954 154.364621,71.7460121 L154.364621,71.6648943 L154.33213,71.7081571 Z" id="Shape" fill="#8BC440" fill-rule="nonzero"></path>
            </g>
        </g>
    </g>
</svg>