<?xml version="1.0" encoding="UTF-8"?>
<svg width="450px" height="199px" viewBox="0 0 450 199" version="1.1" xmlns="http://www.w3.org/2000/svg" xmlns:xlink="http://www.w3.org/1999/xlink">
    <!-- Generator: Sketch 44.1 (41455) - http://www.bohemiancoding.com/sketch -->
    <title>PearUp Logo</title>
    <desc>Created with Sketch.</desc>
    <defs></defs>
    <g id="Page-1" stroke="none" stroke-width="1" fill="none" fill-rule="evenodd">
        <g id="Desktop-HD" transform="translate(-495.000000, -89.000000)">
            <g id="PearUp-Logo" transform="translate(495.000000, 89.000000)">
                <path d="M122.993776,101.496219 C116.147303,101.496219 110.757261,97.2923437 110.757261,91.9255625 C110.757261,86.5587812 116.134855,82.3549062 122.993776,82.3549062 C129.852697,82.3549062 135.23029,86.5587812 135.23029,91.9255625 C135.23029,97.2923437 129.852697,101.496219 122.993776,101.496219 Z" id="Shape" fill="#FFFFFF" fill-rule="nonzero"></path>
                <path d="M122.993776,85.7752187 C127.860996,85.7752187 131.807054,88.530125 131.807054,91.9255625 C131.807054,95.321 127.860996,98.0759062 122.993776,98.0759062 C118.126556,98.0759062 114.180498,95.321 114.180498,91.9255625 C114.180498,88.530125 118.126556,85.7752187 122.993776,85.7752187 L122.993776,85.7752187 Z M122.993776,78.9345937 C114.211618,78.9345937 107.334025,84.6434062 107.334025,91.9255625 C107.334025,99.2077187 114.211618,104.916531 122.993776,104.916531 C131.775934,104.916531 138.653527,99.2077187 138.653527,91.9255625 C138.653527,84.6434062 131.775934,78.9345937 122.993776,78.9345937 L122.993776,78.9345937 Z" id="Shape" fill="#FFFFFF" fill-rule="nonzero"></path>
                <path d="M40.2136929,116.421219 C33.3672199,116.421219 27.9771784,112.217344 27.9771784,106.850562 C27.9771784,101.483781 33.3547718,97.2799062 40.2136929,97.2799062 C47.0726141,97.2799062 52.4502075,101.483781 52.4502075,106.850562 C52.4502075,112.217344 47.0726141,116.421219 40.2136929,116.421219 Z" id="Shape" fill="#FFFFFF" fill-rule="nonzero"></path>
                <path d="M40.2136929,100.700219 C45.0809129,100.700219 49.026971,103.455125 49.026971,106.850562 C49.026971,110.246 45.0809129,113.000906 40.2136929,113.000906 C35.346473,113.000906 31.4004149,110.246 31.4004149,106.850562 C31.4004149,103.455125 35.346473,100.700219 40.2136929,100.700219 L40.2136929,100.700219 Z M40.2136929,93.8595937 C31.4315353,93.8595937 24.5539419,99.5684062 24.5539419,106.850562 C24.5539419,114.132719 31.4315353,119.841531 40.2136929,119.841531 C48.9958506,119.841531 55.873444,114.132719 55.873444,106.850562 C55.873444,99.5684062 48.9958506,93.8595937 40.2136929,93.8595937 Z" id="Shape" fill="#FFFFFF" fill-rule="nonzero"></path>
                <path d="M241.238589,112.267094 C234.392116,112.267094 229.002075,108.063219 229.002075,102.696437 C229.002075,97.3296562 234.379668,93.1257812 241.238589,93.1257812 C248.09751,93.1257812 253.475104,97.3296562 253.475104,102.696437 C253.475104,108.063219 248.103734,112.267094 241.238589,112.267094 Z" id="Shape" fill="#FFFFFF" fill-rule="nonzero"></path>
                <path d="M241.238589,96.5460937 C246.105809,96.5460937 250.051867,99.301 250.051867,102.696437 C250.051867,106.091875 246.105809,108.828125 241.238589,108.828125 C236.371369,108.828125 232.425311,106.073219 232.425311,102.677781 C232.425311,99.2823437 236.371369,96.5274375 241.238589,96.5274375 L241.238589,96.5460937 Z M241.238589,89.6868125 C232.456432,89.6868125 225.578838,95.395625 225.578838,102.677781 C225.578838,109.959937 232.462656,115.66875 241.238589,115.66875 C250.014523,115.66875 256.89834,109.959937 256.89834,102.677781 C256.89834,95.395625 250.020747,89.6868125 241.238589,89.6868125 Z" id="Shape" fill="#FFFFFF" fill-rule="nonzero"></path>
                <path d="M409.910788,112.267094 C403.064315,112.267094 397.674274,108.063219 397.674274,102.696437 C397.674274,97.3296562 403.051867,93.1257812 409.910788,93.1257812 C416.76971,93.1257812 422.147303,97.3296562 422.147303,102.696437 C422.147303,108.063219 416.775934,112.267094 409.910788,112.267094 Z" id="Shape" fill="#FFFFFF" fill-rule="nonzero"></path>
                <path d="M409.910788,96.5460937 C414.778008,96.5460937 418.724066,99.301 418.724066,102.696437 C418.724066,106.091875 414.778008,108.828125 409.910788,108.828125 C405.043568,108.828125 401.09751,106.073219 401.09751,102.677781 C401.09751,99.2823437 405.043568,96.5274375 409.910788,96.5274375 L409.910788,96.5460937 Z M409.910788,89.6868125 C401.128631,89.6868125 394.251037,95.395625 394.251037,102.677781 C394.251037,109.959937 401.134855,115.66875 409.910788,115.66875 C418.686722,115.66875 425.570539,109.959937 425.570539,102.677781 C425.570539,95.395625 418.692946,89.6868125 409.910788,89.6868125 Z" id="Shape" fill="#FFFFFF" fill-rule="nonzero"></path>
                <path d="M189.634855,195.3185 C186.286307,195.3185 183.149378,194.410562 180.628631,193.682969 C179.713693,193.415562 178.848548,193.166812 178.232365,193.061094 C176.23444,192.663094 174.827801,191.748937 174.049793,190.349719 C172.89834,188.272656 173.695021,186.1645 174.174274,184.908312 C174.255187,184.696875 174.3361,184.485437 174.410788,184.286437 C174.65532,183.446956 174.848621,182.593418 174.989627,181.730531 C172.761229,182.017144 170.519803,182.19149 168.273859,182.252906 C168.394433,182.939375 168.554448,183.618341 168.753112,184.286437 C168.821577,184.497875 168.908714,184.715531 168.983402,184.908312 C169.462656,186.152062 170.259336,188.272656 169.107884,190.349719 C168.3361,191.748937 166.929461,192.656875 164.925311,193.061094 C164.302905,193.185469 163.443983,193.434219 162.529046,193.682969 C160.039419,194.410562 156.871369,195.3185 153.522822,195.3185 C152.243723,195.324489 150.968694,195.174123 149.726141,194.87075 C146.956552,194.315394 145.097254,191.70316 145.481328,188.906969 C145.86722,185.797594 148.860996,182.271562 152.950207,180.486781 C147.685989,179.119928 142.727652,176.771582 138.3361,173.565312 C128.221992,166.146344 121.973029,154.790906 119.757261,139.816156 C118.785207,133.177776 119.02773,126.418203 120.473029,119.866406 C121.281635,114.878702 122.569755,109.980532 124.319502,105.239906 C126.276489,99.3764108 128.809587,93.7208682 131.881743,88.356 C133.344398,85.6508437 135.16805,82.2865 137.558091,77.4731875 C140.962656,70.6325625 143.427386,64.998375 145.412863,60.4897812 C149.713693,50.7076875 152.309129,44.8060937 158.452282,39.6694062 C159.914938,38.4256562 164.508299,36.0065625 169.929461,35.7142812 C170.826483,30.6034936 171.319706,25.4301173 171.404564,20.2420312 C171.086817,19.6780311 170.875824,19.0603502 170.782158,18.4199375 C170.581462,16.8123481 171.007094,15.1892019 171.970954,13.8864687 C172.78992,12.678183 173.849292,11.6514695 175.082988,10.870375 C175.565678,9.99563004 176.406968,9.37542425 177.385892,9.17265625 C178.834388,8.86353185 180.311363,8.70720626 181.792531,8.70625 L182.564315,8.70625 C183.809309,8.70185562 185.008287,9.17613831 185.912863,10.0308437 C186.59751,10.7149062 188.022822,12.6427187 186.473029,15.7645312 C185.832056,17.1376864 185.03646,18.4333368 184.10166,19.626375 C183.746888,20.6089375 183.379668,21.7718437 183,23.108875 C183.524539,22.7712378 184.06681,22.4619297 184.624481,22.1822812 C184.742739,22.014375 184.854772,21.8713437 184.954357,21.7469687 L185.259336,21.3614062 C185.34061,21.2569287 185.427894,21.1572606 185.520747,21.0629062 C190.5,13.134 199.350622,4.0173125 213.90249,4.0173125 C216.199999,4.02782396 218.491721,4.24847398 220.748963,4.6765 C229.643154,6.3306875 236.414938,7.164 240.883817,7.164 C244.107884,7.164 244.979253,6.71625 245.010373,6.69759375 C245.569102,6.30080575 246.235727,6.08384945 246.921162,6.07571875 C247.970803,6.0759893 248.962083,6.55824927 249.609608,7.3836544 C250.257133,8.20905953 250.48905,9.28601759 250.238589,10.3044687 C250.107884,10.8455 249.821577,11.6352812 248.651452,13.3640937 L248.358921,13.7931875 L248.016598,14.27825 L247.661826,14.7570937 L247.288382,15.2545937 L246.883817,15.7769687 L246.448133,16.318 L245.993776,16.8714687 L245.427386,17.536875 L244.804979,18.2520312 L244.244813,18.8739062 L243.90249,19.2470312 L243.280083,19.8689062 L242.657676,20.4907812 L242.390041,20.7581875 L241.736515,21.3800625 L241.051867,22.0019375 C240.591286,22.4165208 240.112033,22.8518333 239.614108,23.307875 L238.854772,23.9608437 L238.070539,24.6138125 L237.759336,24.8687812 L237.255187,25.2667812 L236.925311,25.5279687 L236.421162,25.91975 L236.078838,26.1747187 L235.207469,26.7965937 L234.647303,27.3625 L234.360996,27.5615 L233.533195,28.1211875 L233.452282,28.1771562 L232.493776,28.7990312 L232.251037,28.9482812 L231.529046,29.3898125 L231.180498,29.5950312 L230.558091,29.9619375 L230.172199,30.1795937 L229.549793,30.521625 L229.139004,30.7392812 L228.516598,31.068875 L228.093361,31.2803125 L227.43361,31.5974687 L227.029046,31.79025 L226.30083,32.1198437 L225.927386,32.2815312 L225.012448,32.660875 L224.813278,32.7417187 C224.435685,32.8909687 224.053942,33.0360729 223.66805,33.1770312 L223.406639,33.2703125 L222.516598,33.58125 L222.105809,33.7118437 L221.334025,33.954375 L220.873444,34.0849687 L220.126556,34.2901875 L219.634855,34.4145625 L218.894191,34.5949062 L218.396266,34.7068437 L217.624481,34.8685312 L217.13278,34.9618125 L216.311203,35.1048437 L215.850622,35.1794687 L214.879668,35.3100625 L214.549793,35.3535937 C214.120332,35.4033437 213.684647,35.446875 213.242739,35.4841875 L213.037344,35.4841875 L211.917012,35.5525937 L211.443983,35.5525937 L210.56639,35.5525937 L210.03112,35.5525937 L209.190871,35.5525937 L208.630705,35.5525937 L207.802905,35.5090625 L207.236515,35.47175 L206.390041,35.397125 L205.823651,35.3411562 L204.93361,35.223 L204.39834,35.148375 L203.390041,34.9804687 L202.966805,34.9058437 C202.485477,34.8146354 202.002075,34.7130625 201.516598,34.601125 L201.348548,34.5638125 C200.912863,34.4580937 200.489627,34.3585937 200.060166,34.2404375 L199.562241,34.0974062 L198.591286,33.8175625 L198.012448,33.631 L197.103734,33.3325 L196.481328,33.1210625 L195.578838,32.78525 L194.956432,32.5365 L194.060166,32.163375 L193.979253,32.1260625 L193.437759,31.88975 L192.510373,31.4606562 L191.919087,31.1808125 L190.892116,30.6646562 L190.400415,30.4096875 C187.711618,31.8462187 184.562241,34.9245 182.620332,39.8995 C187.350622,43.8795 190.188797,49.8930312 192.522822,54.8245 C193.082988,56.0122812 193.612033,57.1316562 194.116183,58.1142187 L194.390041,58.6428125 C211.456432,91.8260625 224.950207,118.05675 219.746888,141.059906 C218.271784,151.7375 213.180498,160.959906 204.186722,169.330344 C199.568465,173.608844 193.717842,176.892344 186.759336,179.106219 C186.759336,179.211937 186.759336,179.311437 186.759336,179.417156 C192.516598,180.294 197.23444,184.871 197.732365,188.869656 C198.116439,191.665848 196.257141,194.278081 193.487552,194.833437 C192.228387,195.153952 190.934239,195.316888 189.634855,195.3185 L189.634855,195.3185 Z" id="Shape" fill="#FFFFFF" fill-rule="nonzero"></path>
                <path d="M213.883817,7.4625 C215.973202,7.47866417 218.056669,7.68683291 220.107884,8.084375 C230.290456,9.95 236.80083,10.6154062 240.871369,10.6154062 C244.30083,10.6154062 246.049793,10.1552187 246.896266,9.576875 C246.630425,10.2609406 246.279091,10.9086807 245.850622,11.5046875 L245.707469,11.716125 L245.576763,11.9026875 L245.427386,12.114125 L245.278008,12.3193437 L245.116183,12.537 L244.954357,12.7546562 L244.773859,12.9909687 L244.605809,13.2148437 L244.406639,13.4760312 L244.232365,13.6999062 L244.008299,13.97975 L243.827801,14.1974062 L243.553942,14.5332187 L243.39834,14.7197812 L242.950207,15.248375 L242.844398,15.37275 L242.470954,15.8018437 L242.278008,16.0132812 L241.960581,16.36775 L241.748963,16.6040625 L241.425311,16.9523125 L241.195021,17.2010625 L240.865145,17.5493125 L240.622407,17.8042812 L240.280083,18.1525312 L240.024896,18.4075 L239.651452,18.7744062 L239.408714,19.0107187 L238.979253,19.4211562 L238.767635,19.6201562 C238.33195,20.0347396 237.879668,20.4493229 237.410788,20.8639062 L237.19917,21.0504687 L236.701245,21.4795625 L236.43361,21.7034375 L235.966805,22.0952187 L235.66805,22.33775 L235.201245,22.710875 L234.890041,22.9534062 L234.410788,23.3203125 L234.093361,23.5628437 L233.589212,23.9359687 L233.278008,24.1598437 L232.711618,24.5578437 L232.443983,24.7444062 L231.665975,25.2667812 L231.585062,25.32275 L230.701245,25.894875 L230.470954,26.0379062 L229.804979,26.4483437 L229.481328,26.641125 L228.858921,26.989375 L228.497925,27.188375 L227.912863,27.5055312 L227.533195,27.7045312 L226.941909,28.00925 L226.556017,28.2020312 L225.93361,28.5005312 L225.553942,28.680875 L224.881743,28.979375 L224.539419,29.128625 L223.692946,29.476875 L223.512448,29.5515 L222.454357,29.9557187 L222.211618,30.0427812 L221.390041,30.3288437 L221.010373,30.447 L220.30083,30.670875 L219.871369,30.79525 L219.192946,30.9818125 L218.744813,31.0999687 L218.06639,31.267875 L217.612033,31.3735937 L216.908714,31.516625 L216.460581,31.6036875 L215.713693,31.7342812 L215.29668,31.8026875 L214.412863,31.9208437 L214.120332,31.9581562 C213.705394,32.0037604 213.304979,32.0431458 212.919087,32.0763125 L212.688797,32.0763125 L211.711618,32.1385 L211.288382,32.1385 L210.485477,32.1385 L210,32.1385 L209.240664,32.1385 L208.73029,32.1385 L207.970954,32.1011875 L207.448133,32.063875 L206.639004,32.0079062 L206.122407,31.9519375 L205.313278,31.8462187 L204.827801,31.7778125 L203.900415,31.6223437 L203.514523,31.5539375 C203.074689,31.4710208 202.63278,31.3777396 202.188797,31.2740937 L202.020747,31.2305625 C201.634855,31.1372812 201.242739,31.044 200.850622,30.9382812 L200.390041,30.8076875 L199.493776,30.5465 L198.96473,30.3785937 L198.130705,30.09875 L197.564315,29.89975 L196.742739,29.5950312 L196.1639,29.3649375 L195.3361,29.0166875 L194.757261,28.7679375 L193.892116,28.3699375 L193.344398,28.10875 L192.385892,27.6236875 L191.925311,27.387375 C191.452282,27.138625 190.973029,26.8774375 190.493776,26.6038125 C186.59751,27.9905937 180.983402,32.4929687 178.512448,41.1867812 C184.960581,45.2040937 188.134855,54.1342187 191.004149,59.7062187 C207.846473,92.4479375 221.352697,118.535594 216.304979,140.481562 C215.029046,149.977594 210.578838,158.708719 201.790456,166.855281 C196.294606,171.954656 189.497925,174.883687 183.323651,176.568969 C183.248963,178.994281 183.242739,181.357406 183.242739,182.843687 C183.730332,182.763686 184.22372,182.724165 184.717842,182.725531 C191.564315,182.725531 197.228216,190.39325 192.578838,191.549937 C191.609004,191.784585 190.614018,191.899453 189.616183,191.891969 C185.508299,191.891969 181.394191,190.181812 178.885892,189.684312 C175.773859,189.062437 177.018672,187.196812 177.641079,185.331187 C178.300778,182.7747 178.793518,180.178084 179.116183,177.55775 C175.16628,178.348135 171.150575,178.764562 167.122407,178.8015 L166.369295,178.8015 C165.746888,178.8015 165.006224,178.757969 164.184647,178.720656 C164.482901,180.946415 164.925745,183.150433 165.510373,185.31875 C166.13278,187.184375 167.377593,189.05 164.26556,189.671875 C161.775934,190.169375 157.643154,191.879531 153.53527,191.879531 C152.537437,191.886953 151.54246,191.772085 150.572614,191.5375 C145.923237,190.374594 151.580913,182.706875 158.43361,182.713094 C158.92773,182.711784 159.421113,182.751305 159.908714,182.83125 C159.908714,181.718094 159.908714,180.101219 159.877593,178.335094 C152.82848,177.539534 146.103734,174.941463 140.352697,170.79175 C126.261411,160.44375 123.858921,144.212813 123.130705,139.3 C122.221461,133.028317 122.459768,126.643783 123.834025,120.457187 C124.6217,115.642649 125.872304,110.915241 127.568465,106.340625 C131.707469,94.37575 133.630705,93.107125 140.639004,78.978125 C151.219917,57.6664687 152.46473,49.128125 160.661826,42.2875 C161.558091,41.54125 165.865145,39.0972813 171.012448,39.0972813 C171.575846,39.096013 172.138903,39.125076 172.69917,39.1843437 C174.267635,32.9655938 175.13278,21.54175 174.759336,19.0169375 C174.44976,18.7182687 174.244623,18.3279701 174.174274,17.9037813 C174.116406,17.1467011 174.337793,16.3946295 174.79668,15.7894063 C175.781829,14.3529166 177.250708,13.3178555 178.935685,12.8728125 L179.414938,12.711125 L178.095436,12.512125 C179.310635,12.2523183 180.549823,12.1210015 181.792531,12.1203438 L182.414938,12.1203438 C182.793624,12.0935542 183.168694,12.2088619 183.466805,12.4437188 C183.921162,12.8976875 183.672199,13.6874688 183.385892,14.2409375 C182.7926,15.5477671 182.017286,16.7641802 181.082988,17.8540313 C179.533195,21.89 178.058091,28.4259063 176.981328,33.8735313 C179.782158,30.1422813 183.553942,26.0254688 187.431535,24.6884375 L187.350622,24.6386875 C187.624481,24.153625 187.661826,24.0168125 187.605809,24.0168125 C187.549793,24.0168125 187.313278,24.2655625 187.307054,24.2655625 C187.30083,24.2655625 187.437759,24.0976563 187.929461,23.4757813 L188.029046,23.4757813 C192.043568,16.8714687 200.004149,7.4625 213.883817,7.4625 L213.883817,7.4625 Z M213.883817,0.621875 L213.883817,0.621875 C206.390859,0.558735752 199.090049,2.98953084 193.13278,7.53090625 C192.049017,8.35583075 191.010189,9.23808043 190.020747,10.173875 C189.63751,9.22323563 189.06831,8.35853798 188.346473,7.63040625 C186.840982,6.1482117 184.814792,5.31342916 182.701245,5.30459375 L181.804979,5.30459375 C180.083262,5.30527513 178.366378,5.4866134 176.682573,5.845625 C175.079231,6.18902061 173.652492,7.09596941 172.661826,8.40153125 C171.282561,9.3733337 170.091089,10.586965 169.145228,11.9835312 C167.694057,13.9946482 167.070295,16.4853368 167.40249,18.9423125 C167.518298,19.6728724 167.727475,20.3855597 168.024896,21.0629062 C167.9105,24.9286747 167.571757,28.7845578 167.010373,32.611125 C163.111019,33.203244 159.41148,34.7240277 156.224066,37.0450937 C149.46473,42.6979375 146.595436,49.227625 142.244813,59.1154375 C140.278008,63.5929375 137.825726,69.1649375 134.458506,75.9558125 C132.099585,80.7131562 130.369295,83.9095937 128.856846,86.7266875 C125.691988,92.2595597 123.083802,98.0922383 121.070539,104.139188 C119.272061,109.04915 117.93842,114.116818 117.087137,119.275625 C115.588748,126.189148 115.352591,133.316252 116.390041,140.313656 C117.096084,145.56207 118.450821,150.702747 120.423237,155.618 C123.683798,163.864383 129.185145,171.036734 136.307054,176.326437 C139.186514,178.43602 142.303141,180.201713 145.593361,181.5875 C143.731601,183.461603 142.509615,185.875195 142.10166,188.484094 C141.498044,192.995735 144.459755,197.215409 148.910788,198.185344 C150.424164,198.555582 151.977203,198.739365 153.53527,198.732594 C157.369295,198.732594 160.910788,197.7065 163.493776,196.96025 C164.334025,196.717719 165.130705,196.487625 165.603734,196.394344 C167.984825,196.019273 170.127097,194.735007 171.578838,192.812344 C173.030579,194.735007 175.172851,196.019273 177.553942,196.394344 C178.026971,196.487625 178.798755,196.717719 179.6639,196.96025 C182.246888,197.7065 185.788382,198.732594 189.622407,198.732594 C191.180469,198.739303 192.733501,198.555521 194.246888,198.185344 C198.697921,197.215409 201.659632,192.995735 201.056017,188.484094 C200.63278,185.07 198.348548,181.811375 195.161826,179.466906 C199.284766,177.515286 203.090753,174.955671 206.452282,171.873812 C216.012448,163.012094 221.446058,153.142937 223.058091,141.706656 C228.454357,117.528156 214.73029,90.8497187 197.377593,57.1316562 L197.103734,56.6030625 C196.624481,55.67025 196.107884,54.57575 195.560166,53.4190625 C193.5,49.0659375 190.860996,43.4690625 186.684647,39.1159375 C187.629921,37.2837127 188.946159,35.6678803 190.549793,34.3710312 L190.848548,34.5140625 L190.985477,34.57625 L191.981328,35.0364375 L192.603734,35.3038437 L192.641079,35.3038437 L193.599585,35.7018437 L194.26556,35.96925 L195.224066,36.3299375 L195.883817,36.56625 L196.860996,36.889625 L196.991701,36.9331562 L197.483402,37.088625 L198.53527,37.3933437 L198.659751,37.4306562 L199.076763,37.5488125 C199.506224,37.6669687 199.948133,37.7726875 200.421162,37.884625 L200.645228,37.9405937 C201.155602,38.05875 201.684647,38.1706875 202.219917,38.2701875 L202.587137,38.3385937 L202.680498,38.3385937 L203.782158,38.5251562 L204.236515,38.5873437 L204.36722,38.5873437 L205.33195,38.7117187 L205.885892,38.7676875 L205.948133,38.7676875 L206.869295,38.8485312 L207.491701,38.8920625 L208.400415,38.9418125 L209.022822,38.9418125 L209.937759,38.9418125 L210.522822,38.9418125 L211.487552,38.9418125 L211.618257,38.9418125 L212.016598,38.9418125 L213.186722,38.8671875 L213.466805,38.8671875 C213.939834,38.829875 214.425311,38.780125 214.904564,38.7241562 L215.209544,38.6868437 L215.259336,38.6868437 L216.317427,38.5438125 L216.70332,38.481625 L216.815353,38.481625 L217.705394,38.3261562 L218.159751,38.2390937 L218.240664,38.2390937 L219.074689,38.0649687 L219.616183,37.9405937 L220.425311,37.7415937 L220.960581,37.6047812 L221.763485,37.3809062 L221.856846,37.3809062 L222.267635,37.26275 L223.10166,37.0015625 L223.207469,36.9704687 L223.549793,36.8585312 L224.508299,36.5289375 L224.551867,36.5289375 L224.807054,36.441875 C225.217842,36.292625 225.628631,36.1371562 226.051867,35.9754687 L226.257261,35.8884062 L227.253112,35.4779687 L227.558091,35.3411562 L227.651452,35.297625 L228.423237,34.8871875 L228.771784,34.7192812 L228.858921,34.67575 L229.568465,34.3337187 L230.016598,34.1098437 L230.701245,33.7615937 L231.143154,33.5315 L231.815353,33.1645937 L231.883817,33.1272812 L232.238589,32.9282812 L232.917012,32.5365 L233.016598,32.4805312 L233.284232,32.3188437 L234.049793,31.8524375 L234.112033,31.815125 L234.323651,31.6845312 L235.33195,31.0626562 L235.443983,30.9880312 L236.309129,30.4034687 L236.539419,30.2417812 L236.620332,30.1858125 L237.242739,29.7318437 L237.522822,29.526625 L237.59751,29.4706562 L238.176349,29.0477812 L238.537344,28.7741562 L239.078838,28.3575 L239.427386,28.083875 L239.956432,27.661 L240.248963,27.3625 L240.778008,26.9209687 L240.858921,26.8525625 L241.089212,26.6597812 L241.649378,26.1809375 L241.69917,26.1374062 L241.885892,25.9757187 C242.40249,25.52175 242.912863,25.0615625 243.404564,24.5951562 L243.578838,24.42725 L243.641079,24.3650625 L244.114108,23.9110937 L244.319502,23.7120937 L244.394191,23.6436875 L244.817427,23.2270312 L245.053942,22.9907187 L245.091286,22.9534062 L245.489627,22.5491875 L245.757261,22.2693437 L246.130705,21.8775625 L246.392116,21.5977187 L246.746888,21.218375 L246.834025,21.1250937 L246.983402,20.9634062 L247.344398,20.5654062 L247.412863,20.4907812 L247.568465,20.3166562 L247.985477,19.8378125 L247.985477,19.8067187 L248.072614,19.7072187 L248.589212,19.0853437 L248.732365,18.9112187 L248.76971,18.8676875 L249.074689,18.5007812 L249.23029,18.308 L249.273859,18.2520312 L249.529046,17.9286562 L249.721992,17.6799062 L249.96473,17.3689687 L250.1639,17.114 L250.375519,16.8341562 L250.556017,16.5978437 L250.736515,16.3490937 L245.228216,12.3193437 L250.767635,16.3366562 L250.948133,16.0879062 L251.09751,15.8764687 L251.09751,15.8391562 L251.09751,15.8018437 L251.228216,15.6090625 L251.383817,15.3789687 L251.383817,15.3416562 C252.858921,13.158875 253.251037,12.0332812 253.46888,11.1502187 C254.084175,8.52155223 253.094625,5.77717147 250.942822,4.14454181 C248.791019,2.51191214 245.879456,2.2964161 243.510373,3.5944375 C242.615504,3.73892921 241.709051,3.7993078 240.802905,3.77478125 C237.877593,3.77478125 232.089212,3.35190625 221.29668,1.33703125 C218.834102,0.8714969 216.334049,0.632113205 213.827801,0.621875 L213.883817,0.621875 Z" id="Shape" fill="#FFFFFF" fill-rule="nonzero"></path>
                <path d="M388.064315,173.285469 C382.462656,173.285469 377.875519,168.130125 377.40249,161.295719 L375.53527,134.555094 C374.03527,142.396937 371.259336,148.914187 367.244813,154.026 C363.861439,158.367868 359.385451,161.734868 354.273859,163.783219 C348.491701,169.641281 340.8361,172.607625 331.5,172.607625 C310.070539,172.607625 297.784232,156.631656 297.784232,128.777875 L297.784232,85.0414062 C297.784232,79.7057187 300.392116,75.0914062 304.294606,73.2257812 C305.489627,66.2110312 310.705394,61.0992187 316.954357,61.0992187 C324.186722,61.0992187 329.875519,67.784375 329.875519,76.3102812 L329.875519,119.518156 C329.875519,127.739344 331.711618,137.552531 340.456432,137.552531 C341.67914,137.562122 342.893571,137.351463 344.041494,136.930656 C344.563284,134.288992 344.813546,131.600969 344.788382,128.908469 L344.788382,85.0414062 C344.788382,79.7057187 347.396266,75.0914062 351.298755,73.2257812 C352.493776,66.2110312 357.709544,61.0992187 363.958506,61.0992187 C371.20332,61.0992187 376.873444,67.7781562 376.873444,76.3102812 L376.873444,76.5776875 C377.450871,76.13603 378.077431,75.7625018 378.740664,75.4645312 C379.069021,73.1685103 379.895331,70.9718523 381.161826,69.028125 C383.170832,65.8120145 386.585148,63.736112 390.36722,63.43125 L411.852697,61.9325312 C412.724066,61.8703437 413.60166,61.83925 414.460581,61.83925 C432.728216,61.83925 445.481328,75.5205 446.962656,96.7202187 L446.962656,96.987625 C447.76556,108.455 445.020747,118.3055 439.026971,125.481937 C435.742054,129.399263 431.541395,132.447213 426.79668,134.356094 C422.128631,139.094781 415.966805,142.048687 408.852697,142.9815 L409.406639,150.916625 C410.029046,159.423875 404.807054,166.4635 397.580913,166.992094 L396.958506,166.992094 C395.309129,170.59275 392.221992,172.974531 388.686722,173.210844 C388.481328,173.27925 388.26971,173.285469 388.064315,173.285469 Z M406.524896,109.369156 L414.099585,108.840562 C414.344398,108.840562 414.585062,108.813615 414.821577,108.759719 C414.821577,108.432198 414.809129,108.104677 414.784232,107.777156 L414.784232,107.50975 C414.454357,102.752406 412.574689,97.1244375 405.659751,96.6518125 L406.524896,109.369156 Z M254.564315,173.117562 L254.091286,173.117562 C250.051867,172.887469 246.921162,170.574094 244.518672,166.046844 L232.929461,144.449125 L232.618257,149.921625 C232.157676,158.006 226.705394,164.181219 219.871369,164.386437 C217.973029,168.242062 214.549793,170.6425 210.76556,170.6425 L210.255187,170.6425 C207.251081,170.43285 204.522039,168.819412 202.892116,166.289375 C201.142015,163.645026 200.316966,160.496337 200.545643,157.334375 L204.715768,84.0712812 C205.002075,79.05275 207.560166,74.7929062 211.251037,72.9397187 C212.495851,65.7757187 217.73029,60.719875 224.085062,60.719875 C224.304979,60.719875 224.522822,60.719875 224.738589,60.719875 L249.73444,62.13775 C260.284232,62.759625 268.674274,67.1500625 274.008299,74.9048437 C278.365145,81.2604062 280.400415,89.8298437 279.840249,99.5932812 L279.840249,99.8606875 C279.311203,109.188812 276.360996,121.501937 265.612033,128.90225 L273.236515,142.546187 C274.755187,145.381937 276.217842,148.528625 275.950207,153.167812 C275.452282,161.961125 269.184647,166.755781 263.470954,166.849062 C261.721992,170.673594 258.298755,173.117562 254.564315,173.117562 Z M246.161826,107.198812 L246.784232,107.198812 C247.053942,107.198812 247.317427,107.188448 247.574689,107.167719 C247.624481,103.952625 246.890041,101.44025 245.377593,99.7052187 C243.865145,97.9701875 241.394191,96.8756875 238.195021,96.6953437 L235.643154,96.5523125 L235.070539,106.576937 L246.161826,107.198812 Z M80.5829876,172.88125 C75.1120332,172.88125 70.4875519,167.8565 69.840249,161.19 L66.4605809,126.576437 L65.9004149,127.198312 C62.8624168,130.347459 59.1902828,132.816773 55.126556,134.443156 C49.8858921,139.766406 42.6784232,142.838469 34.5871369,143.211594 L34.5871369,150.49375 C34.5871369,158.920156 29.0539419,165.543125 21.939834,165.704812 C20.1099585,169.560437 16.7302905,171.954656 12.9273859,171.954656 C7.07053942,171.948437 2.48962656,166.357781 2.48962656,159.2 L2.48962656,85.81875 C2.48962656,80.4830625 5.09751037,75.86875 9,74.003125 C10.1950207,66.988375 15.4107884,61.8765625 21.659751,61.8765625 L43.2012448,61.8765625 C53.060166,61.8765625 61.3879668,65.6078125 67.2821577,72.610125 C67.9924756,73.4595364 68.6573057,74.3459113 69.2738589,75.2655312 C70.4377593,69.077875 74.7759336,64.5941562 80.4211618,64.0717812 L120.217842,60.1912812 C120.553942,60.1601875 120.90249,60.1415312 121.238589,60.1415312 C127.580913,60.1415312 132.90249,65.7384062 133.624481,73.1014062 C134.390041,80.9245937 129.70332,87.5662187 122.956432,88.2254062 L121.537344,88.3622187 C120.136929,91.8198437 117.304979,94.1580937 113.96888,94.4814687 L96.4294606,96.191625 L96.7780083,99.7425312 L119.184647,97.5535312 C119.526971,97.5224375 119.869295,97.5037812 120.205394,97.5037812 C126.547718,97.5037812 131.869295,103.100656 132.591286,110.463656 C133.356846,118.286844 128.670124,124.928469 121.923237,125.587656 L120.510373,125.724469 C119.109959,129.182094 116.278008,131.520344 112.941909,131.843719 L100.014523,133.087469 L100.425311,137.303781 L127.985477,134.617281 C128.321577,134.586187 128.670124,134.567531 129.012448,134.567531 C135.348548,134.567531 140.676349,140.164406 141.39834,147.527406 C142.1639,155.350594 137.477178,161.992219 130.73029,162.651406 L129.317427,162.788219 C127.917012,166.245844 125.085062,168.584094 121.748963,168.907469 L81.4356846,172.837719 C81.1618257,172.88125 80.8692946,172.88125 80.5829876,172.88125 Z M42.1680498,108.828125 C42.6157522,108.828623 43.0629282,108.797452 43.5062241,108.734844 C43.5062241,108.635344 43.5062241,108.181375 43.5062241,108.181375 C43.5062241,99.5621875 38.9377593,97.06225 34.5684647,96.6455937 L34.5684647,108.828125 L42.1680498,108.828125 Z" id="Shape" fill="#FFFFFF" fill-rule="nonzero"></path>
                <path d="M121.238589,62.6228125 C126.292531,62.6228125 130.574689,67.2246875 131.147303,73.3315 C131.76971,79.7679062 128.072614,85.2155312 122.713693,85.7379062 L119.676349,86.0364062 C118.885892,89.3074687 116.607884,91.7203437 113.732365,92.0001875 L93.7157676,93.952875 L94.5435685,102.453906 L119.439834,100.022375 C119.701245,100.022375 119.962656,99.9850625 120.224066,99.9850625 C125.278008,99.9850625 129.560166,104.586937 130.13278,110.69375 C130.755187,117.130156 127.058091,122.577781 121.69917,123.100156 L118.661826,123.398656 C117.865145,126.669719 115.593361,129.082594 112.711618,129.362437 L97.3070539,130.867375 L98.2033195,140.033812 L128.240664,137.104781 C128.502075,137.104781 128.763485,137.067469 129.024896,137.067469 C134.078838,137.067469 138.360996,141.669344 138.93361,147.776156 C139.556017,154.212562 135.858921,159.660187 130.5,160.182562 L127.462656,160.481062 C126.672199,163.752125 124.394191,166.165 121.518672,166.444844 L81.2116183,170.39375 C81,170.39375 80.7946058,170.39375 80.5892116,170.39375 C76.4377593,170.39375 72.8526971,166.364 72.3236515,160.947469 L68.3091286,119.860187 C67.1353115,121.885345 65.7250287,123.764116 64.1078838,125.457062 C61.1863464,128.470299 57.6379999,130.805537 53.7136929,132.297687 C48.4356846,137.894562 41.0850622,140.730312 32.9190871,140.730312 L32.0850622,140.730312 L32.0850622,150.49375 C32.0850622,157.626656 27.5041494,163.217312 21.659751,163.217312 C21.196806,163.213667 20.7348406,163.174163 20.2780083,163.099156 C19.1078838,166.830406 16.2821577,169.467156 12.9211618,169.467156 C8.48340249,169.460937 4.97925311,164.939906 4.97925311,159.2 L4.97925311,85.81875 C4.97925311,80.84375 7.65560166,76.7455937 11.2842324,75.794125 C11.8257261,69.3079687 16.1825726,64.3827187 21.659751,64.3827187 L43.2012448,64.3827187 C52.2821577,64.3827187 59.9688797,67.784375 65.3526971,74.227 C66.6297457,75.7580659 67.7514341,77.4120806 68.7012448,79.1646875 C69.5044965,78.5221204 70.4463222,78.0750289 71.4522822,77.85875 C71.7448133,71.8265625 75.4792531,67.038125 80.6390041,66.5344062 L120.435685,62.6539062 C120.697095,62.6539062 120.958506,62.6165937 121.219917,62.6165937 L121.238589,62.6228125 Z M32.0850622,111.315625 L42.1680498,111.315625 C43.4295814,111.328754 44.6834433,111.118201 45.8713693,110.69375 C45.9584692,109.946511 46.0021109,109.194852 46.0020747,108.442562 L46.0020747,108.20625 C46.0020747,99.0335937 41.0539419,94.1145625 33.1182573,94.1145625 L32.0850622,94.1145625 L32.0850622,111.315625 L32.0850622,111.315625 Z M224.06639,63.1887187 L224.576763,63.1887187 L249.585062,64.62525 C259.338174,65.1787187 267.068465,69.2209062 271.948133,76.3165 C276.006224,82.211875 277.873444,90.2154062 277.344398,99.4564687 L277.344398,99.723875 C276.802905,109.182594 273.697095,121.4895 262.275934,128.062719 L271.045643,143.702875 L271.045643,143.702875 L271.045643,143.702875 C272.452282,146.320969 273.690871,149.00125 273.460581,152.993687 C273.043568,160.369125 267.890041,164.349125 263.259336,164.349125 L262.786307,164.349125 C262.443983,164.349125 262.114108,164.286937 261.784232,164.243406 C260.645228,168.223406 257.582988,170.611406 254.514523,170.611406 L254.178423,170.611406 C250.574689,170.406187 248.340249,168.018187 246.659751,164.859062 L232.661826,138.740312 L230.707469,138.628375 L230.085062,149.735062 C229.692946,156.650312 225.105809,161.861625 219.460581,161.861625 L218.950207,161.861625 C218.695021,161.861625 218.446058,161.811875 218.197095,161.774562 C216.952282,165.543125 214.045643,168.123906 210.728216,168.123906 L210.360996,168.123906 C205.935685,167.875156 202.692946,163.148906 203.022822,157.452531 L207.192946,84.1894375 C207.460581,79.4569687 210.093361,75.6884062 213.510373,74.6809687 C214.13278,68.0890937 218.582988,63.1825 224.091286,63.1825 L224.091286,63.1825 L224.06639,63.1887187 Z M246.784232,109.711187 C247.852914,109.718552 248.916643,109.565523 249.939834,109.257219 C249.939834,108.989812 249.995851,108.728625 250.014523,108.455 L250.014523,108.187594 C250.512448,99.425375 246.037344,94.6431562 238.319502,94.2078437 L233.284232,93.9217812 L232.431535,108.915187 L246,109.686312 C246.261411,109.686312 246.522822,109.686312 246.778008,109.686312 L246.784232,109.711187 Z M363.946058,63.555625 C369.790456,63.555625 374.371369,69.1525 374.371369,76.2791875 L374.371369,119.4 C374.371369,133.703125 371.315353,144.840906 365.284232,152.508625 C362.052915,156.647939 357.747425,159.822676 352.8361,161.6875 C347.46473,167.334125 340.195021,170.145 331.475104,170.145 C312.099585,170.145 300.248963,156.183906 300.248963,128.80275 L300.248963,85.0414062 C300.248963,80.0664062 302.925311,75.96825 306.553942,75.0167812 C307.070539,68.5119687 311.439834,63.5805 316.929461,63.5805 C322.773859,63.5805 327.354772,69.177375 327.354772,76.3040625 L327.354772,119.511937 C327.354772,127.173437 329.053942,140.033812 340.425311,140.033812 C342.417816,140.072937 344.38845,139.613302 346.157676,138.696781 C346.921001,135.495286 347.284763,132.211696 347.240664,128.920906 L347.240664,85.0414062 C347.240664,80.0664062 349.917012,75.96825 353.545643,75.0167812 C354.062241,68.5119687 358.431535,63.5805 363.921162,63.5805 L363.946058,63.555625 Z M414.441909,64.3454062 C431.29668,64.3454062 443.072614,77.1249375 444.460581,96.9067812 L444.460581,97.1741875 C445.213693,107.982375 442.66805,117.229656 437.09751,123.914812 C433.953108,127.645757 429.9149,130.521005 425.358921,132.272812 C420.547718,137.353531 413.912863,140.232812 406.419087,140.755187 L406.182573,140.755187 L406.941909,151.115625 C407.439834,158.236094 403.263485,164.12525 397.431535,164.535687 C397.226141,164.535687 397.014523,164.535687 396.809129,164.535687 C396.297676,164.531571 395.787515,164.483719 395.284232,164.392656 C394.275934,167.968437 391.73029,170.543 388.518672,170.766875 L388.070539,170.766875 C383.844398,170.766875 380.278008,166.600312 379.892116,161.0905 L374.775934,87.883375 C374.408714,82.5974375 377.116183,78.132375 381.03112,77.26175 C381.142531,74.8058572 381.905061,72.4236438 383.240664,70.3589375 C384.83706,67.814072 387.539742,66.1689636 390.53527,65.91875 L412.033195,64.4386875 C412.848548,64.3827187 413.670124,64.351625 414.466805,64.351625 L414.466805,64.351625 L414.441909,64.3454062 Z M404.215768,112.024562 L414.273859,111.315625 C415.283287,111.245288 416.27816,111.03602 417.23029,110.69375 C417.327505,109.660039 417.339995,108.620119 417.267635,107.584375 L417.267635,107.316969 C416.645228,98.6604687 411.908714,94.1145625 404.695021,94.1145625 C404.280083,94.1145625 403.865145,94.1290729 403.450207,94.1580937 L403.008299,94.1580937 L404.253112,111.968594 L404.215768,112.024562 Z M121.238589,57.6478125 C120.815353,57.6478125 120.392116,57.6478125 119.993776,57.71 L80.1784232,61.565625 C75.0622407,62.063125 70.7614108,65.3528437 68.4087137,70.1101875 C62.0850622,63.0892187 53.3962656,59.3828437 43.2012448,59.3828437 L21.659751,59.3828437 C14.5518672,59.3828437 8.58921162,64.7931562 6.79045643,72.3800312 C2.67012448,74.97325 0,80.0539687 0,85.81875 L0,159.2 C0,167.732125 5.67012448,174.411062 12.9149378,174.411062 C17.2717842,174.411062 21.1244813,172.004406 23.4958506,168.043062 C31.2448133,167.035625 37.0767635,159.678844 37.0767635,150.462656 L37.0767635,145.487656 C44.393623,144.78524 51.2563775,141.626422 56.5456432,136.526437 C59.3884689,135.33197 62.054288,133.75435 64.4688797,131.8375 L67.3630705,161.432531 C68.1348548,169.380094 73.8174274,175.36875 80.5829876,175.36875 C80.9502075,175.36875 81.3236515,175.36875 81.6908714,175.312781 L121.991701,171.38875 C125.847889,170.944387 129.221266,168.590649 130.966805,165.126469 L130.966805,165.126469 C139.10166,164.330469 144.771784,156.494844 143.875519,147.284875 C143.029046,138.615937 136.636929,132.080031 129.012448,132.080031 C128.589212,132.080031 128.165975,132.080031 127.767635,132.142219 L117.012448,133.193187 C119.21326,132.043842 121.009423,130.249214 122.159751,128.050281 L122.159751,128.050281 C130.294606,127.254281 135.96473,119.418656 135.068465,110.208687 C134.221992,101.53975 127.829876,95.0038437 120.205394,95.0038437 C119.919087,95.0038437 119.626556,95.0038437 119.340249,95.0038437 C120.941409,93.8741521 122.252934,92.3826349 123.16805,90.6507187 L123.16805,90.6507187 C131.302905,89.8547187 136.973029,82.0190937 136.076763,72.809125 C135.261411,64.1837187 128.838174,57.6478125 121.238589,57.6478125 Z M37.0643154,106.340625 L37.0643154,99.7674062 C38.9315353,100.625594 40.5560166,102.466344 40.9356846,106.334406 L37.0643154,106.340625 Z M224.06639,58.2137187 L224.06639,58.2137187 C216.827801,58.2137187 210.846473,63.5742812 209.022822,71.3228437 C205.145228,73.8103437 202.524896,78.4992812 202.213693,83.9095937 L198.043568,157.172687 C197.558091,165.686156 202.842324,172.68225 210.074689,173.092687 L210.697095,173.092687 C215.010373,173.092687 218.919087,170.679812 221.340249,166.718469 C227.919087,165.835406 233.165975,160.387781 234.653527,153.037219 L242.259336,167.20975 C245.060166,172.477031 248.975104,175.294125 253.879668,175.580187 L254.502075,175.580187 C258.802905,175.580187 262.705394,173.13 265.014523,169.212187 C271.406639,168.341562 277.873444,162.825531 278.414938,153.285969 C278.713693,148.000031 277.026971,144.362062 275.414938,141.358406 L275.414938,141.327312 L275.414938,141.277562 L275.414938,141.277562 L275.414938,141.277562 L268.86722,129.604969 C276.958506,123.143687 281.60166,113.019562 282.342324,100.016156 L282.342324,99.7549687 C282.93361,89.40075 280.767635,80.3275937 276.074689,73.5180625 C270.286307,65.1103125 261.236515,60.321875 249.890041,59.6813437 L224.887967,58.25725 C224.63278,58.25725 224.365145,58.25725 224.09751,58.25725 L224.06639,58.2137187 Z M237.665975,104.232469 L237.952282,99.176625 L238.020747,99.176625 C240.510373,99.3196562 242.377593,100.041031 243.460581,101.328312 C244.221732,102.28652 244.71178,103.431136 244.879668,104.642906 L237.672199,104.232469 L237.665975,104.232469 Z M363.939834,58.6117187 C356.83195,58.6117187 350.869295,64.0220312 349.070539,71.6089062 C344.950207,74.17725 342.280083,79.2579687 342.280083,85.047625 L342.280083,128.914687 C342.29231,130.933231 342.150823,132.949779 341.856846,134.946875 C341.389352,135.018699 340.91697,135.054046 340.443983,135.052594 C338.321577,135.052594 335.919087,134.530219 334.219917,130.631062 C333.012448,127.90725 332.352697,124.057844 332.352697,119.518156 L332.352697,76.3102812 C332.352697,66.3602812 325.587137,58.6117187 316.948133,58.6117187 C309.840249,58.6117187 303.877593,64.0220312 302.078838,71.6089062 C297.958506,74.17725 295.288382,79.2579687 295.288382,85.047625 L295.288382,128.784094 C295.288382,143.335969 298.450207,154.778469 304.686722,162.782 C310.923237,170.785531 320.246888,175.101344 331.493776,175.101344 C341.184647,175.101344 349.543568,171.923562 355.674274,165.897594 C360.995754,163.669444 365.653525,160.110032 369.19917,155.562031 C371.079155,153.152796 372.676707,150.5363 373.960581,147.763719 L374.919087,161.444969 C375.491701,169.59775 381.143154,175.748094 388.064315,175.748094 C388.33195,175.748094 388.599585,175.748094 388.860996,175.748094 C392.856846,175.46825 396.379668,173.092687 398.526971,169.423625 C406.755187,168.409969 412.580913,160.375344 411.908714,150.767375 L411.510373,145.095875 C417.811119,143.941659 423.626026,140.941445 428.215768,136.476687 C433.137746,134.391713 437.498435,131.176721 440.943983,127.092594 C447.354772,119.412437 450.280083,108.946281 449.452282,96.8321562 L449.452282,96.56475 C448.692946,85.71925 445.058091,76.4781875 438.939834,69.824125 C432.628631,62.9835 424.1639,59.3579687 414.466805,59.3579687 C413.551867,59.3579687 412.599585,59.3890625 411.684647,59.4574687 L390.192946,60.94375 C385.64941,61.2855803 381.534808,63.7526939 379.095436,67.5978125 C378.741442,68.1265724 378.417286,68.6746762 378.124481,69.2395625 C375.802905,62.908875 370.394191,58.5744062 363.939834,58.5744062 L363.939834,58.6117187 Z M408.827801,106.719969 L408.348548,99.8793437 C410.109959,100.756187 411.641079,102.621812 412.151452,106.520969 L408.827801,106.751062 L408.827801,106.719969 Z" id="Shape" fill="#FFFFFF" fill-rule="nonzero"></path>
                <path d="M263.221992,74.8426562 C264.062241,78.1385937 266.576763,80.3400313 268.823651,79.7679062 C271.070539,79.1957812 272.246888,76.0366562 271.406639,72.759375 C270.56639,69.4820937 266.576763,67.461 264.311203,68.033125 C262.045643,68.60525 262.387967,71.5529375 263.221992,74.8426562 Z" id="Shape" fill="#000000" fill-rule="nonzero"></path>
                <path d="M197.302905,77.3052813 C208.755341,74.9794016 220.37514,73.5694975 232.051867,73.0889687 C244.705394,72.5914687 258.311203,73.3190625 268.282158,75.5267187" id="Shape" stroke="#000000" stroke-width="11" stroke-linecap="round"></path>
                <path d="M144.105809,77.3052813 C132.653373,74.9794016 121.033574,73.5694975 109.356846,73.0889687 C96.7033195,72.5914687 83.0975104,73.3190625 73.126556,75.5267187" id="Shape" stroke="#000000" stroke-width="11" stroke-linecap="round"></path>
                <path d="M78.1618257,74.8426562 C77.3215768,78.1385937 74.8070539,80.3400313 72.560166,79.7679062 C70.313278,79.1957812 69.1369295,76.0366562 69.9771784,72.759375 C70.8174274,69.4820937 74.8070539,67.461 77.0726141,68.033125 C79.3381743,68.60525 78.9958506,71.5529375 78.1618257,74.8426562 Z" id="Shape" fill="#000000" fill-rule="nonzero"></path>
                <path d="M167.159751,179.908437 L166.356846,179.908437 C161.514523,179.759187 150.174274,179.410937 139.593361,171.674812 C129.96473,164.610312 124.033195,153.739937 121.879668,139.337312 C119.925311,126.122469 123.522822,115.706062 125.670124,109.518406 C127.58384,103.764689 130.069262,98.216848 133.089212,92.957875 C134.564315,90.2402812 136.394191,86.8572812 138.802905,82.0066562 C142.232365,75.097625 144.709544,69.4634375 146.701245,64.9299687 C150.871369,55.4401562 153.392116,49.7126875 159.149378,44.899375 C160.456432,43.804875 165.080913,41.4106562 170.29668,41.4106562 C171.589972,41.4078079 172.879044,41.558106 174.136929,41.8584062 C182.533195,43.8981562 186.721992,52.859375 189.834025,59.3641875 C190.400415,60.570625 190.941909,61.7086562 191.46473,62.7223125 L191.744813,63.2695625 C214.892116,108.268437 231.609959,140.780062 202.661826,167.613969 C190.051867,179.305219 170.875519,179.896 167.184647,179.896 L167.159751,179.908437 Z" id="Shape" fill="#000000" fill-rule="nonzero"></path>
                <path d="M170.309129,42.6730625 C171.504046,42.6710278 172.694971,42.8108941 173.856846,43.0897187 C183.099585,45.32225 186.927386,56.6776875 190.350622,63.3006562 C213.379668,108.075656 230.184647,140.413156 201.809129,166.718469 C189.834025,177.85625 171.622407,178.664687 167.159751,178.664687 L166.394191,178.664687 C161.483402,178.515437 150.591286,178.179625 140.352697,170.667375 C126.261411,160.331812 123.858921,144.069781 123.136929,139.175625 C121.26971,126.51425 124.605809,116.502062 126.871369,109.9475 C131.010373,97.982625 132.93361,96.714 139.941909,82.585 C150.522822,61.2733437 151.767635,52.735 159.96473,45.894375 C160.860996,45.1419062 165.16805,42.6917187 170.315353,42.6917187 L170.309129,42.6730625 Z M170.315353,40.2042187 C164.713693,40.2042187 159.840249,42.7539062 158.365145,43.9852187 C152.390041,48.9602187 149.825726,54.8120625 145.580913,64.4697812 C143.595436,68.9845937 141.124481,74.6125625 137.707469,81.4905 C135.311203,86.3224687 133.481328,89.6930312 132.012448,92.4044062 C128.966074,97.7239505 126.453842,103.331546 124.512448,109.145281 C122.327801,115.463531 118.66805,126.029187 120.665975,139.54875 C121.306557,144.453868 122.561188,149.25918 124.400415,153.851875 C127.366211,161.357467 132.371797,167.885879 138.852697,172.700906 C149.713693,180.667125 161.327801,181.021594 166.288382,181.177062 L167.128631,181.177062 C170.925311,181.177062 190.524896,180.555187 203.477178,168.559219 C217.213693,155.829437 221.76971,140.923094 217.792531,121.663625 C214.257261,104.450125 204.317427,85.1160312 192.802905,62.73475 L192.522822,62.1875 C192.012448,61.1925 191.477178,60.0606875 190.910788,58.8666875 C187.724066,52.113125 183.354772,42.859625 174.39834,40.6955 C173.044768,40.3712255 171.657497,40.208402 170.26556,40.2104375 L170.315353,40.2042187 Z" id="Shape" fill="#000000" fill-rule="nonzero"></path>
                <path d="M4.97925311,85.81875 C4.97925311,80.1037187 8.48340249,75.5826875 12.9149378,75.5826875 L34.4564315,75.5826875 C51.6659751,75.5826875 62.0788382,88.7415625 62.0788382,107.752281 L62.0788382,108.019687 C62.0788382,129.555219 49.0954357,140.724094 32.9128631,140.724094 L20.8506224,140.724094 L20.8506224,159.2 C20.8506224,164.915031 17.346473,169.436062 12.9149378,169.436062 C8.48340249,169.436062 4.97925311,164.939906 4.97925311,159.2 L4.97925311,85.81875 Z M33.4232365,122.509375 C41.3589212,122.509375 45.9958506,116.396344 45.9958506,108.417687 L45.9958506,108.20625 C45.9958506,99.0335937 41.0477178,94.1145625 33.1120332,94.1145625 L20.8506224,94.1145625 L20.8506224,122.509375 L33.4232365,122.509375 Z M207.19917,84.1707812 C207.522822,78.4619687 211.282158,74.152375 215.701245,74.401125 L240.709544,75.86875 C249.865145,76.391125 256.780083,80.1099375 261.161826,86.4841562 C264.896266,91.88825 266.626556,99.3134375 266.141079,108.069437 L266.141079,108.336844 C265.307054,122.938469 259.139004,131.6385 250.126556,135.786406 L260.153527,153.665312 C261.553942,156.277187 262.462656,158.459969 262.282158,161.643969 C261.958506,167.352781 258.043568,170.853937 254.23444,170.6425 C250.630705,170.437281 248.396266,168.049281 246.715768,164.890156 L232.717842,138.771406 L220.033195,138.05625 L218.875519,158.360469 C218.551867,164.069281 214.792531,168.378875 210.373444,168.130125 C205.954357,167.881375 202.705394,163.155125 203.029046,157.45875 L207.19917,84.1707812 Z M237.112033,120.861406 C244.829876,121.302937 249.560166,116.240875 250.002075,108.423906 L250.002075,108.1565 C250.5,99.3942812 246.024896,94.6120625 238.307054,94.17675 L222.56639,93.28125 L221.060166,120.021875 L237.112033,120.861406 Z M300.267635,128.728125 L300.267635,85.0414062 C300.267635,79.326375 303.771784,74.8053437 308.20332,74.8053437 C312.634855,74.8053437 316.139004,79.326375 316.139004,85.0414062 L316.139004,128.249281 C316.139004,143.404375 322.014523,151.258656 331.69917,151.258656 C341.383817,151.258656 347.259336,143.678 347.259336,128.927125 L347.259336,85.0414062 C347.259336,79.326375 350.763485,74.8053437 355.195021,74.8053437 C359.626556,74.8053437 363.130705,79.326375 363.130705,85.0414062 L363.130705,128.10625 C363.130705,156.289625 350.863071,170.113906 331.487552,170.113906 C312.112033,170.113906 300.267635,156.16525 300.267635,128.784094 L300.267635,128.728125 Z M374.76971,87.8647187 C374.371369,82.162125 377.551867,77.411 381.970954,77.1000625 L403.456432,75.6013437 C420.628631,74.401125 431.925311,86.7950937 433.251037,105.774719 L433.251037,106.042125 C434.751037,127.527906 422.576763,139.567406 406.437759,140.699219 L394.406639,141.53875 L395.695021,159.971125 C396.093361,165.673719 392.912863,170.424844 388.493776,170.735781 C384.074689,171.046719 380.259336,166.780656 379.860996,161.078062 L374.76971,87.8647187 Z M405.70332,122.509375 C413.620332,121.955906 417.821577,115.531937 417.261411,107.584375 L417.261411,107.316969 C416.639004,98.1691875 411.342324,93.604625 403.425311,94.1580937 L391.188797,95.0100625 L393.174274,123.392437 L405.70332,122.509375 Z M72.3174274,160.953687 L65.2593361,88.7104687 C64.7053942,83.0203125 67.7489627,78.182125 72.1618257,77.7530312 L111.958506,73.8725312 C115.854772,73.4931875 119.427386,77.286625 119.925311,82.311375 C120.423237,87.336125 117.622407,91.6395 113.701245,92.0001875 L81.6970954,95.1095625 L83.533195,113.896406 L110.919087,111.222344 C114.815353,110.843 118.387967,114.636437 118.885892,119.661187 C119.383817,124.685937 116.582988,128.989312 112.661826,129.35 L85.2759336,132.024062 L87.1742739,151.476312 L119.688797,148.30475 C123.585062,147.925406 127.157676,151.718844 127.655602,156.743594 C128.153527,161.768344 125.352697,166.071719 121.431535,166.432406 L81.2053942,170.39375 C76.7987552,170.797969 72.8713693,166.6625 72.3174274,160.953687 Z" id="Shape" fill="#000000" fill-rule="nonzero"></path>
                <path d="M174.653527,45.8321875 C173.710632,45.8646692 172.80081,45.4828703 172.1639,44.7874375 C170.875519,43.3633437 171.068465,41.0561875 171.093361,40.7825625 C171.109795,40.6191761 171.158449,40.4606586 171.236515,40.3161562 C171.53527,39.7564687 178.549793,26.8276875 186.417012,23.6001562 C191.060166,15.5157812 199.562241,6.06328125 213.865145,6.06328125 C216.037326,6.07213955 218.204102,6.28030547 220.338174,6.68515625 C229.363071,8.36421875 236.271784,9.2161875 240.877593,9.2161875 C244.612033,9.2161875 245.856846,8.6440625 246.19917,8.3953125 C246.623406,8.10343981 247.183738,8.10277029 247.608671,8.39362834 C248.033604,8.68448638 248.23536,9.20679016 248.116183,9.70746875 C247.493776,12.4375 232.145228,33.2765312 210.093361,33.2765312 C203.520747,33.2765312 196.904564,31.4482187 190.406639,27.835125 C186.23029,29.5639375 180.970954,34.626 179.165975,43.6369687 C179.109067,43.9745151 178.915439,44.273706 178.630705,44.4640625 C177.452003,45.2686885 176.078165,45.7412803 174.653527,45.8321875 Z" id="Shape" fill="#39B54A" fill-rule="nonzero"></path>
                <path d="M213.883817,7.31325 C215.97321,7.32927349 218.05669,7.53744352 220.107884,7.935125 C230.290456,9.80696875 236.80083,10.4599375 240.871369,10.4599375 C244.30083,10.4599375 246.049793,9.99975 246.896266,9.42140625 C246.448133,11.2870312 231.90249,32.0265625 210.087137,32.0265625 C204.068465,32.0265625 197.489627,30.447 190.5,26.4296875 C186.286307,27.984375 180.012448,33.1459375 177.958506,43.3944375 C176.980529,44.074792 175.840839,44.4865314 174.653527,44.5884375 C171.989627,44.5884375 172.356846,40.9069375 172.356846,40.9069375 C172.356846,40.9069375 179.695021,27.2256875 187.437759,24.5578438 L187.356846,24.5080938 C191.091286,17.8726875 199.182573,7.30703125 213.883817,7.31325 L213.883817,7.31325 Z M213.883817,4.82575 L213.883817,4.82575 C199.201245,4.82575 190.419087,14.352875 185.564315,22.6300313 C177.603734,26.1995937 170.925311,38.3137187 170.159751,39.7378125 C170.006567,40.0253738 169.911405,40.3401974 169.879668,40.6644062 C169.829876,41.1805625 169.649378,43.8421875 171.267635,45.6394062 C172.13175,46.5919761 173.367124,47.1229148 174.653527,47.0945937 C176.300499,46.9981864 177.890315,46.4565202 179.253112,45.5274687 C179.854204,45.1657037 180.274585,44.5672857 180.410788,43.8795 C182.352697,34.1658125 188.022822,30.4034687 190.369295,29.228125 C196.873444,32.7355 203.502075,34.5140625 210.093361,34.5140625 C222.298755,34.5140625 232.070539,28.432125 238.10166,23.3203125 C244.244813,18.1400937 248.844398,11.9586562 249.304979,9.974875 C249.543335,8.97351783 249.139823,7.92891027 248.289957,7.34719417 C247.440091,6.76547807 246.319425,6.76681712 245.470954,7.3505625 C245.43361,7.3505625 244.549793,7.9724375 240.858921,7.9724375 C236.334025,7.9724375 229.5,7.1266875 220.549793,5.4849375 C218.341168,5.07338819 216.099402,4.8652236 213.852697,4.8630625 L213.883817,4.82575 Z" id="Shape" fill="#000000" fill-rule="nonzero"></path>
                <path d="M162.39834,164.660062 C162.39834,164.660062 164.26556,181.450687 165.510373,185.181937 C166.13278,187.047562 167.377593,188.913187 164.26556,189.535062 C161.153527,190.156937 155.551867,192.644437 150.572614,191.400687 C145.593361,190.156937 152.439834,181.450687 159.908714,182.694437 C159.908714,178.963187 159.908714,169.635062 158.6639,167.769437 C159.664469,166.470966 160.939633,165.409237 162.39834,164.660062 Z" id="Shape" fill="#000000" fill-rule="nonzero"></path>
                <path d="M180.778008,164.660062 C180.778008,164.660062 178.910788,181.450687 177.665975,185.181937 C177.043568,187.047562 175.798755,188.913187 178.910788,189.535062 C182.022822,190.156937 187.624481,192.644437 192.603734,191.400687 C197.582988,190.156937 190.736515,181.450687 183.267635,182.694437 C183.267635,178.963187 183.267635,169.635062 184.512448,167.769437 C183.511879,166.470966 182.236716,165.409237 180.778008,164.660062 Z" id="Shape" fill="#000000" fill-rule="nonzero"></path>
                <path d="M190.518672,26.4607812 C219.304979,42.909375 241.120332,18.4199375 245.931535,11.19375 C244.55406,12.0753797 243.287705,13.119334 242.159751,14.303125 C233.446058,22.4185937 224.327801,28.1460625 211.879668,26.9023125 C207.298755,26.442125 197.159751,25.1859375 192.684647,24.1100937 C191.123693,23.7309606 189.53612,23.4710953 187.935685,23.33275 C186.410788,25.2667812 188.302905,22.8290312 187.363071,24.4956562 L187.443983,24.5454062 C179.707469,27.21325 172.363071,40.8945 172.363071,40.8945 C172.363071,40.8945 171.740664,47.11325 177.96473,43.382 C180.012448,33.1459375 186.286307,27.984375 190.518672,26.4607812 Z" id="Shape" fill="#009245" fill-rule="nonzero" opacity="0.3" style="mix-blend-mode: multiply;"></path>
                <path d="M174.53527,39.35225 C167.931535,37.76025 161.732365,41.217875 160.636929,42.13825 C152.439834,48.978875 151.188797,57.5296562 140.614108,78.828875 C133.605809,92.957875 131.682573,94.2265 127.543568,106.191375 C125.278008,112.745937 121.941909,122.758125 123.809129,135.4195 C124.53112,140.313656 126.921162,156.56325 141.024896,166.91125 C151.244813,174.435937 162.155602,174.746875 167.06639,174.921 C169.524896,174.995625 189.578838,174.921 202.487552,162.981 C230.863071,136.675687 214.058091,104.338187 191.029046,59.5631875 C187.624481,52.9402187 183.784232,41.5847812 174.53527,39.35225 Z" id="Shape" stroke="#000000" stroke-width="4" fill="#8BC440" fill-rule="nonzero"></path>
                <path d="M174.435685,44.9802187 C172.910788,44.9802187 170.900415,43.8919375 170.377593,43.0399687 L169.979253,42.3807812 L170.390041,41.7589062 C172.543568,38.3634687 174.049793,21.0069375 173.502075,18.9485312 L173.502075,18.8739062 L173.502075,18.8179375 C173.131569,17.2177718 173.534922,15.53665 174.591286,14.27825 C176.29668,12.1452187 179.502075,10.99475 181.643154,10.99475 C183.510373,10.99475 184.226141,11.8529375 184.46888,12.3690937 C184.761411,12.9909687 184.86722,14.004625 183.73444,15.3914062 C180.908714,18.8428125 177.572614,37.0575312 176.526971,43.78 L176.43361,44.401875 L175.879668,44.6941562 C175.452723,44.9138721 174.978117,45.0249461 174.497925,45.0175312 L174.435685,44.9802187 Z" id="Shape" fill="#D6B343" fill-rule="nonzero"></path>
                <path d="M181.580913,12.2074062 C183.161826,12.2074062 184.033195,12.9536562 182.713693,14.5705312 C179.053942,19.0418125 175.244813,43.556125 175.244813,43.556125 C174.997967,43.6803117 174.724445,43.7422286 174.448133,43.7364687 C173.321205,43.6622001 172.258605,43.1854317 171.454357,42.3932187 C173.875519,38.581125 175.33195,20.3788437 174.659751,18.5132187 C173.763485,14.5332187 178.792531,12.2074062 181.587137,12.2074062 L181.580913,12.2074062 Z M181.587137,9.71990625 C179.09751,9.71990625 175.537344,11.0071875 173.564315,13.4511562 C172.264135,15.0036944 171.770744,17.0769337 172.232365,19.0480312 L172.263485,19.1972812 L172.263485,19.2408125 C172.394191,20.1300937 172.319502,24.2966562 171.672199,29.9059687 C170.950207,36.1993437 169.973029,40.0425312 169.33195,41.0561875 L168.504149,42.3559062 L169.294606,43.6805 C170.103734,45.0113125 172.543568,46.21775 174.417012,46.21775 C175.09899,46.2258007 175.77242,46.0655971 176.377593,45.7513437 L177.479253,45.1667812 L177.672199,43.9230312 C179.253112,34.0352187 182.414938,18.8614687 184.636929,16.16875 C186.261411,14.17875 185.881743,12.5929687 185.533195,11.815625 C185.184647,11.0382812 184.157676,9.73234375 181.580913,9.73234375 L181.587137,9.71990625 Z" id="Shape" fill="#000000" fill-rule="nonzero"></path>
                <path d="M191.078838,160.680063 C178.549793,162.956125 164.80083,162.272063 154.251037,155.145375 C139.885892,145.437906 135,126.147344 136.46888,108.884094 C137.26556,99.5559687 139.580913,90.3895312 142.070539,81.366125 C143.004149,77.9893437 149.408714,62.6228125 150.286307,58.0147187 C148.904564,61.0619062 142.524896,75.047875 140.639004,78.8475312 C133.630705,92.9765312 131.707469,94.2451562 127.568465,106.210031 C125.302905,112.764594 121.966805,122.776781 123.834025,135.438156 C124.556017,140.332313 126.946058,156.581906 141.049793,166.929906 C151.244813,174.435938 162.155602,174.746875 167.06639,174.921 C169.524896,174.995625 189.578838,174.921 202.487552,162.981 C203.477178,162.060625 204.410788,161.115375 205.288382,160.201219 C200.987552,158.733594 195.746888,159.821875 191.078838,160.680063 Z" id="Shape" fill="#D6B343" fill-rule="nonzero" opacity="0.8" style="mix-blend-mode: overlay;"></path>
                <path d="M396.809129,163.304375 C391.86722,163.304375 387.821577,158.646531 387.385892,152.471312 L382.26971,79.2641875 C381.821577,72.8402187 385.493776,67.5294062 390.628631,67.1749375 L412.114108,65.6762187 C412.904564,65.62025 413.688797,65.595375 414.460581,65.595375 C430.612033,65.595375 441.908714,77.9209375 443.240664,97.0000625 L443.240664,97.2674687 C443.975104,107.752281 441.529046,116.688625 436.1639,123.112594 C431.184647,129.057719 423.784232,132.658375 415.26971,133.249156 L404.483402,134.001625 L405.684647,151.196469 C405.93746,154.069717 405.235248,156.946105 403.686722,159.380344 C402.304596,161.612758 399.949161,163.062615 397.33195,163.291937 C397.174274,163.300229 397,163.304375 396.809129,163.304375 Z M403.033195,113.349156 L414.354772,112.559375 C421.201245,112.080531 425.302905,106.738625 424.761411,98.95275 L424.761411,98.6853437 C424.219917,90.918125 420.192946,86.639625 413.43361,86.639625 C413.053942,86.639625 412.655602,86.639625 412.257261,86.6831562 L401.26556,87.4480625 L403.033195,113.349156 Z M263.278008,163.136469 L262.873444,163.136469 C259.307054,162.93125 256.512448,160.835531 254.327801,156.724937 L240.634855,131.228062 L229.917012,130.606187 L228.834025,149.672875 C228.479253,155.891625 224.446058,160.624094 219.454357,160.624094 L219.018672,160.624094 C213.877593,160.331812 210.136929,155.07075 210.504149,148.640562 L214.73029,75.3836875 C215.085062,69.1649375 219.118257,64.4324687 224.109959,64.4324687 L224.545643,64.4324687 L249.547718,65.8565625 C258.883817,66.3851562 266.302905,70.247 270.958506,77.013 C274.860996,82.6845 276.653527,90.4144062 276.143154,99.4005 L276.143154,99.6679062 C275.377593,113.08175 270.018672,122.677281 260.582988,127.590094 L269.956432,144.275 C271.282158,146.7625 272.446058,149.25 272.240664,152.9315 C271.860996,159.566906 267.342324,163.136469 263.278008,163.136469 Z M245.919087,110.936281 C246.205394,110.936281 246.487552,110.936281 246.76556,110.936281 C253.082988,110.936281 257.091286,106.71375 257.495851,99.6305937 L257.495851,99.3631875 C257.719917,95.4018437 256.873444,92.2986875 255.006224,90.1345625 C253.139004,87.9704375 250.5,86.8945937 246.952282,86.6955937 L232.450207,85.8685 L231.118257,110.071875 L245.919087,110.936281 Z M89.3278008,162.93125 C84.4979253,162.93125 80.4087137,158.385344 79.8236515,152.359375 L72.7593361,80.0975 C72.1369295,73.6921875 75.653527,68.281875 80.7821577,67.7781562 L120.578838,63.8976562 C120.79668,63.8976562 121.020747,63.8665625 121.238589,63.8665625 C125.595436,63.8665625 129.379668,68.0766562 129.908714,73.455875 C130.203675,76.0328223 129.625107,78.6341571 128.26556,80.84375 C127.050505,82.8822715 124.954207,84.2387583 122.595436,84.5128125 L91.8298755,87.5164687 L93.4232365,103.82825 L119.564315,101.278562 C119.782158,101.278562 120.006224,101.247469 120.224066,101.247469 C124.580913,101.247469 128.365145,105.457562 128.894191,110.836781 C129.187728,113.411676 128.609212,116.010586 127.251037,118.218437 C126.035982,120.256959 123.939684,121.613446 121.580913,121.8875 L95.439834,124.437187 L97.0954357,141.3895 L128.371369,138.336094 C128.589212,138.336094 128.813278,138.305 129.03112,138.305 C133.387967,138.305 137.172199,142.515094 137.701245,147.894312 C138.255187,153.540937 134.96888,158.466187 130.381743,158.938812 L90.0684647,162.869062 C89.8195021,162.893937 89.5705394,162.93125 89.3278008,162.93125 Z M340.238589,162.657625 C330.03112,162.657625 322.002075,158.994781 316.375519,151.774812 C310.661826,144.442906 307.767635,133.771531 307.767635,120.059187 L307.767635,76.3102812 C307.767635,69.873875 311.80083,64.8304687 316.948133,64.8304687 C322.095436,64.8304687 326.141079,69.873875 326.141079,76.3102812 L326.141079,119.518156 C326.141079,133.547656 331.226141,141.283781 340.456432,141.283781 C349.686722,141.283781 354.771784,133.821281 354.771784,120.196 L354.771784,76.3102812 C354.771784,69.873875 358.804979,64.8304687 363.952282,64.8304687 C369.099585,64.8304687 373.13278,69.873875 373.13278,76.3102812 L373.13278,119.4 C373.13278,133.417062 370.1639,144.275 364.313278,151.7375 C358.686722,158.857969 350.365145,162.63275 340.238589,162.63275 L340.238589,162.657625 Z M21.659751,161.967344 C16.5124481,161.967344 12.4481328,156.923937 12.4481328,150.49375 L12.4481328,77.1125 C12.4481328,70.6760937 16.4813278,65.6326875 21.6286307,65.6326875 L43.2012448,65.6326875 C60.7344398,65.6326875 72.0684647,78.7480312 72.0684647,99.0460312 L72.0684647,99.3134375 C72.0684647,119.934812 60.1307054,133.261594 41.6576763,133.261594 L30.840249,133.261594 L30.840249,150.49375 C30.840249,156.923937 26.8070539,161.967344 21.659751,161.967344 Z M42.1991701,112.553156 C49.0829876,112.553156 53.526971,107.50975 53.526971,99.7052187 L53.526971,99.4378125 C53.526971,91.1544375 49.3941909,86.589875 41.8879668,86.589875 L30.840249,86.589875 L30.840249,112.559375 L42.1991701,112.553156 Z" id="Shape" fill="#39B54A" fill-rule="nonzero"></path>
                <path d="M121.238589,65.1103125 C124.923237,65.1103125 128.20332,68.779375 128.670124,73.5740312 C129.161826,78.605 126.36722,82.9021562 122.446058,83.2628437 L90.4419087,86.3722187 L92.2780083,105.159062 L119.6639,102.485 C119.844398,102.485 120.024896,102.485 120.205394,102.485 C123.890041,102.485 127.170124,106.154062 127.636929,110.948719 C128.128631,115.979687 125.334025,120.276844 121.412863,120.637531 L94.026971,123.311594 L95.9253112,142.763844 L128.439834,139.592281 C128.620332,139.592281 128.80083,139.592281 128.981328,139.592281 C132.665975,139.592281 135.946058,143.261344 136.412863,148.056 C136.904564,153.08075 134.109959,157.384125 130.188797,157.744812 L89.8755187,161.675062 C89.6639004,161.675062 89.4564315,161.675062 89.253112,161.675062 C85.1016598,161.675062 81.5165975,157.645312 80.9875519,152.228781 L73.9979253,79.973125 C73.4439834,74.2829687 76.4875519,69.4447812 80.9004149,69.0156875 L120.697095,65.1351875 C120.877593,65.1351875 121.058091,65.1351875 121.238589,65.1351875 L121.238589,65.1103125 Z M224.078838,65.7073125 L224.446058,65.7073125 L249.448133,67.1314062 C258.603734,67.6537812 265.518672,71.3725937 269.900415,77.7468125 C273.634855,83.1509062 275.365145,90.5760937 274.879668,99.3320937 L274.879668,99.5995 C274.045643,114.201125 267.877593,122.901156 258.865145,127.049062 L268.879668,144.896875 C270.280083,147.50875 271.188797,149.691531 271.008299,152.875531 C270.690871,158.416437 266.993776,161.880281 263.29668,161.880281 L262.960581,161.880281 C259.356846,161.675062 257.122407,159.287062 255.441909,156.127937 L241.443983,130.009187 L228.790456,129.287812 L227.63278,149.592031 C227.315353,155.139156 223.761411,159.374125 219.497925,159.374125 L219.130705,159.374125 C214.705394,159.125375 211.462656,154.399125 211.786307,148.70275 L215.956432,75.4396562 C216.273859,69.8925312 219.834025,65.6575625 224.091286,65.6575625 L224.078838,65.7073125 Z M246.784232,112.18625 C253.960581,112.18625 258.329876,107.21125 258.753112,99.7114375 L258.753112,99.4440312 C259.251037,90.6818125 254.775934,85.8995937 247.058091,85.4642812 L231.317427,84.575 L229.798755,111.253437 L245.850622,112.180031 C246.161826,112.180031 246.46888,112.180031 246.771784,112.180031 L246.784232,112.18625 Z M363.939834,66.0493437 C368.371369,66.0493437 371.875519,70.570375 371.875519,76.2854062 L371.875519,119.4 C371.875519,147.583375 359.607884,161.407656 340.232365,161.407656 C320.856846,161.407656 309.006224,147.434125 309.006224,120.021875 L309.006224,76.3102812 C309.006224,70.59525 312.510373,66.0742187 316.941909,66.0742187 C321.373444,66.0742187 324.896266,70.5890312 324.896266,76.3102812 L324.896266,119.518156 C324.896266,134.67325 330.771784,142.527531 340.456432,142.527531 C350.141079,142.527531 356.016598,134.946875 356.016598,120.196 L356.016598,76.3102812 C356.016598,70.59525 359.520747,66.0742187 363.952282,66.0742187 L363.939834,66.0493437 Z M414.473029,66.839125 C430.369295,66.839125 440.744813,78.9719062 442.008299,97.087125 L442.008299,97.3545312 C443.508299,118.840312 431.334025,130.879812 415.195021,132.011625 L403.1639,132.851156 L404.452282,151.283531 C404.850622,156.986125 401.670124,161.73725 397.251037,162.048187 L396.802905,162.048187 C392.576763,162.048187 389.010373,157.881625 388.624481,152.371812 L383.508299,79.1646875 C383.109959,73.4620937 386.290456,68.7109687 390.709544,68.4000312 L412.195021,66.9013125 C412.958506,66.8474167 413.711618,66.8204687 414.454357,66.8204687 L414.473029,66.839125 Z M401.894191,114.661312 L414.441909,113.803125 C422.358921,113.249656 426.560166,106.825687 426,98.878125 L426,98.6107187 C425.377593,89.9542187 420.641079,85.4083125 413.427386,85.4083125 C413.012448,85.4083125 412.59751,85.4228229 412.182573,85.4518437 L399.946058,86.3038125 L401.931535,114.686187 L401.894191,114.661312 Z M43.2012448,66.8702187 C60.4107884,66.8702187 70.8236515,80.0290937 70.8236515,99.0398125 L70.8236515,99.3072187 C70.8236515,120.84275 57.840249,132.011625 41.6576763,132.011625 L29.5954357,132.011625 L29.5954357,150.49375 C29.5954357,156.208781 26.0912863,160.729812 21.659751,160.729812 C17.2282158,160.729812 13.6929461,156.202562 13.6929461,150.49375 L13.6929461,77.1125 C13.6929461,71.3974687 17.1970954,66.8764375 21.6286307,66.8764375 L43.2012448,66.8764375 L43.2012448,66.8702187 Z M29.5954357,113.803125 L42.1680498,113.803125 C50.1037344,113.803125 54.7717842,107.683875 54.7717842,99.7052187 L54.7717842,99.4378125 C54.7717842,90.2651562 49.8236515,85.346125 41.8879668,85.346125 L29.5954357,85.346125 L29.5954357,113.803125 L29.5954357,113.803125 Z M121.238589,62.6228125 C120.977178,62.6228125 120.715768,62.6228125 120.454357,62.660125 L80.6639004,66.540625 C74.8443983,67.1065312 70.8298755,73.1138437 71.526971,80.221875 L72.4605809,89.7863125 C71.2780083,83.6981562 68.8879668,78.4184375 65.3775934,74.2394375 C59.9688797,67.784375 52.2821577,64.3827187 43.2012448,64.3827187 L21.659751,64.3827187 C15.8153527,64.3827187 11.2344398,69.9795937 11.2344398,77.1062812 L11.2344398,150.49375 C11.2344398,157.626656 15.8153527,163.217312 21.659751,163.217312 C27.5041494,163.217312 32.0850622,157.620437 32.0850622,150.49375 L32.0850622,134.499125 L41.6514523,134.499125 C50.526971,134.499125 58.5,131.29025 64.1016598,125.457062 C70.126556,119.188562 73.313278,110.1465 73.313278,99.3072187 L73.313278,99.0398125 C73.313278,98.85325 73.313278,98.6604687 73.313278,98.4739062 L78.5850622,152.452656 C79.2074689,159.119156 83.8568465,164.143906 89.3278008,164.143906 C89.6141079,164.143906 89.906639,164.143906 90.1991701,164.100375 L130.512448,160.170125 C133.244659,159.847017 135.676964,158.288003 137.109959,155.941375 C138.630005,153.50307 139.287483,150.625774 138.977178,147.769937 C138.354772,141.663125 134.122407,137.06125 129.068465,137.06125 C128.807054,137.06125 128.545643,137.06125 128.284232,137.098562 L98.246888,140.027594 L96.8278008,125.531687 L121.724066,123.100156 C127.082988,122.577781 130.786307,117.130156 130.157676,110.69375 C129.53527,104.586937 125.302905,99.9850625 120.248963,99.9850625 C119.987552,99.9850625 119.726141,99.9850625 119.46473,100.022375 L94.5684647,102.453906 L93.2178423,88.6171875 L122.744813,85.7379062 C125.477346,85.4156954 127.910012,83.8564503 129.342324,81.5091562 C130.86237,79.0708509 131.519849,76.1935556 131.209544,73.3377187 C130.587137,67.2309062 126.354772,62.6290312 121.30083,62.6290312 L121.238589,62.6228125 Z M32.0850622,87.833625 L41.8568465,87.833625 C46.5995851,87.833625 52.2510373,89.8485 52.2510373,99.4378125 L52.2510373,99.7052187 C52.2510373,105.059562 49.6120332,111.309406 42.1680498,111.309406 L32.0850622,111.309406 L32.0850622,87.833625 Z M224.06639,63.1887187 L224.06639,63.1887187 C218.40249,63.1887187 213.834025,68.4000312 213.441909,75.3152812 L209.271784,148.578375 C208.86722,155.698844 213.118257,161.544469 218.956432,161.874062 L219.466805,161.874062 C225.130705,161.874062 229.69917,156.66275 230.091286,149.7475 L231.105809,131.924562 L239.881743,132.422062 L253.219917,157.297062 C255.622407,161.818094 258.753112,164.137687 262.792531,164.361562 L263.26556,164.361562 C267.896266,164.361562 273.043568,160.381562 273.466805,153.006125 C273.697095,149.007469 272.452282,146.327187 271.051867,143.715312 L271.051867,143.715312 L271.051867,143.715312 L262.282158,128.081375 C273.709544,121.501937 276.815353,109.20125 277.350622,99.7425312 L277.350622,99.475125 C277.873444,90.2402812 276.012448,82.23675 271.954357,76.341375 C267.074689,69.2457812 259.338174,65.2035937 249.591286,64.650125 L224.589212,63.2260312 L224.078838,63.2260312 L224.06639,63.1887187 Z M232.412863,108.921406 L233.657676,87.21175 L246.914938,87.9642187 C253.524896,88.3373437 256.674274,92.161875 256.251037,99.3196562 L256.251037,99.5870625 C255.883817,106.023469 252.429461,109.717406 246.76556,109.717406 C246.510373,109.717406 246.248963,109.717406 245.987552,109.717406 L232.419087,108.946281 L232.412863,108.921406 Z M363.927386,63.5805 C358.082988,63.5805 353.502075,69.177375 353.502075,76.3040625 L353.502075,120.177344 C353.502075,126.794094 352.257261,132.067594 349.817427,135.431937 C347.63278,138.479125 344.470954,140.027594 340.425311,140.027594 C329.047718,140.027594 327.354772,127.179656 327.354772,119.505719 L327.354772,76.3102812 C327.354772,69.177375 322.773859,63.5867187 316.929461,63.5867187 C311.085062,63.5867187 306.504149,69.1835937 306.504149,76.3102812 L306.504149,120.021875 C306.504149,134.007844 309.491701,144.934187 315.379668,152.489969 C321.16805,159.952469 329.763485,163.851625 340.226141,163.851625 C350.688797,163.851625 359.414938,159.915156 365.271784,152.465094 C371.302905,144.797375 374.358921,133.659594 374.358921,119.356469 L374.358921,76.3102812 C374.358921,69.177375 369.778008,63.5867187 363.93361,63.5867187 L363.927386,63.5805 Z M414.448133,64.3454062 L414.448133,64.3454062 C413.651452,64.3454062 412.829876,64.3454062 412.014523,64.4324687 L390.541494,65.91875 C387.537962,66.1693726 384.829217,67.8222778 383.23444,70.3775937 C381.53104,73.0403473 380.754392,76.19019 381.024896,79.3388125 L386.141079,152.545937 C386.620332,159.386562 391.201245,164.535687 396.802905,164.535687 C397.008299,164.535687 397.219917,164.535687 397.425311,164.535687 C400.428843,164.285065 403.137588,162.63216 404.732365,160.076844 C406.435765,157.41409 407.212413,154.264248 406.941909,151.115625 L405.809129,135.158312 L415.356846,134.492906 C424.207469,133.871031 431.937759,130.139781 437.141079,123.921031 C442.742739,117.248312 445.232365,108.001031 444.504149,97.1804062 L444.504149,96.913 C443.09751,77.1125 431.327801,64.351625 414.460581,64.351625 L414.448133,64.3454062 Z M402.560166,88.5985312 L412.313278,87.9206875 C412.680498,87.9206875 413.047718,87.883375 413.40249,87.883375 C421.107884,87.883375 423.143154,93.803625 423.491701,98.7724062 L423.491701,99.0398125 C423.728216,102.410375 422.975104,105.457562 421.369295,107.634125 C419.676308,109.862248 417.071858,111.213579 414.273859,111.315625 L404.215768,112.018344 L402.578838,88.5985312 L402.560166,88.5985312 Z" id="Shape" fill="#000000" fill-rule="nonzero"></path>
                <path d="M219.087137,159.392781 C223.512448,159.641531 227.26556,155.331937 227.589212,149.623125 L228.746888,129.318906 L241.400415,130.040281 L255.39834,156.159031 C257.078838,159.318156 259.313278,161.706156 262.917012,161.911375 C266.726141,162.129031 270.641079,158.621656 270.96473,152.912844 C271.145228,149.728844 270.236515,147.546062 268.8361,144.934187 L258.809129,127.055281 C265.406639,124.020531 270.466805,118.529375 273.043568,110.084312 C258.360996,106.887875 243.261411,113.896406 230.645228,122.192219 C224.607884,126.159781 218.688797,130.512906 212.564315,134.387187 L211.748963,148.740062 C211.443983,154.430219 214.686722,159.137812 219.087137,159.392781 Z" id="Shape" fill="#8BC440" fill-rule="nonzero"></path>
                <path d="M427.941909,128.342562 C423.012329,126.529367 418.226922,124.346591 413.626556,121.812875 C409.686722,119.574125 405.914938,116.924937 401.981328,114.679969 L401.925311,114.679969 L401.925311,114.642656 C398.772924,112.752735 395.358506,111.338261 391.792531,110.445 C389.784946,109.989494 387.73297,109.757983 385.674274,109.754719 L388.624481,152.359375 C389.022822,158.061969 392.83195,162.309375 397.257261,162.017094 C401.682573,161.724812 404.856846,156.955031 404.458506,151.252437 L403.170124,132.820062 L415.201245,131.980531 C419.665004,131.723388 424.016236,130.480938 427.941909,128.342562 L427.941909,128.342562 Z" id="Shape" fill="#8BC440" fill-rule="nonzero"></path>
                <path d="M128.495851,139.573625 L95.9813278,142.745187 L94.0829876,123.292937 L110.657676,121.676062 C99.840249,116.545594 88.7551867,112.236 77.0477178,110.886531 L81.0871369,152.210125 C81.6410788,157.900281 85.5684647,162.060625 89.9813278,161.625312 L130.294606,157.695062 C134.190871,157.315719 136.985477,153.037219 136.518672,148.00625 C136.051867,142.975281 132.392116,139.194281 128.495851,139.573625 Z" id="Shape" fill="#8BC440" fill-rule="nonzero"></path>
                <path d="M29.5954357,150.49375 L29.5954357,132.011625 L41.6514523,132.011625 C54.7593361,132.011625 65.7634855,124.679719 69.4792531,110.451219 C61.8423237,110.420125 54.2489627,111.576812 46.6929461,113.032 C45.4895546,113.474628 44.2265643,113.734557 42.9460581,113.803125 C39.9585062,114.425 36.9709544,115.046875 33.9958506,115.66875 C27.3029725,117.090039 20.5187761,118.041759 13.6929461,118.516937 L13.6929461,150.49375 C13.6929461,156.208781 17.1970954,160.729813 21.6286307,160.729813 C26.060166,160.729813 29.5954357,156.202563 29.5954357,150.49375 Z" id="Shape" fill="#8BC440" fill-rule="nonzero"></path>
                <path d="M371.875519,119.4 L371.875519,112.640219 C366.529046,114.735937 361.294606,117.733375 355.997925,120.805437 C355.829876,135.145875 349.991701,142.515094 340.437759,142.515094 C334.288382,142.515094 329.682573,139.34975 327.130705,133.186969 C324.75052,133.480485 322.34416,133.495095 319.960581,133.2305 C316.377279,132.78524 312.887643,131.77346 309.622407,130.233062 C312.280083,150.89175 323.421162,161.407656 340.232365,161.407656 C359.614108,161.389 371.875519,147.564719 371.875519,119.4 Z" id="Shape" fill="#8BC440" fill-rule="nonzero"></path>
                <path d="M166.804979,41.04375 C167.73454,41.7942498 168.735125,42.4524052 169.792531,43.008875 C170.777869,43.5431107 171.82229,43.9605223 172.904564,44.252625 C173.172199,44.3334687 173.452282,44.3645625 173.719917,44.42675 C173.856846,44.42675 173.993776,44.4951562 174.130705,44.5200312 L174.547718,44.5697812 C174.827801,44.6070937 175.107884,44.6568437 175.387967,44.6817187 C175.66805,44.7065937 175.960581,44.7128125 176.246888,44.7376875 C176.538388,44.7677371 176.831583,44.7781252 177.124481,44.7687812 C177.417012,44.7687812 177.746888,44.7687812 178.020747,44.7687812 C178.643154,44.7687812 179.228216,44.72525 179.887967,44.7687812 C179.350992,45.1107629 178.786862,45.408186 178.201245,45.6580625 C177.90249,45.7637812 177.578838,45.8570625 177.286307,45.9503437 C176.981005,46.0537754 176.666185,46.1266846 176.346473,46.168 C176.029046,46.21775 175.724066,46.2612812 175.381743,46.292375 C175.039419,46.3234687 174.759336,46.292375 174.39834,46.292375 C173.726408,46.2743928 173.058493,46.1826329 172.406639,46.01875 C171.119348,45.6874894 169.924975,45.0663503 168.914938,44.202875 C167.925214,43.3717707 167.193266,42.2758641 166.804979,41.04375 L166.804979,41.04375 Z" id="Shape" fill="#000000" fill-rule="nonzero"></path>
                <path d="M190.574689,23.3016562 C191.338307,21.305917 192.515485,19.493975 194.029046,17.984625 C195.567582,16.4543311 197.378741,15.2247234 199.369295,14.3590937 C201.362267,13.4803014 203.481817,12.9220074 205.649378,12.7049062 C207.786821,12.4994152 209.938136,12.4806879 212.078838,12.6489375 C214.201245,12.8168437 216.286307,13.0780312 218.358921,13.333 C220.431535,13.5879687 222.485477,13.8242812 224.539419,13.954875 C228.634855,14.1600937 232.811203,13.7931875 236.651452,12.014625 C235.781482,12.6189092 234.858643,13.1434166 233.894191,13.58175 C232.913042,14.0040143 231.901987,14.3532163 230.869295,14.6265 C229.829613,14.8805897 228.775946,15.0737007 227.713693,15.2048437 C226.649378,15.3354375 225.585062,15.3789687 224.514523,15.4100625 C220.232365,15.4909062 216.056017,14.7881875 211.941909,14.527 C207.827801,14.2658125 203.713693,14.3093437 199.917012,15.7272187 C196.029573,17.1137906 192.733256,19.7863317 190.574689,23.3016562 L190.574689,23.3016562 Z" id="Shape" fill="#000000" fill-rule="nonzero"></path>
                <path d="M202.904564,14.1911875 C204.051941,13.9322767 205.242665,13.9322767 206.390041,14.1911875 C208.728136,14.7025691 210.809576,16.0243884 212.26556,17.9224375 C212.990125,18.8473353 213.498391,19.9224941 213.753112,21.069125 C213.08045,20.1835982 212.339609,19.3519036 211.537344,18.581625 C209.964623,17.0933304 208.122706,15.9177897 206.109959,15.1177812 C205.067569,14.7250997 203.995774,14.4152722 202.904564,14.1911875 L202.904564,14.1911875 Z" id="Shape" fill="#000000" fill-rule="nonzero"></path>
                <path d="M209.887967,13.1215625 C210.441909,12.8728125 210.921162,12.661375 211.375519,12.412625 C211.805099,12.1776888 212.22073,11.9181415 212.620332,11.6352812 C213.029643,11.3510858 213.422397,11.0437951 213.79668,10.7149062 C214.188797,10.3790937 214.556017,10.0059687 214.985477,9.576875 C215.024597,10.1867629 214.876975,10.7940996 214.562241,11.318125 C213.937315,12.3937327 212.86476,13.1347593 211.636929,13.3392188 C211.045234,13.4413538 210.436508,13.3655986 209.887967,13.1215625 L209.887967,13.1215625 Z" id="Shape" fill="#000000" fill-rule="nonzero"></path>
                <path d="M222.641079,15.1302187 C223.295658,15.0266047 223.965512,15.0798914 224.595436,15.2856875 C225.86762,15.6853305 226.958361,16.5197497 227.676349,17.6425938 C228.04125,18.2028748 228.265438,18.8428652 228.329876,19.5082188 C227.813278,19.0853438 227.377593,18.6749063 226.929461,18.2644688 C226.481328,17.8540313 226.039419,17.5182188 225.585062,17.1699688 C225.130705,16.8217188 224.688797,16.4983437 224.184647,16.16875 C223.680498,15.8391562 223.188797,15.546875 222.641079,15.1302187 Z" id="Shape" fill="#000000" fill-rule="nonzero"></path>
                <path d="M179.551867,12.5929687 C177.616657,12.925267 175.898807,14.026893 174.790456,15.646375 C174.331569,16.2515982 174.110182,17.0036698 174.16805,17.76075 C174.360996,19.0355937 175.792531,19.8005 177.087137,19.7694062 C178.59241,19.6663518 179.997568,18.9788811 181.002075,17.8540312 C181.991001,16.7392505 182.805216,15.4812307 183.417012,14.1227812 C183.70332,13.5444375 183.952282,12.7795312 183.497925,12.3255625 C183.199815,12.0907056 182.824744,11.9753979 182.446058,12.0021875 C180.983667,11.9482735 179.520226,12.0756929 178.089212,12.3815312" id="Shape" fill="#FFFFFF" fill-rule="nonzero" opacity="0.7" style="mix-blend-mode: overlay;"></path>
                <ellipse id="Oval" fill="#FFFFFF" fill-rule="nonzero" cx="21.6659751" cy="72.5479375" rx="1.4813278" ry="1.4800625"></ellipse>
                <ellipse id="Oval" fill="#FFFFFF" fill-rule="nonzero" cx="28.9543568" cy="77.809" rx="2.2033195" ry="2.2014375"></ellipse>
                <ellipse id="Oval" fill="#FFFFFF" fill-rule="nonzero" transform="translate(81.339286, 89.297912) rotate(-48.060000) translate(-81.339286, -89.297912) " cx="81.3392857" cy="89.2979124" rx="1.4813278" ry="1.4800625"></ellipse>
                <ellipse id="Oval" fill="#FFFFFF" fill-rule="nonzero" transform="translate(83.242761, 98.079387) rotate(-48.060000) translate(-83.242761, -98.079387) " cx="83.2427611" cy="98.0793871" rx="2.2033195" ry="2.2014375"></ellipse>
                <ellipse id="Oval" fill="#FFFFFF" fill-rule="nonzero" transform="translate(81.960667, 89.301740) rotate(-48.060000) translate(-81.960667, -89.301740) " cx="81.9606666" cy="89.30174" rx="1.4813278" ry="1.4800625"></ellipse>
                <ellipse id="Oval" fill="#FFFFFF" fill-rule="nonzero" transform="translate(83.864142, 98.076996) rotate(-48.060000) translate(-83.864142, -98.076996) " cx="83.864142" cy="98.076996" rx="2.2033195" ry="2.2014375"></ellipse>
                <ellipse id="Oval" fill="#FFFFFF" fill-rule="nonzero" transform="translate(217.105353, 145.596469) rotate(-32.840000) translate(-217.105353, -145.596469) " cx="217.105353" cy="145.596469" rx="1.4813278" ry="1.4800625"></ellipse>
                <ellipse id="Oval" fill="#FFFFFF" fill-rule="nonzero" transform="translate(217.580390, 136.625263) rotate(-32.840000) translate(-217.580390, -136.625263) " cx="217.58039" cy="136.625263" rx="2.2033195" ry="2.2014375"></ellipse>
                <ellipse id="Oval" fill="#FFFFFF" fill-rule="nonzero" transform="translate(361.153895, 76.814598) rotate(-40.760000) translate(-361.153895, -76.814598) " cx="361.153895" cy="76.8145975" rx="1.4813278" ry="1.4800625"></ellipse>
                <ellipse id="Oval" fill="#FFFFFF" fill-rule="nonzero" transform="translate(361.922165, 85.763462) rotate(-40.760000) translate(-361.922165, -85.763462) " cx="361.922165" cy="85.7634624" rx="2.2033195" ry="2.2014375"></ellipse>
                <ellipse id="Oval" fill="#FFFFFF" fill-rule="nonzero" transform="translate(414.694839, 125.758973) rotate(-40.200000) translate(-414.694839, -125.758973) " cx="414.694839" cy="125.758973" rx="1.4813278" ry="1.4800625"></ellipse>
                <ellipse id="Oval" fill="#FFFFFF" fill-rule="nonzero" transform="translate(405.728264, 126.443795) rotate(-40.200000) translate(-405.728264, -126.443795) " cx="405.728264" cy="126.443795" rx="2.2033195" ry="2.2014375"></ellipse>
                <path d="M71.5020747,75.86875 C72.9889225,78.4582246 75.3944924,80.3956842 78.2427386,81.2977187" id="Shape" stroke="#000000" stroke-width="5" stroke-linecap="round"></path>
                <path d="M72.2925311,74.1088437 C74.5829876,75.7132812 77.8195021,77.8400937 80.5580913,77.7903437" id="Shape" stroke="#000000" stroke-width="5" stroke-linecap="round"></path>
                <path d="M73.5497925,71.764375 C75.4221421,73.5348367 77.9986333,74.3586096 80.5518672,74.003125" id="Shape" stroke="#000000" stroke-width="5" stroke-linecap="round"></path>
                <path d="M74.3651452,70.446 C75.5352697,71.9509375 79.0207469,70.1910312 80.8008299,70.446" id="Shape" stroke="#000000" stroke-width="5" stroke-linecap="round"></path>
                <path d="M269.881743,75.86875 C268.394895,78.4582246 265.989325,80.3956842 263.141079,81.2977187" id="Shape" stroke="#000000" stroke-width="5" stroke-linecap="round"></path>
                <path d="M269.091286,74.1088437 C266.80083,75.7132812 263.564315,77.8400937 260.825726,77.7903437" id="Shape" stroke="#000000" stroke-width="5" stroke-linecap="round"></path>
                <path d="M267.834025,71.764375 C265.961675,73.5348367 263.385184,74.3586096 260.83195,74.003125" id="Shape" stroke="#000000" stroke-width="5" stroke-linecap="round"></path>
                <path d="M267.012448,70.446 C265.842324,71.9509375 262.356846,70.1910312 260.576763,70.446" id="Shape" stroke="#000000" stroke-width="5" stroke-linecap="round"></path>
            </g>
        </g>
    </g>
</svg>