<?xml version="1.0" encoding="utf-8"?>
<!-- Generator: Adobe Illustrator 18.0.0, SVG Export Plug-In . SVG Version: 6.00 Build 0)  -->
<!DOCTYPE svg PUBLIC "-//W3C//DTD SVG 1.1//EN" "http://www.w3.org/Graphics/SVG/1.1/DTD/svg11.dtd">
<svg version="1.1" id="Layer_1" xmlns="http://www.w3.org/2000/svg" xmlns:xlink="http://www.w3.org/1999/xlink" x="0px" y="0px"
	 viewBox="0 292.4 528.2 115.2" enable-background="new 0 292.4 528.2 115.2" xml:space="preserve">
<g>
	<path fill="#E70020" d="M89.6,407.6l-4.8-16.2H44.4l-4.8,16.2h-38l42.1-115.2h43.1l42,115.2H89.6z M52.1,365.6h25l-12-41h-0.6
		L52.1,365.6z"/>
	<path fill="#E70020" d="M251.4,349.9c0,39.4-21.1,57.5-60.4,57.5h-50v-115h49.8C230.2,292.4,251.4,310.7,251.4,349.9z M178,379.9
		h12.2c16.2,0,23.2-9.1,23.2-25v-10.1c0-15.7-7-25-23.2-25H178V379.9z"/>
	<path fill="#E70020" d="M339.7,407.6l-4.8-16.2h-40.4l-4.8,16.2h-37.8l41.8-115.2h43.1l42,115.2H339.7z M302.2,365.6h25l-12-41
		h-0.6L302.2,365.6z"/>
	<path fill="#E70020" d="M491.5,407.6v-41.5c0-17.5,2.7-36.5,2.7-36.5h-0.6l-21.3,78h-29l-21.5-77.9h-0.5c0,0,3,18.9,3,36.4v41.5
		h-34V292.4h52.2l17.5,66.5h0.6l17.1-66.5h50.3v115.2H491.5z"/>
</g>
<g>
	<path fill="#E70020" d="M108.5,747.2c0,16.7-8.8,23.7-19.2,26.8v0.6c11.9,2.7,21.9,10.4,21.9,28.8s-14.9,30.6-33.5,30.6H0V718.9
		h76.7C94,718.9,108.5,730.6,108.5,747.2z M37,763.8h25.5c4.8,0,8.5-4,8.5-9v-1.6c0-4.8-3.8-8.8-8.5-8.8H37V763.8z M37,807.3h28.2
		c4.8,0,8.5-3.8,8.5-9v-1.6c0-5-3.7-9-8.5-9H37V807.3z"/>
	<path fill="#E70020" d="M204.6,834.1l-4.8-16.2h-40.4l-4.8,16.2h-38l42-115.2h43.1l42,115.2H204.6z M167.1,792.1h25l-12-41h-0.6
		L167.1,792.1z"/>
	<path fill="#E70020" d="M309.4,836.2c-36.2,0-57.4-16.5-57.4-48.4v-68.7h37v68.3c0,12.3,6.7,21.3,20.2,21.3
		c13.5,0,20.3-8.8,20.3-21.3v-68.3h37v68.7C366.6,819.5,345.4,836.2,309.4,836.2z"/>
	<path fill="#E70020" d="M490.3,834.1v-41.5c0-17.5,2.7-36.5,2.7-36.5h-0.6l-21.3,78h-29l-21.5-77.9h-0.6c0,0,3,18.9,3,36.4v41.5
		h-34V718.9h52.2l17.5,66.5h0.6l17.3-66.5h50.3v115.2H490.3z"/>
	<path fill="#E70020" d="M664.2,760.5H629c0-9.9-10.1-16-21.8-16c-17.6,0-26.4,9.9-26.4,26.6v10.7c0,16.7,8.8,26.6,26.4,26.6
		c11.7,0,21.8-6.1,21.8-15.2h-26.1v-23.4h61.4v64.2h-19.1l-3.7-11.4c-10.4,8.8-23.6,13.5-41.2,13.5c-38.3,0-57.4-20.2-57.4-59.6
		c0-39.4,22.9-59.6,62.8-59.6C638,717,664.2,731.7,664.2,760.5z"/>
	<path fill="#E70020" d="M764.4,834.1l-4.8-16.2h-40.4l-4.8,16.2h-37.8l42-115.2h43.1l42,115.2H764.4z M726.9,792.1h25l-12-41h-0.6
		L726.9,792.1z"/>
	<path fill="#E70020" d="M904.4,785.9l25.6,48.2h-41.5l-20.3-42h-13.8v42h-37V718.9h70.5c25.6,0,38.8,16.5,38.8,35.2
		C926.7,767.6,919.3,780.4,904.4,785.9z M878.8,745.2h-24.2v21.3h24.2c5.8,0,10.4-4.5,10.4-10.7C889,749.5,884.4,745.2,878.8,745.2z
		"/>
	<path fill="#E70020" d="M1012.4,748.4v85.7h-37v-85.7h-37.8v-29.5H1050v29.5H1012.4z"/>
	<path fill="#E70020" d="M1149.4,834.1l-48.4-55.9v55.9h-34V718.9h32.4l48.4,56.7v-56.7h34v115.2H1149.4z"/>
	<path fill="#E70020" d="M1206.4,718.9h99.7v27.6h-62.6v15.9h53.5v26.4h-53.5v17.6h63.8v27.6h-100.8V718.9z"/>
	<path fill="#E70020" d="M1414.4,785.9l25.6,48.2h-41.5l-20.3-42h-13.8v42h-37V718.9h70.5c25.6,0,38.8,16.5,38.8,35.2
		C1436.6,767.6,1429.3,780.4,1414.4,785.9z M1388.6,745.2h-24.2v21.3h24.2c5.8,0,10.4-4.5,10.4-10.7
		C1399,749.5,1394.3,745.2,1388.6,745.2z"/>
</g>
</svg>
