<?xml version="1.0" encoding="UTF-8"?>
<svg width="50px" height="25px" viewBox="0 0 50 25" version="1.1" xmlns="http://www.w3.org/2000/svg" xmlns:xlink="http://www.w3.org/1999/xlink">
    <!-- Generator: Sketch 51.2 (57519) - http://www.bohemiancoding.com/sketch -->
    <title>Group 5@2x</title>
    <desc>Created with Sketch.</desc>
    <defs></defs>
    <g id="case-study" stroke="none" stroke-width="1" fill="none" fill-rule="evenodd">
        <g id="Desktop-HD-Copy" transform="translate(-176.000000, -7126.000000)" stroke="#FFFFFF" stroke-width="2">
            <g id="Group-5" transform="translate(177.000000, 7127.000000)">
                <path d="M47.1826,7.5675 C44.0636,9.4325 37.9536,12.0515 29.2836,12.6475 C27.7546,12.7525 25.1776,12.1675 23.5656,12.1675 C21.5576,12.1675 18.6046,12.7195 16.7326,12.5605 C8.6176,11.8695 3.0086,9.3675 -0.0004,7.5975" id="Stroke-1"></path>
                <path d="M23.5918,1.6652 C22.0348,0.6142 20.1588,0.0002 18.1398,0.0002 C17.2348,0.0002 16.3288,0.1242 15.4578,0.3732 C14.4878,0.6512 13.5608,1.0812 12.7208,1.6432 C11.8598,2.2212 11.1028,2.9312 10.4648,3.7482 C9.8378,4.5542 9.1458,5.2742 8.3128,5.8722 C7.5048,6.4522 6.6078,6.9082 5.6608,7.2172 C4.6858,7.5352 3.6598,7.6962 2.6338,7.6962 C1.7208,7.6962 0.8378,7.5702 -0.0002,7.3362 L-0.0002,7.6642 C3.7028,14.5692 8.2858,22.4142 23.5658,22.4142 C38.8448,22.4142 43.5138,14.5232 47.1828,7.5672 L47.1828,7.3362 C46.3448,7.5702 45.4618,7.6962 44.5488,7.6962 C43.5228,7.6962 42.4978,7.5352 41.5218,7.2172 C40.5748,6.9082 39.6788,6.4522 38.8698,5.8722 C38.0368,5.2742 37.3448,4.5542 36.7178,3.7482 C36.0808,2.9312 35.3228,2.2212 34.4618,1.6432 C33.6218,1.0812 32.6958,0.6512 31.7248,0.3732 C30.8538,0.1242 29.9478,0.0002 29.0428,0.0002 C27.0238,0.0002 25.1478,0.6142 23.5918,1.6652 Z" id="Stroke-3"></path>
            </g>
        </g>
    </g>
</svg>