<svg id="Layer_1" data-name="Layer 1" xmlns="http://www.w3.org/2000/svg" viewBox="0 0 300.65 291.05"><defs><style>.cls-1{fill:#fdfffc;}</style></defs><title>me</title><path class="cls-1" d="M72.86,67H50.4l-2.78-9.31H24.48L21.7,67H0L24.1,1H48.77Zm-37-47.62-7,23.52H43.2L36.29,19.38ZM108.24,1C130.8,1,142.9,11.42,142.9,34s-12.1,33-34.66,33H79.63V1Zm-7.39,15.84V51.16h7c9.31,0,13.34-5.28,13.34-14.3V31.1c0-9-4-14.31-13.34-14.31ZM215.71,67H193.25l-2.79-9.31H167.33L164.54,67H142.85L166.94,1h24.68Zm-37-47.62-7,23.52h14.31l-6.91-23.52ZM300.24,67h-21V43.19a176.41,176.41,0,0,1,1.53-20.93h-.38L268.18,67H251.57L239.28,22.36h-.38a154.92,154.92,0,0,1,1.72,20.83V67H221.14V1h30l10,38.11h.39L271.34,1h28.9ZM45.84,76c10,0,18.24,6.72,18.24,16.23S59,105.81,53,107.54v.38c6.82,1.54,12.58,6,12.58,16.51S57.07,142,46.42,142H1.87V76ZM23.09,90.45v11.23H37.68a5,5,0,0,0,4.9-5.18v-1a5,5,0,0,0-4.9-5.09Zm0,24.86v11.33H39.22a4.93,4.93,0,0,0,4.89-5.18v-1a5,5,0,0,0-4.89-5.19ZM140.45,142H118l-2.78-9.31H92.06L89.28,142H67.58l24.1-66h24.67Zm-37-47.62-7,23.52h14.3l-6.91-23.52Zm106.22,21c0,18.24-12.09,27.74-32.83,27.74S144,133.65,144,115.41V76h21.22v39.17c0,7.1,3.84,12.19,11.61,12.19s11.72-5.09,11.72-12.19V76h21.21ZM300.48,142h-21V118.19A176.41,176.41,0,0,1,281,97.26h-.38L268.42,142H251.81L239.52,97.36h-.38a154.92,154.92,0,0,1,1.72,20.83V142H221.38V76h30l10,38.11h.39L271.58,76h28.9ZM49.37,149.8c18.53,0,33.6,8.45,33.6,25.06H62.71c0-5.67-5.76-9.22-12.48-9.22-10.08,0-15.17,5.66-15.17,15.26v6.15c0,9.6,5.09,15.26,15.17,15.26,6.72,0,12.48-3.45,12.48-8.73h-15V180.14H83V217H72l-2.11-6.53c-5.95,5.09-13.53,7.68-23.61,7.68-22,0-32.93-11.61-32.93-34.17S26.52,149.8,49.37,149.8ZM161.64,217H139.18l-2.79-9.31H113.26L110.47,217H88.78L112.87,151h24.67Zm-37-47.62-7,23.52H132l-6.92-23.52Zm106.42,1.83a18.9,18.9,0,0,1-12.77,18.14L233,217H209.21L197.5,192.9h-7.88V217H168.41V151h40.41C223.51,151,231.1,160.46,231.1,171.21Zm-21.6.86a5.89,5.89,0,0,0-6-6H189.62v12.2h13.92A6,6,0,0,0,209.5,172.07Zm91.15-4.22h-21.6V217H257.83V167.85H236.14V151h64.51ZM153.34,292H134.81l-27.75-32.06V292H87.58V226H106.1l27.75,32.55V226h19.49Zm13,0V226h57.12v15.84h-35.9v9.12h30.72v15.17H187.56v10.08h36.58V292Zm130.8-45.79a18.89,18.89,0,0,1-12.76,18.14L299.06,292h-23.8l-11.72-24.1h-7.87V292H234.46V226h40.41C289.56,226,297.14,235.46,297.14,246.21Zm-21.6.86a5.88,5.88,0,0,0-6-6H255.67v12.2h13.92A6,6,0,0,0,275.54,247.07Z" transform="translate(0 -0.95)"/></svg>