<svg id="Layer_1" data-name="Layer 1" xmlns="http://www.w3.org/2000/svg" viewBox="0 0 359.37 314.02"><defs><style>.cls-1{fill:#fdfffc;}.cls-2{fill:#fff;}</style></defs><title>title-2</title><path class="cls-1" d="M132.81,67H110.34l-2.78-9.31H84.42L81.64,67H59.94L84,1h24.67Zm-37-47.62-7,23.52h14.3L96.23,19.38ZM168.18,1c22.56,0,34.66,10.47,34.66,33s-12.1,33-34.66,33h-28.6V1Zm-7.39,15.84V51.16h7c9.31,0,13.34-5.28,13.34-14.3V31.1c0-9-4-14.31-13.34-14.31ZM275.66,67H253.19l-2.78-9.31H227.27L224.49,67h-21.7l24.1-66h24.67Zm-37-47.62-7,23.52H246l-6.91-23.52ZM360.18,67h-21V43.19a175.29,175.29,0,0,1,1.54-20.93h-.39L328.12,67H311.51L299.22,22.36h-.38a154,154,0,0,1,1.73,20.83V67H281.08V1H311l10,38.11h.38L331.29,1h28.89ZM44.78,76C54.77,76,63,82.67,63,92.18s-5.08,13.63-11,15.36v.38c6.82,1.54,12.58,6,12.58,16.51S56,142,45.36,142H.82V76ZM22,90.45v11.23H36.62a5,5,0,0,0,4.9-5.18v-1a5,5,0,0,0-4.9-5.09Zm0,24.86v11.33H38.16a4.93,4.93,0,0,0,4.9-5.18v-1a5,5,0,0,0-4.9-5.19ZM139.39,142H116.93l-2.79-9.31H91L88.22,142H66.53L90.62,76H115.3Zm-37-47.62-7,23.52h14.31l-6.91-23.52Zm106.23,21c0,18.24-12.1,27.74-32.84,27.74s-32.92-9.5-32.92-27.74V76h21.21v39.17c0,7.1,3.84,12.19,11.62,12.19s11.71-5.09,11.71-12.19V76h21.22ZM299.42,142h-21V118.19a175.29,175.29,0,0,1,1.54-20.93h-.39L267.36,142H250.75L238.46,97.36h-.38a154,154,0,0,1,1.73,20.83V142H220.32V76h30l10,38.11h.38L270.53,76h28.89ZM51.31,149.8c18.53,0,33.6,8.45,33.6,25.06H64.66c0-5.67-5.76-9.22-12.48-9.22C42.1,165.64,37,171.3,37,180.9v6.15c0,9.6,5.09,15.26,15.17,15.26,6.72,0,12.48-3.45,12.48-8.73h-15V180.14H84.91V217H74l-2.11-6.53c-6,5.09-13.54,7.68-23.62,7.68-22,0-32.93-11.61-32.93-34.17S28.46,149.8,51.31,149.8ZM163.58,217H141.12l-2.78-9.31H115.2L112.42,217H90.72L114.82,151h24.67Zm-37-47.62-7,23.52h14.3L127,169.38ZM233,171.21a18.88,18.88,0,0,1-12.77,18.14L235,217H211.15l-11.71-24.1h-7.87V217H170.35V151h40.42C225.46,151,233,160.46,233,171.21Zm-21.6.86a5.89,5.89,0,0,0-5.95-6H191.57v12.2h13.92A6,6,0,0,0,211.44,172.07Zm91.15-4.22H281V217H259.78V167.85h-21.7V151h64.51ZM155.28,292H136.75L109,259.94V292H89.52V226h18.53l27.74,32.55V226h19.49Zm13,0V226h57.12v15.84H189.5v9.12h30.72v15.17H189.5v10.08h36.58V292Zm130.8-45.79a18.9,18.9,0,0,1-12.77,18.14L301,292H277.2l-11.71-24.1h-7.87V292H236.4V226h40.42C291.5,226,299.09,235.46,299.09,246.21Zm-21.6.86a5.89,5.89,0,0,0-5.95-6H257.62v12.2h13.92A6,6,0,0,0,277.49,247.07Z" transform="translate(-0.82 -0.95)"/><path class="cls-2" d="M100.7,306.19v.24a4,4,0,0,1-4.08,4.2H93.56v4.12H89.47V302h7.15A4,4,0,0,1,100.7,306.19Zm-7.14,1.46h1.69a1.15,1.15,0,0,0,1.3-1.24v-.15a1.14,1.14,0,0,0-1.3-1.24H93.56Z" transform="translate(-0.82 -0.95)"/><path class="cls-2" d="M112.48,309.41l2.84,5.34h-4.6l-2.26-4.65h-1.52v4.65h-4.09V302h7.8c2.83,0,4.3,1.84,4.3,3.91A3.65,3.65,0,0,1,112.48,309.41Zm-2.85-4.5h-2.69v2.35h2.69a1.15,1.15,0,0,0,1.15-1.18A1.14,1.14,0,0,0,109.63,304.91Z" transform="translate(-0.82 -0.95)"/><path class="cls-2" d="M130.18,308.38c0,4.35-2.54,6.59-6.9,6.59s-6.87-2.24-6.87-6.59,2.52-6.6,6.87-6.6S130.18,304,130.18,308.38Zm-9.58-.6V309c0,1.74.89,2.94,2.68,2.94S126,310.71,126,309v-1.19c0-1.74-.91-2.94-2.71-2.94S120.6,306,120.6,307.78Z" transform="translate(-0.82 -0.95)"/><path class="cls-2" d="M144.59,308.38c0,4.35-2.33,6.37-6.68,6.37h-5.52V302h5.52C142.26,302,144.59,304,144.59,308.38Zm-8.11,3.31h1.35c1.8,0,2.58-1,2.58-2.76v-1.11c0-1.74-.78-2.76-2.58-2.76h-1.35Z" transform="translate(-0.82 -0.95)"/><path class="cls-2" d="M153.16,315c-4,0-6.36-1.83-6.36-5.35V302h4.1v7.56a2.25,2.25,0,1,0,4.5,0V302h4.09v7.62C159.49,313.14,157.16,315,153.16,315Z" transform="translate(-0.82 -0.95)"/><path class="cls-2" d="M174.45,307.25h-3.91a2.13,2.13,0,0,0-2.25-2.41c-1.74,0-2.4,1.2-2.4,2.94V309c0,1.74.7,2.94,2.37,2.94a2.13,2.13,0,0,0,2.41-2.33h3.78c0,3.5-2.25,5.39-6.14,5.39-4.35,0-6.61-2.24-6.61-6.59s2.26-6.6,6.61-6.6C172,301.78,174.45,303.69,174.45,307.25Z" transform="translate(-0.82 -0.95)"/><path class="cls-2" d="M184,305.26v9.49h-4.1v-9.49h-4.18V302h12.45v3.26Z" transform="translate(-0.82 -0.95)"/><path class="cls-2" d="M208.41,308.38c0,4.35-2.33,6.37-6.69,6.37H196.2V302h5.52C206.08,302,208.41,304,208.41,308.38Zm-8.11,3.31h1.35c1.8,0,2.57-1,2.57-2.76v-1.11c0-1.74-.77-2.76-2.57-2.76H200.3Z" transform="translate(-0.82 -0.95)"/><path class="cls-2" d="M210.62,302h11v3.06h-6.93v1.76h5.93v2.93h-5.93v1.94h7.06v3.06H210.62Z" transform="translate(-0.82 -0.95)"/><path class="cls-2" d="M235,305.71v.22h-3.83v-.07c0-.67-.47-1.3-1.65-1.3s-1.69.39-1.69.83c0,1.91,7.43.41,7.52,5.13,0,3.17-2.4,4.45-5.61,4.45-3.58,0-6.3-.91-6.3-4.54h3.87c0,1.37.8,1.61,2.06,1.61.74,0,1.8-.05,1.8-.85,0-1.83-7.53-.37-7.53-5.33,0-3,2.71-4.08,5.73-4.08S234.93,303,235,305.71Z" transform="translate(-0.82 -0.95)"/><path class="cls-2" d="M237.56,314.75V302h4.09v12.75Z" transform="translate(-0.82 -0.95)"/><path class="cls-2" d="M257.47,306.62h-3.9c0-1.1-1.12-1.78-2.41-1.78a2.64,2.64,0,0,0-2.93,2.94V309a2.64,2.64,0,0,0,2.93,2.94c1.29,0,2.41-.66,2.41-1.68h-2.89v-2.6h6.79v7.12h-2.11l-.41-1.26A6.66,6.66,0,0,1,250.4,315c-4.24,0-6.36-2.24-6.36-6.59s2.54-6.6,7-6.6C254.57,301.78,257.47,303.41,257.47,306.62Z" transform="translate(-0.82 -0.95)"/><path class="cls-2" d="M269.13,314.75l-5.35-6.19v6.19H260V302h3.57l5.36,6.28V302h3.76v12.75Z" transform="translate(-0.82 -0.95)"/><path class="cls-2" d="M275.45,302h11v3.06h-6.92v1.76h5.92v2.93h-5.92v1.94h7.06v3.06H275.45Z" transform="translate(-0.82 -0.95)"/><path class="cls-2" d="M298.46,309.41l2.84,5.34h-4.6l-2.26-4.65h-1.51v4.65h-4.1V302h7.8c2.83,0,4.3,1.84,4.3,3.91A3.65,3.65,0,0,1,298.46,309.41Zm-2.85-4.5h-2.68v2.35h2.68a1.15,1.15,0,0,0,1.15-1.18A1.14,1.14,0,0,0,295.61,304.91Z" transform="translate(-0.82 -0.95)"/></svg>