<svg xmlns="http://www.w3.org/2000/svg" width="361" height="319" viewBox="0 0 361 319">
  <g fill="#FDFFFC" fill-rule="evenodd">
    <path d="M105.267746 310.972577C105.267746 315.484799 102.275431 317.835904 97.1457472 317.835904 92.0160638 317.835904 89 315.484799 89 310.972577L89 301.21193 94.248426 301.21193 94.248426 310.901332C94.248426 312.658723 95.1983674 313.917395 97.1219987 313.917395 99.0456299 313.917395 100.01932 312.658723 100.01932 310.901332L100.01932 301.21193 105.267746 301.21193 105.267746 310.972577zM119.362501 308.930203L125.20464 317.550921 118.840033 317.550921 115.823969 312.468735 115.728975 312.468735 112.712911 317.550921 106.823275 317.550921 112.665414 308.906455 107.393239 301.21193 113.734098 301.21193 116.203946 305.391672 116.29894 305.391672 118.792536 301.21193 124.658424 301.21193 119.362501 308.930203zM127.757607 318.690851L124.860286 318.690851 128.660052 300.072 131.533624 300.072 127.757607 318.690851zM149.238156 310.972577C149.238156 315.484799 146.245841 317.835904 141.116157 317.835904 135.986474 317.835904 132.97041 315.484799 132.97041 310.972577L132.97041 301.21193 138.218836 301.21193 138.218836 310.901332C138.218836 312.658723 139.168778 313.917395 141.092409 313.917395 143.01604 313.917395 143.98973 312.658723 143.98973 310.901332L143.98973 301.21193 149.238156 301.21193 149.238156 310.972577zM157.941994 317.550921L152.693568 317.550921 152.693568 301.21193 157.941994 301.21193 157.941994 317.550921zM176.085873 301.21193C181.666779 301.21193 184.659094 303.80052 184.659094 309.381425 184.659094 314.962331 181.666779 317.550921 176.085873 317.550921L169.00881 317.550921 169.00881 301.21193 176.085873 301.21193zM174.257236 305.130438L174.257236 313.632413 175.990879 313.632413C178.294487 313.632413 179.291925 312.326244 179.291925 310.093881L179.291925 308.668969C179.291925 306.436607 178.294487 305.130438 175.990879 305.130438L174.257236 305.130438zM187.188313 317.550921L187.188313 301.21193 201.318691 301.21193 201.318691 305.130438 192.436739 305.130438 192.436739 307.386549 200.03627 307.386549 200.03627 311.138817 192.436739 311.138817 192.436739 313.632413 201.48493 313.632413 201.48493 317.550921 187.188313 317.550921zM210.901224 300.926947C214.843481 300.926947 218.049533 302.470602 218.120778 305.961636L218.120778 306.246619 213.204832 306.246619 213.204832 306.151625C213.204832 305.296678 212.611118 304.489227 211.091212 304.489227 209.642552 304.489227 208.930096 304.987947 208.930096 305.557911 208.930096 308.00401 218.453258 306.080379 218.572 312.136255 218.572 316.197255 215.484691 317.835904 211.376195 317.835904 206.792727 317.835904 203.301693 316.672225 203.301693 312.017513L208.265137 312.017513C208.265137 313.774904 209.286324 314.083635 210.901224 314.083635 211.851165 314.083635 213.204832 314.01239 213.204832 312.991203 213.204832 310.640098 203.562927 312.516232 203.562927 306.151625 203.562927 302.351859 207.030213 300.926947 210.901224 300.926947zM226.373394 317.550921L221.124968 317.550921 221.124968 301.21193 226.373394 301.21193 226.373394 317.550921zM238.045798 300.926947C242.629265 300.926947 246.357785 303.016818 246.357785 307.125315L241.346844 307.125315C241.346844 305.724151 239.921932 304.845455 238.259535 304.845455 235.765939 304.845455 234.507266 306.246619 234.507266 308.621472L234.507266 310.141378C234.507266 312.516232 235.765939 313.917395 238.259535 313.917395 239.921932 313.917395 241.346844 313.062448 241.346844 311.756279L237.642073 311.756279 237.642073 308.431484 246.357785 308.431484 246.357785 317.550921 243.650452 317.550921 243.127984 315.936021C241.655575 317.194693 239.779441 317.835904 237.285845 317.835904 231.847431 317.835904 229.140098 314.962331 229.140098 309.381425 229.140098 303.80052 232.393647 300.926947 238.045798 300.926947zM265.582223 317.550921L260.998756 317.550921 254.13543 309.618911 254.13543 317.550921 249.314477 317.550921 249.314477 301.21193 253.897944 301.21193 260.761271 309.262683 260.761271 301.21193 265.582223 301.21193 265.582223 317.550921zM268.800149 317.550921L268.800149 301.21193 282.930527 301.21193 282.930527 305.130438 274.048575 305.130438 274.048575 307.386549 281.648106 307.386549 281.648106 311.138817 274.048575 311.138817 274.048575 313.632413 283.096767 313.632413 283.096767 317.550921 268.800149 317.550921zM301.157527 306.22287C301.157527 308.122753 300.112591 309.927642 297.998972 310.711343L301.632497 317.550921 295.742861 317.550921 292.84554 311.590039 290.89816 311.590039 290.89816 317.550921 285.649734 317.550921 285.649734 301.21193 295.647867 301.21193C299.281393 301.21193 301.157527 303.563035 301.157527 306.22287zM295.814107 306.436607C295.814107 305.557911 295.149148 304.940449 294.341697 304.940449L290.89816 304.940449 290.89816 307.956513 294.341697 307.956513C295.149148 307.956513 295.814107 307.315303 295.814107 306.436607zM132.824 67L110.36 67 107.576 57.688 84.44 57.688 81.656 67 59.96 67 84.056.952 108.728.952 132.824 67zM95.864 19.384L88.856 42.904 103.16 42.904 96.248 19.384 95.864 19.384zM168.2.952C190.76.952 202.856 11.416 202.856 33.976 202.856 56.536 190.76 67 168.2 67L139.592 67 139.592.952 168.2.952zM160.808 16.792L160.808 51.16 167.816 51.16C177.128 51.16 181.16 45.88 181.16 36.856L181.16 31.096C181.16 22.072 177.128 16.792 167.816 16.792L160.808 16.792zM275.672 67L253.208 67 250.424 57.688 227.288 57.688 224.504 67 202.808 67 226.904.952 251.576.952 275.672 67zM238.712 19.384L231.704 42.904 246.008 42.904 239.096 19.384 238.712 19.384zM360.2 67L339.176 67 339.176 43.192C339.176 33.208 340.712 22.264 340.712 22.264L340.328 22.264 328.136 67 311.528 67 299.24 22.36 298.856 22.36C298.856 22.36 300.584 33.208 300.584 43.192L300.584 67 281.096 67 281.096.952 311.048.952 321.032 39.064 321.416 39.064 331.304.952 360.2.952 360.2 67zM44.8000002 75.952C54.7840002 75.952 63.0400002 82.672 63.0400002 92.176 63.0400002 101.776 57.9520002 105.808 52.0000002 107.536L52.0000002 107.92C58.8160002 109.456 64.5760002 113.872 64.5760002 124.432 64.5760002 134.992 56.0320002 142 45.3760002 142L.832000191 142 .832000191 75.952 44.8000002 75.952zM22.0480002 90.448L22.0480002 101.68 36.6400002 101.68C39.4240002 101.68 41.5360002 99.376 41.5360002 96.496L41.5360002 95.536C41.5360002 92.752 39.3280002 90.448 36.6400002 90.448L22.0480002 90.448zM22.0480002 115.312L22.0480002 126.64 38.1760002 126.64C40.9600002 126.64 43.0720002 124.432 43.0720002 121.456L43.0720002 120.496C43.0720002 117.616 40.9600002 115.312 38.1760002 115.312L22.0480002 115.312zM139.408 142L116.944 142 114.16 132.688 91.0240001 132.688 88.2400001 142 66.5440001 142 90.6400001 75.952 115.312 75.952 139.408 142zM102.448 94.384L95.4400001 117.904 109.744 117.904 102.832 94.384 102.448 94.384zM208.672 115.408C208.672 133.648 196.576 143.152 175.84 143.152 155.104 143.152 142.912 133.648 142.912 115.408L142.912 75.952 164.128 75.952 164.128 115.12C164.128 122.224 167.968 127.312 175.744 127.312 183.52 127.312 187.456 122.224 187.456 115.12L187.456 75.952 208.672 75.952 208.672 115.408zM299.44 142L278.416 142 278.416 118.192C278.416 108.208 279.952 97.264 279.952 97.264L279.568 97.264 267.376 142 250.768 142 238.48 97.36 238.096 97.36C238.096 97.36 239.824 108.208 239.824 118.192L239.824 142 220.336 142 220.336 75.952 250.288 75.952 260.272 114.064 260.656 114.064 270.544 75.952 299.44 75.952 299.44 142zM51.3280002 149.8C69.8560002 149.8 84.9280002 158.248 84.9280002 174.856L64.6720002 174.856C64.6720002 169.192 58.9120002 165.64 52.1920002 165.64 42.1120002 165.64 37.0240002 171.304 37.0240002 180.904L37.0240002 187.048C37.0240002 196.648 42.1120002 202.312 52.1920002 202.312 58.9120002 202.312 64.6720002 198.856 64.6720002 193.576L49.6960002 193.576 49.6960002 180.136 84.9280002 180.136 84.9280002 217 73.9840002 217 71.8720002 210.472C65.9200002 215.56 58.3360002 218.152 48.2560002 218.152 26.2720002 218.152 15.3280002 206.536 15.3280002 183.976 15.3280002 161.416 28.4800002 149.8 51.3280002 149.8zM163.6 217L141.136 217 138.352 207.688 115.216 207.688 112.432 217 90.7360001 217 114.832 150.952 139.504 150.952 163.6 217zM126.64 169.384L119.632 192.904 133.936 192.904 127.024 169.384 126.64 169.384zM233.056 171.208C233.056 178.888 228.832 186.184 220.288 189.352L234.976 217 211.168 217 199.456 192.904 191.584 192.904 191.584 217 170.368 217 170.368 150.952 210.784 150.952C225.472 150.952 233.056 160.456 233.056 171.208zM211.456 172.072C211.456 168.52 208.768 166.024 205.504 166.024L191.584 166.024 191.584 178.216 205.504 178.216C208.768 178.216 211.456 175.624 211.456 172.072zM302.608 167.848L281.008 167.848 281.008 217 259.792 217 259.792 167.848 238.096 167.848 238.096 150.952 302.608 150.952 302.608 167.848zM155.296 292L136.768 292 109.024 259.936 109.024 292 89.5360001 292 89.5360001 225.952 108.064 225.952 135.808 258.496 135.808 225.952 155.296 225.952 155.296 292zM168.304 292L168.304 225.952 225.424 225.952 225.424 241.792 189.52 241.792 189.52 250.912 220.24 250.912 220.24 266.08 189.52 266.08 189.52 276.16 226.096 276.16 226.096 292 168.304 292zM299.104 246.208C299.104 253.888 294.88 261.184 286.336 264.352L301.024 292 277.216 292 265.504 267.904 257.632 267.904 257.632 292 236.416 292 236.416 225.952 276.832 225.952C291.52 225.952 299.104 235.456 299.104 246.208zM277.504 247.072C277.504 243.52 274.816 241.024 271.552 241.024L257.632 241.024 257.632 253.216 271.552 253.216C274.816 253.216 277.504 250.624 277.504 247.072z"/>
  </g>
</svg>
