<?xml version="1.0" encoding="utf-8"?>
<!-- Generator: Adobe Illustrator 18.0.0, SVG Export Plug-In . SVG Version: 6.00 Build 0)  -->
<!DOCTYPE svg PUBLIC "-//W3C//DTD SVG 1.1//EN" "http://www.w3.org/Graphics/SVG/1.1/DTD/svg11.dtd">
<svg version="1.1" id="Layer_1" xmlns="http://www.w3.org/2000/svg" xmlns:xlink="http://www.w3.org/1999/xlink" x="0px" y="0px"
	 viewBox="0 0 334 73.1" enable-background="new 0 0 334 73.1" xml:space="preserve">
<g>
	<path fill="#E70020" d="M67.7,17.7c0,10.4-5.5,14.8-12,16.7v0.4c7.4,1.7,13.7,6.5,13.7,18s-9.3,19.1-20.9,19.1H0V0h47.9
		C58.7,0,67.7,7.3,67.7,17.7z M23.1,28H39c3,0,5.3-2.5,5.3-5.6v-1c0-3-2.4-5.5-5.3-5.5H23.1V28z M23.1,55.2h17.6
		c3,0,5.3-2.4,5.3-5.6v-1c0-3.1-2.3-5.6-5.3-5.6H23.1V55.2z"/>
	<path fill="#E70020" d="M127.7,71.9l-3-10.1H99.5l-3,10.1H72.8L99,0h26.9l26.2,71.9H127.7z M104.3,45.7h15.6l-7.5-25.6h-0.4
		L104.3,45.7z"/>
	<path fill="#E70020" d="M193.1,73.1c-22.6,0-35.8-10.3-35.8-30.2V0h23.1v42.6c0,7.7,4.2,13.3,12.6,13.3s12.7-5.5,12.7-13.3V0h23.1
		v42.9C228.8,62.8,215.6,73.1,193.1,73.1z"/>
	<path fill="#E70020" d="M306,71.9V46c0-10.9,1.7-22.8,1.7-22.8h-0.4L294,71.9h-18.1l-13.4-48.6h-0.4c0,0,1.9,11.8,1.9,22.7v25.9
		h-21.2V0h32.6l10.9,41.5h0.4L297.5,0h31.4v71.9H306z"/>
	<path fill="#E70020" d="M414.6,26h-22c0-6.2-6.3-10-13.6-10c-11,0-16.5,6.2-16.5,16.6v6.7c0,10.4,5.5,16.6,16.5,16.6
		c7.3,0,13.6-3.8,13.6-9.5h-16.3V31.8h38.3v40.1h-11.9l-2.3-7.1c-6.5,5.5-14.7,8.4-25.7,8.4c-23.9,0-35.8-12.6-35.8-37.2
		c0-24.6,14.3-37.2,39.2-37.2C398.2-1.3,414.6,7.9,414.6,26z"/>
	<path fill="#E70020" d="M477.1,71.9l-3-10.1h-25.2l-3,10.1h-23.6L448.5,0h26.9l26.2,71.9H477.1z M453.7,45.7h15.6l-7.5-25.6h-0.4
		L453.7,45.7z"/>
	<path fill="#E70020" d="M564.5,41.8l16,30.1h-25.9l-12.7-26.2h-8.6v26.2h-23.1V0h44c16,0,24.2,10.3,24.2,22
		C578.4,30.4,573.8,38.3,564.5,41.8z M548.5,16.4h-15.1v13.3h15.1c3.6,0,6.5-2.8,6.5-6.7C554.9,19.1,552,16.4,548.5,16.4z"/>
	<path fill="#E70020" d="M631.9,18.4v53.5h-23.1V18.4h-23.6V0h70.2v18.4H631.9z"/>
	<path fill="#E70020" d="M717.4,71.9L687.2,37v34.9H666V0h20.2l30.2,35.4V0h21.2v71.9H717.4z"/>
	<path fill="#E70020" d="M753,0h62.2v17.2h-39.1v9.9h33.4v16.5h-33.4v11h39.8v17.2H753V0z"/>
	<path fill="#E70020" d="M882.8,41.8l16,30.1h-25.9l-12.7-26.2h-8.6v26.2h-23.1V0h44c16,0,24.2,10.3,24.2,22
		C896.7,30.4,892.1,38.3,882.8,41.8z M866.7,16.4h-15.1v13.3h15.1c3.6,0,6.5-2.8,6.5-6.7C873.2,19.1,870.3,16.4,866.7,16.4z"/>
</g>
</svg>
