<?xml version="1.0" encoding="utf-8"?>
<!-- Generator: Adobe Illustrator 18.0.0, SVG Export Plug-In . SVG Version: 6.00 Build 0)  -->
<!DOCTYPE svg PUBLIC "-//W3C//DTD SVG 1.1//EN" "http://www.w3.org/Graphics/SVG/1.1/DTD/svg11.dtd">
<svg version="1.1" id="Layer_1" xmlns="http://www.w3.org/2000/svg" xmlns:xlink="http://www.w3.org/1999/xlink" x="0px" y="0px"
	 viewBox="0 180.7 1440 330.3" enable-background="new 0 180.7 1440 330.3" xml:space="preserve">
<g>
	<path fill="#E70020" d="M-1172.7,265c0,45.8-24.2,65.2-52.8,73.5v1.8c32.6,7.5,60.3,28.6,60.3,79.3s-41,84.1-92,84.1h-213.6V187
		h210.9C-1212.3,187-1172.7,219.2-1172.7,265z M-1369.1,310.3h70c13.2,0,23.3-11,23.3-24.7v-4.4c0-13.2-10.6-24.2-23.3-24.2h-70
		V310.3z M-1369.1,430.1h77.5c13.2,0,23.3-10.6,23.3-24.7v-4.4c0-13.7-10.1-24.7-23.3-24.7h-77.5V430.1z"/>
	<path fill="#E70020" d="M-908.5,503.7l-13.2-44.5h-111l-13.2,44.5h-103.9l114.9-316.6h118.5L-801,503.7H-908.5z M-1011.5,388.3
		h68.7l-33-112.7h-1.8L-1011.5,388.3z"/>
	<path fill="#E70020" d="M-620.5,509c-99.5,0-157.7-45.4-157.7-133V187h101.7v187.6c0,33.9,18.5,58.6,55.5,58.6
		c37,0,55.9-24.2,55.9-58.6V187h101.7V376C-463.3,463.6-521.4,509-620.5,509z"/>
	<path fill="#E70020" d="M-123.3,503.7V389.6c0-48,7.5-100.4,7.5-100.4h-1.8l-58.6,214.5h-79.7l-59-214h-1.8c0,0,8.4,52,8.4,100
		v114.1h-93.4V187h143.6l48,182.8h1.8l47.6-182.8h138.3v316.6H-123.3z"/>
	<path fill="#E70020" d="M354.9,301.5h-96.9c0-27.3-27.7-44-59.9-44c-48.4,0-72.7,27.3-72.7,73.1v29.5c0,45.8,24.2,73.1,72.7,73.1
		c32.1,0,59.9-16.7,59.9-41.8h-71.8v-64.3h168.7v176.6h-52.4l-10.1-31.3c-28.6,24.2-64.7,37-113.2,37
		C74,509.4,21.6,453.9,21.6,345.6s63-163.8,172.6-163.8C282.7,181.3,354.9,221.8,354.9,301.5z"/>
	<path fill="#E70020" d="M630.2,503.7L617,459.2H506l-13.2,44.5H388.4L504.2,187h118.5l115.4,316.6H630.2z M527.1,388.3h68.7
		l-33-112.7H561L527.1,388.3z"/>
	<path fill="#E70020" d="M1015,371.1l70.5,132.6H971.4l-55.9-115.4h-37.9v115.4H775.9V187h193.8c70.5,0,106.6,45.4,106.6,96.9
		C1076.3,320.9,1056,355.7,1015,371.1z M944.6,259.3h-66.5v58.6h66.5c15.9,0,28.6-12.3,28.6-29.5C972.8,271.2,960,259.3,944.6,259.3
		z"/>
	<path fill="#E70020" d="M1311.9,268.1v235.6h-101.7V268.1h-103.9v-81h309.1v81H1311.9z"/>
	<path fill="#E70020" d="M1688.4,503.7l-133-153.7v153.7H1462V187h89l133,155.9V187h93.4v316.6H1688.4z"/>
	<path fill="#E70020" d="M1845.1,187H2119v75.7h-172.2v43.6h147.1V379h-147.1v48.4h175.3v75.7h-277V187z"/>
	<path fill="#E70020" d="M2416.7,371.1l70.5,132.6h-114.1l-55.9-115.4h-37.9v115.4h-101.7V187h193.8c70.5,0,106.6,45.4,106.6,96.9
		C2477.9,320.9,2457.7,355.7,2416.7,371.1z M2345.8,259.3h-66.5v58.6h66.5c15.9,0,28.6-12.3,28.6-29.5S2361.7,259.3,2345.8,259.3z"
		/>
</g>
<rect x="-0.4" y="833.9" fill="#FFFFFF" stroke="#000000" stroke-miterlimit="10" width="1440" height="368"/>
<rect x="1439.6" y="833.9" fill="#FFFFFF" stroke="#000000" stroke-width="0.8539" stroke-miterlimit="10" width="1049.9" height="368"/>
<rect x="-1465.3" y="833.9" fill="#FFFFFF" stroke="#000000" stroke-width="1.0087" stroke-miterlimit="10" width="1465.3" height="368"/>
<polygon fill="#FFFFFF" stroke="#000000" stroke-width="1.0087" stroke-miterlimit="10" points="1439.6,1571.7 0,1571.7 
	-0.4,1571.7 -1465.3,1571.7 -1465.3,1939.7 -0.4,1939.7 0,1939.7 1439.6,1939.7 2489.4,1939.7 2489.4,1571.7 "/>
</svg>
