<svg width="40" height="32" viewBox="0 0 40 32" fill="none" xmlns="http://www.w3.org/2000/svg">
<path fill-rule="evenodd" clip-rule="evenodd" d="M15.7382 11.6534C16.3802 11.6534 16.8356 11.9868 16.8356 12.6327C16.8356 14.4247 13.9577 14.7371 12.7567 14.7162C13.0674 13.3411 14.0197 11.6534 15.7382 11.6534ZM18.1761 18.6656C18.1761 18.3671 18.2025 18.0644 18.2395 17.7657C17.167 18.5543 15.8028 19.0503 14.6617 19.0503C12.9019 19.0503 12.4255 17.7376 12.5291 16.4041C14.7445 16.3832 19.0926 15.9457 19.0926 12.2992C19.0926 10.8408 17.9953 9.86149 16.1112 9.86149C12.3427 9.86149 10.0445 13.1745 10.0445 16.7792C10.0445 19.1961 11.2247 20.9671 14.0613 20.9671C15.6298 20.9671 17.0712 20.6735 18.3137 19.8113C18.2228 19.4641 18.1761 19.0815 18.1761 18.6656ZM23.9106 18.7512C23.5011 18.9055 23.0982 19.0294 22.7412 19.0294C22.1202 19.0294 21.8509 18.821 21.8303 18.1752C21.8303 17.9459 21.8924 17.5917 21.9546 17.2166L24.8536 0H22.3895L19.4698 17.2584C19.387 17.7585 19.325 18.2168 19.325 18.6335C19.325 20.0296 19.9252 20.9671 21.8096 20.9671C22.6458 20.9671 23.6418 20.7629 24.2921 20.4104C24.0566 19.9453 23.9284 19.3882 23.9106 18.7512ZM29.4114 18.8331C29.0814 18.9468 28.7601 19.0294 28.4699 19.0294C27.8486 19.0294 27.5795 18.821 27.5586 18.1752C27.5586 17.9459 27.6208 17.5917 27.6829 17.2166L30.5821 0H28.1183L25.1984 17.2584C25.1156 17.7585 25.0535 18.2168 25.0535 18.6335C25.0535 20.0296 25.654 20.9671 27.538 20.9671C28.4251 20.9671 29.4967 20.7394 30.1394 20.3462C29.8211 19.9131 29.5762 19.4068 29.4114 18.8331ZM37.3086 15.5497C37.4121 14.9248 37.4329 14.3622 37.4329 13.8829C37.4329 12.5493 36.9774 11.6951 35.8178 11.6951C34.3064 11.6951 33.3333 13.0912 32.9812 15.0914C32.8777 15.6957 32.8364 16.3624 32.8364 16.925C32.8364 18.1753 33.209 19.1336 34.4722 19.1336C35.9834 19.1336 36.9359 17.7167 37.3086 15.5497ZM36.211 9.86149C37.619 9.86149 40.0001 10.4658 40.0001 13.7787C40.0001 14.2371 39.9792 14.8415 39.8964 15.4248C39.2754 19.4878 36.8529 20.9671 34.0991 20.9671C31.6767 20.9671 30.3103 19.5295 30.3103 16.925C30.3103 16.4041 30.3309 15.8416 30.4342 15.2164C31.1384 10.9033 34.0163 9.86149 36.211 9.86149ZM9.91759 10.1741L6.19081 31.1413H3.72689L5.75259 19.967C4.95886 20.6774 4.1855 20.9673 3.04029 20.9673C1.23889 20.9673 0 20.113 0 18.4252C0 18.071 0.0415083 17.5917 0.124318 17.1125L1.3459 10.1741H3.8097L2.62952 16.8625C2.58824 17.1751 2.54671 17.5084 2.54671 17.7793C2.54671 18.5502 2.91597 19.1752 3.84776 19.1752C5.1315 19.1752 6.06399 18.2733 6.20381 17.4146L7.45379 10.1741H9.91759Z" fill="#1CADD0"/>
</svg>
