<svg id="Layer_1" data-name="Layer 1" xmlns="http://www.w3.org/2000/svg" viewBox="0 0 359.36 291"><defs><style>.cls-1{fill:#fdfffc;}</style></defs><title>name</title><path class="cls-1" d="M131.99,66.05H109.52l-2.78-9.31H83.6l-2.78,9.31H59.12L83.18.05h24.67Zm-37-47.62-7,23.52h14.3L95.41,18.43ZM167.36.05c22.56,0,34.66,10.47,34.66,33s-12.1,33-34.66,33h-28.6V.05Zm-7.39,15.84V50.21h7c9.31,0,13.34-5.28,13.34-14.3V30.15c0-9-4-14.31-13.34-14.31ZM274.84,66.05H252.37l-2.78-9.31H226.45l-2.78,9.31h-21.7l24.1-66h24.67Zm-37-47.62-7,23.52h14.34l-6.91-23.52ZM359.36,66.05h-21V42.24a175.3,175.3,0,0,1,1.54-20.93h-.39L327.3,66.05H310.69L298.4,21.41h-.38a153.906,153.906,0,0,1,1.73,20.83V66.05H280.26V.05h29.92l10,38.11h.38L330.47.05h28.89Zm-315.4,9c9.99,0,18.22,6.67,18.22,16.18s-5.08,13.63-11,15.36v.38c6.82,1.54,12.58,6,12.58,16.51s-8.58,17.57-19.22,17.57H0v-66ZM21.18,89.5v11.23H35.8a5,5,0,0,0,4.9-5.1c0-.028,0-.056,0-.084v-1a5,5,0,0,0-4.9-5.09Zm0,24.86v11.33H37.34a4.93,4.93,0,0,0,4.906-4.954c0-.075,0-.151-.006-.226v-1a5,5,0,0,0-4.8-5.187l-.095,0Zm117.39,26.69H116.11l-2.79-9.31H90.18l-2.78,9.31H65.71l24.09-66h24.68Zm-37-47.62-7,23.52h14.31l-6.91-23.52Zm106.23,21c0,18.24-12.1,27.74-32.84,27.74s-32.92-9.5-32.92-27.74V75.05h21.21v39.17c0,7.1,3.84,12.19,11.62,12.19s11.71-5.09,11.71-12.19V75.05H207.8Zm90.8,26.62h-21V117.24a175.3,175.3,0,0,1,1.54-20.93h-.39l-12.21,44.74H249.93L237.64,96.41h-.38a153.906,153.906,0,0,1,1.73,20.83v23.81H219.5v-66h30l10,38.11h.38l9.83-38.11H298.6Zm-248.11,7.8c18.53,0,33.6,8.45,33.6,25.06H63.84c0-5.67-5.76-9.22-12.48-9.22-10.08,0-15.18,5.66-15.18,15.26v6.15c0,9.6,5.09,15.26,15.17,15.26,6.72,0,12.48-3.45,12.48-8.73h-15V179.19H84.09v36.86H73.18l-2.11-6.53c-6,5.09-13.54,7.68-23.62,7.68-22,0-32.93-11.61-32.93-34.17S27.64,148.85,50.49,148.85Zm112.27,67.2H140.3l-2.78-9.31H114.38l-2.78,9.31H89.9l24.1-66h24.67Zm-37-47.62-7,23.52h14.3l-6.88-23.52Zm106.42,1.83a18.88,18.88,0,0,1-12.77,18.14l14.77,27.65H210.33l-11.71-24.1h-7.87v24.1H169.53v-66h40.42C224.64,150.05,232.18,159.51,232.18,170.26Zm-21.6.86a5.89,5.89,0,0,0-5.779-6c-.057,0-.114,0-.171,0H190.75v12.2h13.92a6,6,0,0,0,5.953-6.046c0-.052,0-.1,0-.154Zm91.15-4.22H280.18v49.15H258.96V166.9h-21.7V150.05h64.51ZM154.46,291.05H135.93l-27.75-32.06v32.06H88.7v-66h18.53l27.74,32.55V225.05h19.49Zm13,0v-66h57.12v15.84h-35.9v9.12H219.4v15.17H188.68v10.08h36.58v15.79Zm130.8-45.79a18.9,18.9,0,0,1-12.77,18.14l14.69,27.65h-23.8l-11.71-24.1H256.8v24.1H235.58v-66H276c14.68,0,22.27,9.46,22.27,20.21Zm-21.6.86a5.89,5.89,0,0,0-5.779-6c-.057,0-.114,0-.171,0H256.8v12.2h13.92a6,6,0,0,0,5.953-6.047q0-.076,0-.153Z" transform="translate(0 -0.05)"/></svg>