<svg id="Layer_1" data-name="Layer 1" xmlns="http://www.w3.org/2000/svg" xmlns:xlink="http://www.w3.org/1999/xlink" viewBox="0 0 20.25 20.38"><defs><style>.cls-1,.cls-2,.cls-6{fill:none;}.cls-2{clip-rule:evenodd;}.cls-3{clip-path:url(#clip-path);}.cls-4{clip-path:url(#clip-path-2);}.cls-5{fill:#010101;}.cls-6{stroke:#010101;stroke-miterlimit:10;}.cls-7{clip-path:url(#clip-path-4);}.cls-8{fill:#fff;}</style><clipPath id="clip-path"><circle class="cls-1" cx="10.16" cy="10.21" r="9"/></clipPath><clipPath id="clip-path-2"><rect class="cls-1" x="-677.84" y="-571.79" width="1440" height="1024"/></clipPath><clipPath id="clip-path-4"><path class="cls-2" d="M14.25,6.33a.41.41,0,0,0-.58,0L8.5,11.5a.41.41,0,0,1-.58,0L6.64,10.23a.41.41,0,0,0-.58,0L5.28,11a.41.41,0,0,0,0,.58l2.64,2.64a.41.41,0,0,0,.58,0L15,7.69a.41.41,0,0,0,0-.58Z"/></clipPath></defs><title>Artboard 1 copy</title><g class="cls-3"><g class="cls-4"><rect class="cls-5" x="-3.84" y="-3.79" width="28" height="28"/></g></g><g class="cls-4"><circle class="cls-6" cx="10.16" cy="10.21" r="9"/></g><g class="cls-7"><g class="cls-4"><rect class="cls-8" x="0.16" y="1.21" width="19.99" height="18.14"/></g></g></svg>