<svg id="Layer_1" data-name="Layer 1" xmlns="http://www.w3.org/2000/svg" xmlns:xlink="http://www.w3.org/1999/xlink" viewBox="0 0 20.25 20.38"><defs><style>.cls-1,.cls-2,.cls-4{fill:none;}.cls-2{clip-rule:evenodd;}.cls-3{clip-path:url(#clip-path);}.cls-4{stroke:#010101;stroke-miterlimit:10;}.cls-5{clip-path:url(#clip-path-2);}.cls-6{clip-path:url(#clip-path-3);}</style><clipPath id="clip-path"><rect class="cls-1" x="-677.84" y="-506.71" width="1440" height="1024"/></clipPath><clipPath id="clip-path-2"><circle class="cls-1" cx="35.66" cy="10.21" r="9"/></clipPath><clipPath id="clip-path-3"><path class="cls-2" d="M39.75,6.33a.41.41,0,0,0-.58,0L34,11.5a.41.41,0,0,1-.58,0l-1.27-1.27a.41.41,0,0,0-.58,0l-.78.78a.41.41,0,0,0,0,.58l2.64,2.64a.41.41,0,0,0,.58,0l6.53-6.53a.41.41,0,0,0,0-.58Z"/></clipPath></defs><title>Artboard 1</title><g class="cls-3"><circle class="cls-4" cx="10.16" cy="10.29" r="9"/></g></svg>