<?xml version="1.0" encoding="iso-8859-1"?>
<!-- Generator: Adobe Illustrator 19.2.1, SVG Export Plug-In . SVG Version: 6.00 Build 0)  -->
<svg version="1.1" xmlns="http://www.w3.org/2000/svg" xmlns:xlink="http://www.w3.org/1999/xlink" x="0px" y="0px"
	 viewBox="0 0 621 153" style="enable-background:new 0 0 621 153;" xml:space="preserve">
<g id="Layer_2">
</g>
<g id="Layer_1">
	<g>
		<g>
			<path style="fill:#D30000;" d="M618.5,0L618.5,0L618.5,0H2.433L2.426,0.007C1.08,0.048,0,1.145,0,2.5l0,0h0v13
				c0,1.355,1.081,2.453,2.426,2.493L2.434,18H600.5h0c1.38,0,2.499,1.119,2.5,2.5V105.5l0,0c0,1.38,1.119,2.5,2.5,2.5h0l0,0h13
				c1.381,0,2.5-1.119,2.5-2.5l0,0V2.5C621,1.119,619.881,0,618.5,0z"/>
		</g>
		<g>
			<path style="fill:#D30000;" d="M2.5,153L2.5,153L2.5,153h616.067l0.007-0.007c1.346-0.04,2.426-1.137,2.426-2.493l0,0h0v-13
				c0-1.355-1.081-2.453-2.426-2.493L618.566,135H20.5h0c-1.38,0-2.499-1.119-2.5-2.5V47.5l0,0c0-1.38-1.119-2.5-2.5-2.5h0l0,0h-13
				C1.119,45,0,46.119,0,47.5l0,0l0,103C0,151.881,1.119,153,2.5,153z"/>
		</g>
		<g>
			<g>
				<path style="fill:#D30000;" d="M97,60.104H82.874c-1.105,0-2,0.895-2,2V106c0,1.105-0.895,2-2,2H65.548c-1.105,0-2-0.895-2-2
					V62.104c0-1.105-0.895-2-2-2H47.333c-1.105,0-2-0.895-2-2V47.027c0-1.105,0.895-2,2-2H97c1.105,0,2,0.895,2,2v11.077
					C99,59.209,98.105,60.104,97,60.104z"/>
			</g>
		</g>
		<g>
			<g>
				<path style="fill:#D30000;" d="M172.207,47.027V106c0,1.105-0.895,2-2,2h-13.142c-1.105,0-2-0.895-2-2V85.342
					c0-1.105-0.895-2-2-2h-16.923c-1.105,0-2,0.895-2,2V106c0,1.105-0.895,2-2,2H119c-1.1,0-2-0.9-2-2V47.027c0-1.1,0.9-2,2-2
					h13.142c1.105,0,2,0.895,2,2v19.237c0,1.1,0.9,2,2,2h16.923c1.105,0,2-0.895,2-2V47.027c0-1.1,0.9-2,2-2h13.142
					C171.307,45.027,172.207,45.927,172.207,47.027z"/>
			</g>
		</g>
		<g>
			<path style="fill:#D30000;" d="M243.128,104.962l-11.297-18.594c-0.488-0.803-0.295-1.952,0.423-2.559
				c4.81-4.065,7.623-10.289,7.623-16.962c0-10.734-8.793-21.819-21.012-21.819h-26.658c-1.105,0-2,0.895-2,2V106c0,1.1,0.9,2,2,2
				h13.142c1.105,0,2-0.895,2-2V90.665c0-1.1,0.9-2,2-2h3.299c0.695,0,1.341,0.361,1.705,0.954l10.695,17.427
				c0.364,0.593,1.009,0.954,1.705,0.954h14.666C242.978,108,243.937,106.294,243.128,104.962z M218.161,73.585h-8.813
				c-1.105,0-2-0.895-2-2v-9.481c0-1.1,0.9-2,2-2h8.373c2.109,0,4.747,2.396,4.747,6.742
				C222.469,71.104,220.27,73.585,218.161,73.585z"/>
		</g>
		<g>
			<g>
				<path style="fill:#D30000;" d="M257.873,106V47.027c0-1.105,0.895-2,2-2h13.142c1.105,0,2,0.895,2,2V106c0,1.1-0.9,2-2,2
					h-13.142C258.769,108,257.873,107.105,257.873,106z"/>
			</g>
		</g>
		<g>
			<g>
				<path style="fill:#D30000;" d="M293.015,106V47.027c0-1.1,0.9-2,2-2h13.142c1.105,0,2,0.895,2,2v43.896c0,1.1,0.9,2,2,2h24.307
					c1.105,0,2,0.895,2,2V106c0,1.1-0.9,2-2,2h-41.449C293.911,108,293.015,107.105,293.015,106z"/>
			</g>
		</g>
		<g>
			<g>
				<path style="fill:#D30000;" d="M356.465,106V47.027c0-1.1,0.9-2,2-2h13.142c1.105,0,2,0.895,2,2v43.896c0,1.1,0.9,2,2,2h24.307
					c1.105,0,2,0.895,2,2V106c0,1.1-0.9,2-2,2h-41.449C357.36,108,356.465,107.105,356.465,106z"/>
			</g>
		</g>
		<g>
			<g>
				<path style="fill:#D30000;" d="M419.548,106V47.027c0-1.1,0.9-2,2-2h13.142c1.105,0,2,0.895,2,2V106c0,1.1-0.9,2-2,2h-13.142
					C420.443,108,419.548,107.105,419.548,106z"/>
			</g>
		</g>
		<g>
			<g>
				<path style="fill:#D30000;" d="M497.182,63.859c-0.517,1-1.749,1.379-2.735,0.836c-2.955-1.629-9.095-4.613-14.417-4.613
					c-2.926,0-4.907,0.869-4.907,3.041c0,3.213,4.306,3.907,11.365,6.165c11.277,3.561,18.422,7.557,18.422,19.109
					c0,14.853-11.881,19.631-23.243,19.631c-8.203,0-17.735-2.454-24.91-6.261c-0.955-0.507-1.338-1.678-0.864-2.65l5.446-11.184
					c0.505-1.037,1.779-1.439,2.78-0.866c3.358,1.919,10.82,5.674,17.806,5.674c3.615,0,4.907-1.043,4.907-2.692
					c0-3.561-6.283-4.344-13.601-6.862c-10.762-3.649-15.498-8.251-15.498-17.285c0-13.636,10.762-20.846,22.815-20.846
					c7.937,0,15.599,3.132,21.07,5.782c1.011,0.49,1.41,1.717,0.894,2.715L497.182,63.859z"/>
			</g>
		</g>
		<g>
			<g>
				<path style="fill:#D30000;" d="M574,60.104h-13.934c-1.105,0-2,0.895-2,2V106c0,1.1-0.9,2-2,2h-13.142c-1.105,0-2-0.895-2-2
					V62.104c0-1.105-0.895-2-2-2h-14.021c-1.105,0-2-0.895-2-2V47.027c0-1.1,0.9-2,2-2H574c1.105,0,2,0.895,2,2v11.077
					C576,59.204,575.1,60.104,574,60.104z"/>
			</g>
		</g>
	</g>
</g>
</svg>
