<svg width="50" height="40" viewBox="0 0 50 40" fill="none" xmlns="http://www.w3.org/2000/svg">
<path d="M5.01277 10.9706C3.36626 7.12874 8.44301 3.42409 11.1872 2.052C18.7337 -2.06428 22.85 3.42409 29.7105 8.22642C36.5709 13.0287 42.5785 1.80659 47.8249 9.52328C52.9045 16.9946 46.5636 24.8324 40.6872 25.3776C34.104 25.9884 31.3598 14.3256 25.1854 21.1861C19.011 28.0465 26.2802 27.4357 20.7919 35.6683C15.3035 43.9008 2.95461 38.4125 0.896469 34.2962C-1.16167 30.1799 5.02558 26.1365 9.12903 25.3776C13.2453 24.6163 14.6174 18.5171 13.2453 15.0869C11.8732 11.6567 7.07091 15.7729 5.01277 10.9706Z" fill="#E31968"/>
</svg>
